<?xml version="1.0" encoding="UTF-8"?>
<svg version="1.1" viewBox="0 0 404 391" xmlns="http://www.w3.org/2000/svg">
  <g fill="none" fill-rule="evenodd">
    <g transform="translate(0 -161)" fill="rgba(255, 255, 255, 1)">
      <path d="m360.42 428.38c0.366-1.962 0.394-4.2-0.186-6.441-0.539-2.247-1.589-4.488-3-6.564-1.405-2.086-3.161-4.023-5.179-5.738-0.507-0.428-1.033-0.84-1.583-1.231-0.545-0.393-1.167-0.774-1.746-1.084-1.116-0.604-2.214-1.277-3.293-1.98-4.315-2.828-8.357-6.102-11.852-9.422-3.491-3.323-6.423-6.744-8.403-9.912-0.992-1.581-1.741-3.094-2.234-4.451-0.171-0.463-0.299-0.898-0.41-1.32 0.048-0.732 0.082-1.401 0.049-1.966-0.014-0.583-0.026-1.103-0.037-1.557 0.485 0.076 0.966 0.136 1.436 0.162 1.155 0.076 2.287 0.057 3.416-8e-3 1.127-0.069 2.249-0.187 3.369-0.343 0.567-0.08 1.104-0.16 1.697-0.273l1.625-0.325c2.246-0.484 4.358-1.085 6.459-1.71 2.095-0.63 4.114-1.268 6.101-1.908 2.033-0.69 3.835-1.57 5.553-2.359 1.713-0.795 3.331-1.514 4.874-2.026 1.539-0.516 3.007-0.806 4.321-0.826 1.313-0.027 2.454 0.225 3.343 0.561 0.893 0.337 1.526 0.758 1.959 1.034 0.413 0.308 0.633 0.472 0.633 0.472s-0.208-0.18-0.6-0.518c-0.413-0.307-1.02-0.778-1.908-1.189-0.882-0.408-2.046-0.756-3.419-0.828-1.37-0.077-2.925 0.117-4.55 0.534-1.628 0.414-3.335 1.031-5.107 1.703-1.771 0.666-3.626 1.405-5.549 1.905-1.983 0.484-4.075 0.983-6.17 1.453-2.093 0.463-4.261 0.909-6.348 1.204l-1.632 0.206c-0.493 0.058-1.048 0.103-1.571 0.138-1.06 0.071-2.118 0.106-3.157 0.095-1.036-0.013-2.057-0.073-3.016-0.206-0.484-0.061-0.94-0.156-1.372-0.263-0.219-0.059-0.339-0.099-0.558-0.169l-0.364-0.139-0.091-0.034c-0.023-9e-3 0.114 0.041 0.049 0.016l-0.014-8e-3 -0.03-0.015-0.117-0.06c-0.625-0.345-0.85-0.658-1.056-1.248-0.206-0.593-0.288-1.49-0.438-2.498-0.15-1.007-0.407-2.196-1.032-3.303-0.153-0.269-0.322-0.535-0.556-0.837l-0.231-0.29-0.051-0.063-0.138-0.145-0.185-0.183c-0.5-0.476-1.052-0.829-1.578-1.091-1.059-0.509-2.004-0.716-2.836-0.883-0.827-0.155-1.559-0.252-2.198-0.352-1.273-0.185-2.184-0.431-2.58-0.673-0.388-0.241-0.371-0.34-0.438-0.46 0.011-1e-3 0.011 5e-3 7e-3 0.011-1e-3 -3e-3 -4e-3 -0.015-6e-3 -0.019 0.4-0.248 0.802-0.501 1.198-0.744 6.009-3.73 11.587-7.004 16.832-9.221 5.246-2.239 10.085-3.538 14.119-4.306 2.016-0.41 3.84-0.626 5.424-0.848 1.592-0.145 2.948-0.289 4.049-0.355 2.208-0.097 3.385-0.149 3.385-0.149s-1.179 1e-3 -3.391 5e-3c-1.106 0.019-2.468 0.106-4.072 0.183-1.597 0.155-3.442 0.294-5.488 0.621-4.094 0.6-9.041 1.703-14.467 3.751-2.71 1.025-5.533 2.284-8.427 3.753-1.432 0.749-2.9 1.518-4.403 2.304-1.511 0.77-3.058 1.558-4.638 2.364-6.311 3.233-12.998 6.974-20.391 9.916-0.921 0.369-1.848 0.74-2.781 1.113-0.965 0.352-1.937 0.706-2.914 1.062l-1.47 0.536-1.438 0.499c-0.987 0.332-1.979 0.667-2.977 1.003-4.009 1.317-8.15 2.579-12.384 3.881-2.883 0.892-5.815 1.804-8.772 2.772 0.839-0.682 1.64-1.395 2.391-2.144 3.332-3.318 5.874-7.093 7.896-10.912 1.009-1.916 1.883-3.85 2.619-5.804 0.365-0.982 0.698-1.957 0.969-2.991l0.111-0.451 0.129-0.722 0.021-0.176 0.021 0.027s0.169-0.14 0.483-0.403c0.312-0.255 0.79-0.681 1.338-1.073 0.539-0.426 1.27-0.927 2.118-1.493 0.862-0.547 1.852-1.145 2.973-1.752 2.24-1.213 4.979-2.471 7.993-3.737 3.008-1.274 6.28-2.584 9.487-4.096 1.604-0.752 3.183-1.578 4.701-2.455 1.52-0.873 2.951-1.855 4.28-2.871 1.33-1.019 2.504-2.139 3.562-3.245 1.017-1.145 1.928-2.27 2.637-3.398 0.369-0.552 0.703-1.093 0.981-1.632 0.297-0.526 0.567-1.03 0.779-1.526 0.474-0.965 0.785-1.848 1.055-2.567 0.268-0.719 0.409-1.309 0.538-1.698 0.118-0.394 0.181-0.603 0.181-0.603s-0.078 0.205-0.224 0.588c-0.156 0.38-0.337 0.955-0.654 1.65-0.32 0.695-0.69 1.544-1.225 2.461-0.242 0.472-0.543 0.949-0.871 1.443-0.308 0.507-0.672 1.011-1.071 1.524-0.767 1.047-1.729 2.073-2.786 3.106-1.097 0.992-2.297 1.985-3.644 2.872-1.346 0.883-2.782 1.726-4.309 2.463-1.525 0.741-3.105 1.43-4.721 2.051-3.228 1.249-6.548 2.312-9.671 3.379-3.124 1.057-6.05 2.151-8.517 3.267-1.233 0.558-2.348 1.126-3.33 1.655-0.811 0.461-1.51 0.876-2.134 1.278-0.093-0.963-0.214-1.892-0.319-2.798-0.217-1.785-0.4-3.481-0.409-5.089 0.038-3.213 0.657-6.235 1.374-8.802 0.735-2.58 1.659-4.75 2.614-6.427 0.953-1.68 1.933-2.864 2.681-3.584 0.748-0.725 1.216-1.037 1.216-1.037s-0.489 0.273-1.299 0.944c-0.811 0.667-1.899 1.788-3.004 3.425-1.107 1.633-2.224 3.775-3.183 6.359-0.943 2.592-1.814 5.581-2.139 9.052-0.292 3.459 0.265 7.172 0 10.758-0.044 0.433-0.095 0.899-0.176 1.262-0.045 0.306-0.232 1.008-0.333 1.259-0.295 0.848-0.673 1.734-1.08 2.609-0.822 1.754-1.784 3.505-2.862 5.211-2.155 3.408-4.782 6.678-7.903 9.326-1.552 1.324-3.25 2.471-5.012 3.361-0.423 0.198-0.806 0.395-1.36 0.617l-0.384 0.162-0.097 0.041c-0.071 0.031 0.044-0.021 0.015-9e-3l-0.048 0.017-0.193 0.068-0.769 0.271c-1.032 0.355-2.038 0.744-3.089 1.07-4.146 1.375-8.436 2.556-12.719 3.962-1.071 0.368-2.138 0.734-3.198 1.099-1.082 0.415-2.158 0.828-3.227 1.239-1.087 0.414-1.999 0.848-2.996 1.267l-0.73 0.315-0.364 0.158-0.091 0.039-0.193 0.097-0.225 0.116c-0.582 0.306-1.097 0.599-1.598 0.902-3.52 2.133-6.545 4.53-9.268 7.049 0.492-0.822 1.021-1.672 1.591-2.548 2.214-3.45 5.043-7.28 8.311-11.463 3.266-4.197 7-8.71 10.848-13.848 1.915-2.581 3.863-5.314 5.686-8.389 0.903-1.55 1.783-3.169 2.567-4.939 0.83-1.919 1.311-3.378 1.903-4.983 2.264-6.147 4.871-12.42 8.124-18.352 0.391-0.754 0.84-1.468 1.258-2.209l0.577-1.004 0.73-1.121c0.505-0.811 0.936-1.351 1.382-1.973 0.426-0.613 0.995-1.23 1.484-1.851 2.106-2.406 4.551-4.52 7.294-6.244 5.492-3.472 12.126-5.26 18.876-6.057 6.782-0.829 13.663-0.65 20.525-0.784 3.265-0.128 6.532 0.064 9.806 0.161 3.262 0.112 6.483 0.184 9.632 0.114 0.957-0.021 1.907-0.06 2.85-0.111l-0.25 0.11s0.113 0.238 0.325 0.682c0.108 0.227 0.3 0.574 0.499 0.941 0.216 0.348 0.441 0.752 0.747 1.173 0.588 0.854 1.392 1.83 2.42 2.797 1.024 0.974 2.274 1.916 3.666 2.81 2.788 1.795 6.15 3.331 9.465 5.274 1.66 0.97 3.298 2.063 4.836 3.325 0.474 0.372 0.811 0.648 1.282 0.982 0.48 0.32 0.959 0.655 1.451 0.91 0.969 0.563 2.013 0.99 3.068 1.341 2.124 0.686 4.327 0.953 6.455 0.954 2.133 0.017 4.198-0.227 6.164-0.541 3.934-0.647 7.492-1.607 10.552-2.356 3.055-0.766 5.614-1.338 7.423-1.657 1.807-0.324 2.853-0.44 2.853-0.44s-1.05 0.054-2.879 0.27c-1.829 0.211-4.43 0.633-7.53 1.217-3.1 0.567-6.707 1.311-10.584 1.713-1.936 0.193-3.942 0.307-5.945 0.17-2.002-0.119-3.999-0.493-5.841-1.212-0.915-0.368-1.804-0.793-2.615-1.334-0.426-0.252-0.783-0.545-1.157-0.819-0.364-0.286-0.811-0.694-1.134-0.979-1.423-1.318-2.938-2.479-4.452-3.516 0.311-0.147 0.719-0.31 1.267-0.443 0.571-0.147 1.258-0.283 2.041-0.414 1.564-0.268 3.479-0.554 5.485-1.112 2.007-0.545 4.091-1.384 5.999-2.495 3.852-2.21 6.86-5.444 8.812-7.997 0.987-1.278 1.736-2.392 2.243-3.181 0.503-0.791 0.79-1.243 0.79-1.243s-0.325 0.425-0.894 1.169c-0.573 0.739-1.415 1.778-2.497 2.953-2.143 2.35-5.364 5.226-9.15 6.97-1.879 0.883-3.862 1.484-5.765 1.826-1.903 0.354-3.72 0.467-5.339 0.598-0.809 0.065-1.578 0.144-2.283 0.261-0.702 0.107-1.36 0.29-1.905 0.498-0.279 0.121-0.507 0.203-0.765 0.363-0.233 0.136-0.474 0.286-0.541 0.345-0.086 0.064-0.145 0.108-0.196 0.145-2.55-1.59-4.937-2.95-6.815-4.334-1.209-0.883-2.223-1.753-3.005-2.596-0.79-0.838-1.364-1.633-1.777-2.319-0.217-0.334-0.37-0.663-0.517-0.928-0.032-0.074-0.061-0.132-0.091-0.196 0.819-0.091 1.632-0.196 2.436-0.323 2.966-0.469 5.845-1.214 8.438-2.484 0.649-0.311 1.27-0.669 1.871-1.066l0.821-0.551 0.839-0.635c1.072-0.861 2.044-1.753 2.886-2.731 1.702-1.933 2.946-4.02 3.939-6.018 1.962-4.013 3.104-7.664 4.646-10.371 1.468-2.749 3.389-4.409 4.891-5.141 0.366-0.207 0.708-0.349 1.006-0.466 0.294-0.131 0.551-0.215 0.76-0.274 0.417-0.129 0.632-0.195 0.632-0.195s-0.219 0.052-0.644 0.152c-0.214 0.046-0.478 0.113-0.781 0.223-0.309 0.098-0.664 0.218-1.049 0.402-1.57 0.635-3.687 2.226-5.387 4.954-1.769 2.676-3.181 6.298-5.336 10.036-1.086 1.86-2.392 3.735-4.066 5.393-0.822 0.838-1.777 1.595-2.767 2.287l-0.748 0.495-0.852 0.492c-0.523 0.296-1.083 0.575-1.668 0.808-2.334 0.962-5.004 1.486-7.806 1.741-2.807 0.258-5.754 0.273-8.792 0.14-3.04-0.13-6.17-0.403-9.391-0.724-2.923-0.276-5.971-0.637-9.127-0.771 0.22-0.165 0.437-0.33 0.667-0.503 1.295-0.993 2.773-2.142 4.323-3.543 1.561-1.414 3.14-3.041 4.594-5.244 0.293-0.485 0.59-0.977 0.891-1.475l0.454-0.751 0.447-0.826c0.295-0.553 0.61-1.114 0.895-1.677 0.273-0.561 0.549-1.127 0.828-1.698 1.084-2.284 2.058-4.685 3.118-6.959 0.541-1.18 1.074-2.124 1.783-3.296 0.663-1.069 1.362-2.107 2.135-3.146 3.053-4.132 6.784-7.825 10.35-11.228 3.573-3.402 6.986-6.57 9.599-9.593 1.309-1.506 2.418-2.972 3.285-4.345 0.871-1.371 1.491-2.648 1.93-3.722 0.417-1.085 0.665-1.963 0.798-2.568 0.125-0.606 0.192-0.929 0.192-0.929s-0.088 0.317-0.254 0.913c-0.173 0.592-0.479 1.445-0.961 2.485-0.506 1.03-1.199 2.24-2.141 3.523-0.94 1.286-2.121 2.644-3.506 4.034-2.763 2.79-6.335 5.683-10.149 8.848-2.847 2.373-5.837 4.925-8.637 7.792-0.211-1.058-0.364-2.552-0.416-4.315-0.071-2.196-5e-3 -4.809 0.143-7.616 0.089-1.408 0.181-2.863 0.274-4.342 0.052-0.745 0.104-1.496 0.156-2.25 0.021-0.393 0.056-0.734 0.06-1.183 0.01-0.354-9e-3 -0.811-0.033-1.237-0.293-3.28-1.473-6.183-2.663-8.796-1.215-2.609-2.534-4.923-3.688-6.884-1.159-1.96-2.161-3.565-2.852-4.695-0.689-1.13-1.083-1.777-1.083-1.777s0.332 0.681 0.913 1.871c0.583 1.189 1.431 2.882 2.397 4.931 0.963 2.049 2.05 4.458 2.99 7.096 0.923 2.622 1.753 5.539 1.728 8.33-0.042 1.326-0.329 2.841-0.519 4.32-0.2 1.484-0.397 2.945-0.587 4.358-0.352 2.841-0.611 5.515-0.701 7.857-0.092 2.343-0.021 4.347 0.29 5.894 0.075 0.386 0.165 0.741 0.272 1.067 0.057 0.165 0.111 0.318 0.159 0.458 0.043 0.1 0.084 0.18 0.126 0.269-0.773 0.922-1.53 1.891-2.241 2.882-0.735 1.021-1.552 2.325-2.143 3.482-0.921 1.745-1.739 3.444-2.563 5.068-0.027-0.214-0.055-0.427-0.082-0.647-0.041-0.295-0.083-0.595-0.125-0.9-0.063-0.289-0.127-0.582-0.192-0.879-0.245-1.188-0.654-2.396-1.125-3.607-0.499-1.202-1.083-2.404-1.773-3.556-0.617-1.166-1.555-2.305-2.547-3.307-0.969-0.963-1.98-1.843-3.006-2.658-1.02-0.825-2.052-1.588-3.063-2.306-2.022-1.435-3.968-2.675-5.667-3.684-1.7-1.006-3.153-1.782-4.21-2.246-1.05-0.487-1.706-0.592-1.706-0.592s0.155 0.053 0.445 0.153c0.283 0.11 0.688 0.311 1.184 0.592 0.997 0.557 2.361 1.462 3.943 2.615 1.582 1.156 3.384 2.564 5.23 4.158 0.922 0.797 1.859 1.639 2.766 2.529 0.916 0.881 1.8 1.817 2.603 2.784 0.759 0.941 1.441 1.892 1.93 3.069 0.532 1.12 0.952 2.255 1.293 3.361 0.313 1.114 0.569 2.196 0.678 3.232 0.032 0.257 0.062 0.512 0.093 0.762 9e-3 0.24 0.019 0.476 0.028 0.708s0.019 0.461 0.028 0.685c-9e-3 0.256-0.017 0.506-0.026 0.752-8e-3 0.246-0.017 0.487-0.025 0.722-0.014 0.225-0.028 0.445-0.041 0.66-0.022 0.447-0.042 0.871-0.06 1.27-0.044 0.763-0.097 1.386-0.189 1.839-0.021 0.113-0.041 0.22-0.059 0.32-0.021 0.073-0.041 0.14-0.059 0.203-0.015 0.062-0.029 0.12-0.042 0.173-0.03 0.085-0.059 0.163-0.084 0.232-0.107 0.288-0.165 0.442-0.165 0.442l7e-3 2e-3c-0.168 0.249-0.338 0.501-0.504 0.746-1.127 1.529-2.59 2.972-4.025 4.135-2.901 2.358-5.697 4.108-7.609 5.46-0.873 0.605-1.609 1.135-2.115 1.511-4.641-0.246-9.456-0.445-14.396-0.16-7.323 0.405-15.093 1.876-22.102 5.69-3.484 1.89-6.714 4.332-9.513 7.155-0.676 0.741-1.366 1.407-2.024 2.218-0.655 0.789-1.361 1.628-1.842 2.308l-0.8 1.072-0.855 1.249c-0.515 0.774-1.065 1.53-1.549 2.317-4.03 6.241-7.26 12.686-10.127 19.02-0.683 1.52-1.405 3.187-1.969 4.277-0.64 1.226-1.408 2.452-2.219 3.661-1.649 2.42-3.542 4.767-5.464 7.037-3.867 4.542-7.872 8.812-11.511 12.921-2.418 2.723-4.674 5.363-6.742 7.937 0.667-2.601 1.881-5.611 3.725-8.908 2.221-4.003 5.328-8.383 8.901-13.204 3.552-4.839 7.612-10.117 11.262-16.353 1.814-3.119 3.51-6.492 4.829-10.163 0.661-1.833 1.217-3.742 1.638-5.71 0.209-0.985 0.39-1.982 0.525-2.993 0.067-0.505 0.137-1.01 0.178-1.522l0.129-1.414c0.525-7.124 2.729-14.157 6.718-20.521 3.964-6.383 9.519-12.001 15.253-17.601 1.154-1.131 2.316-2.272 3.475-3.425 1.285-0.938 3.047-2.267 5.125-3.935 0.53-0.419 1.081-0.883 1.651-1.362 0.276-0.235 0.632-0.571 0.885-0.807 0.261-0.267 0.526-0.54 0.794-0.815 1.007-1 2.242-2.052 3.53-3.085 2.573-2.092 5.582-4.245 7.963-7.139 1.195-1.471 2.09-3.008 3.15-4.37 1.051-1.394 2.137-2.741 3.195-4.046 2.123-2.602 4.078-5.097 5.47-7.424 0.711-1.153 1.265-2.266 1.722-3.264 0.429-1.011 0.773-1.903 0.989-2.661 0.257-0.743 0.365-1.354 0.468-1.761 0.095-0.408 0.146-0.627 0.146-0.627s-0.063 0.215-0.183 0.618c-0.126 0.4-0.267 1-0.566 1.724-0.257 0.739-0.649 1.603-1.13 2.575-0.508 0.96-1.117 2.022-1.881 3.115-1.501 2.209-3.562 4.548-5.831 7.022-1.132 1.241-2.301 2.532-3.455 3.89-1.183 1.36-2.196 2.875-3.349 4.113-2.343 2.519-5.33 4.408-8.081 6.364 0.719-0.964 1.419-1.942 2.081-2.95 2.239-3.423 4.131-7.071 5.466-10.867 1.36-3.787 2.205-7.685 2.619-11.535 0.828-7.719 0.043-15.171-1.307-22.008-0.947-5.005-2.745-9.666-5.213-13.619 0.022-0.04 0.048-0.09 0.085-0.159 0.046-0.086 0.141-0.295 0.22-0.489 0.093-0.223 0.114-0.347 0.183-0.558 0.218-0.769 0.375-1.756 0.527-2.924 0.302-2.329 0.558-5.366 1.03-8.37 0.46-2.999 1.184-5.962 2.208-7.991 0.25-0.509 0.517-0.955 0.778-1.335 0.266-0.375 0.514-0.698 0.751-0.93 0.223-0.25 0.426-0.415 0.566-0.529 0.138-0.116 0.211-0.177 0.211-0.177s-0.08 0.052-0.231 0.15c-0.153 0.096-0.378 0.238-0.634 0.461-0.27 0.207-0.561 0.503-0.881 0.853-0.314 0.356-0.645 0.782-0.965 1.272-1.311 1.958-2.427 4.914-3.268 7.902-0.852 2.989-1.488 6.028-2.051 8.218-0.178 0.698-0.349 1.297-0.507 1.78-0.379-0.483-0.759-0.964-1.161-1.416-2.049-2.318-4.387-4.205-6.832-5.595-2.444-1.405-4.979-2.288-7.425-2.808-4.853-1.005-9.213-0.939-12.715-0.599-3.516 0.35-6.223 0.98-8.042 1.468-0.908 0.255-1.602 0.456-2.063 0.611-0.464 0.147-0.703 0.224-0.703 0.224s0.242-0.067 0.71-0.197c0.467-0.138 1.168-0.311 2.082-0.531 1.832-0.417 4.553-0.941 8.049-1.154 3.487-0.204 7.776-0.103 12.491 1.063 4.661 1.118 9.583 3.931 13.29 8.506 0.926 1.125 1.778 2.344 2.554 3.643-1.274-0.718-3.088-2.004-5.318-3.519-1.137-0.766-2.383-1.595-3.796-2.385-0.709-0.392-1.46-0.777-2.298-1.097-0.419-0.16-0.863-0.303-1.349-0.401-0.129-0.027-0.229-0.042-0.392-0.066l-0.313-0.035c-0.207-0.024-0.415-0.049-0.658-0.061-3.689-0.295-7.442 0.971-10.601 2.898-3.187 1.928-5.901 4.443-8.216 6.954-2.313 2.521-4.234 5.063-5.785 7.298-1.551 2.236-2.734 4.169-3.54 5.532-0.792 1.372-1.244 2.156-1.244 2.156s0.49-0.761 1.348-2.091c0.871-1.321 2.145-3.188 3.795-5.335 1.65-2.143 3.679-4.569 6.074-6.934 2.393-2.355 5.169-4.67 8.274-6.344 1.549-0.833 3.177-1.496 4.825-1.886 1.639-0.397 3.326-0.502 4.859-0.313 0.862 0.099 1.444 0.229 2.132 0.554 0.671 0.303 1.328 0.684 1.956 1.082 1.258 0.803 2.417 1.671 3.485 2.484 2.136 1.638 3.904 3.067 5.344 3.989 0.724 0.462 1.363 0.811 2.01 1 0.339 0.092 0.616 0.141 0.992 0.119 0.088-0.01 0.165-0.019 0.231-0.026 6e-3 -1e-3 9e-3 -2e-3 0.014-3e-3 1.375 3.089 2.373 6.482 2.912 10.058 1.078 6.73 1.552 13.968 0.499 21.225-0.525 3.622-1.451 7.23-2.84 10.694-1.368 3.474-3.239 6.778-5.442 9.893-4.433 6.244-10.287 11.575-16.232 16.978-5.935 5.397-12.037 11.06-16.715 17.99-2.321 3.456-4.269 7.186-5.675 11.074-0.697 1.943-1.292 3.914-1.747 5.898-0.217 1.001-0.436 1.966-0.599 2.998l-0.248 1.53-0.177 1.405-0.174 1.388c-0.045 0.423-0.118 0.842-0.186 1.26-0.137 0.837-0.316 1.665-0.515 2.484-0.097 0.395-0.222 0.78-0.332 1.17-1.316-2.505-3.243-4.832-5.397-7.031-0.554-0.554-1.12-1.12-1.697-1.696l-0.43-0.421-0.108-0.106-0.054-0.052c0.013 0.013-0.066-0.069 0.022 0.024l-0.027-0.027-0.21-0.218c-0.262-0.281-0.61-0.61-0.809-0.858-0.906-1.011-1.825-2.3-2.503-3.651-1.413-2.726-2.007-6.053-1.803-9.606 0.189-3.559 1.095-7.292 2.24-11.078 1.177-3.807 2.364-7.708 3.769-11.473 0.033-0.09 0.069-0.181 0.102-0.272 0.083-0.136 0.215-0.349 0.403-0.655 0.165-0.266 0.368-0.594 0.606-0.978 0.25-0.329 0.536-0.706 0.857-1.128 0.293-0.43 0.74-0.888 1.179-1.395 0.431-0.516 0.955-1.035 1.519-1.589 1.109-1.119 2.471-2.301 3.997-3.553 1.53-1.248 3.248-2.547 5.098-3.89 1.851-1.342 3.831-2.731 5.886-4.172 4.102-2.888 8.517-5.979 12.624-9.494 2.067-1.737 4.003-3.645 5.783-5.633 1.787-1.986 3.287-4.183 4.483-6.436 1.233-2.243 1.914-4.667 2.282-6.965 0.065-0.581 0.129-1.154 0.193-1.718 0.028-0.565-4e-3 -1.125-4e-3 -1.674 0.044-1.1-0.183-2.143-0.302-3.148-0.045-0.507-0.186-0.984-0.308-1.453-0.121-0.468-0.24-0.926-0.356-1.372-0.219-0.894-0.606-1.686-0.872-2.459-0.263-0.778-0.612-1.46-0.932-2.092-0.314-0.633-0.603-1.215-0.864-1.74-1.218-2.001-1.914-3.145-1.914-3.145s0.655 1.166 1.8 3.205c0.241 0.532 0.508 1.121 0.799 1.762 0.296 0.639 0.619 1.327 0.852 2.108 0.237 0.775 0.592 1.57 0.777 2.46 0.099 0.443 0.199 0.897 0.303 1.362 0.103 0.465 0.226 0.937 0.251 1.435 0.082 0.989 0.27 2.012 0.188 3.082-0.02 0.532-6e-3 1.075-0.053 1.622-0.081 0.543-0.162 1.095-0.245 1.654-0.435 2.208-1.165 4.505-2.431 6.626-1.23 2.129-2.745 4.196-4.551 6.066-1.798 1.872-3.746 3.663-5.835 5.298-4.148 3.305-8.619 6.21-12.817 8.95-2.102 1.366-4.14 2.692-6.058 3.983-1.919 1.293-3.716 2.555-5.341 3.787-1.498 1.144-2.854 2.24-4.022 3.311 0.388-1.069 0.767-2.141 1.127-3.217 1.29-3.849 2.332-7.761 2.861-11.627 0.506-3.885 0.584-7.602 0.458-11.157-0.151-3.545-0.632-6.901-1.515-9.881-0.861-2.98-2.154-5.573-3.48-7.668-1.327-2.131-2.62-3.874-3.732-5.277-1.114-1.399-2.034-2.46-2.671-3.174-0.643-0.708-0.986-1.085-0.986-1.085s0.325 0.393 0.935 1.129c0.602 0.743 1.471 1.843 2.515 3.287 1.039 1.443 2.25 3.247 3.454 5.396 1.231 2.163 2.344 4.694 3.052 7.638 0.723 2.928 1.039 6.201 1.026 9.662-0.034 3.451-0.289 7.149-0.944 10.824-0.68 3.689-1.853 7.402-3.286 11.102-1.432 3.702-3.106 7.407-4.702 11.19-1.627 3.812-2.994 7.664-4.361 11.473-1.347 3.835-2.528 7.789-2.936 11.87-0.411 3.902 0.05 7.975 1.568 11.483-0.364-0.014-0.735-0.027-1.126-0.032-1.833-0.027-3.957 0.081-6.149 0.298-2.201 0.206-4.465 0.484-6.706 0.52-2.316 0.023-4.568-0.044-6.659-0.394-2.076-0.346-3.978-0.969-5.316-1.962-1.364-0.969-2.015-2.31-2.208-3.284-0.107-0.488-0.143-0.887-0.145-1.158-8e-3 -0.272-0.012-0.417-0.012-0.417s-0.014 0.145-0.04 0.416c-0.033 0.272-0.046 0.676 0 1.19 0.031 0.517 0.184 1.141 0.48 1.814 0.301 0.671 0.791 1.37 1.458 1.996 1.332 1.273 3.301 2.196 5.448 2.838 2.149 0.646 4.537 1.014 6.852 1.282 2.396 0.307 4.776 0.356 6.923 0.466 2.156 0.097 4.098 0.284 5.734 0.545 0.817 0.131 1.558 0.271 2.208 0.422 0.662 0.136 1.185 0.294 1.634 0.406 0.286 0.083 0.523 0.152 0.733 0.213 0.038 0.047 0.071 0.095 0.109 0.142 0.311 0.399 0.554 0.641 0.831 0.965l0.2 0.227 0.253 0.272 0.104 0.112c-0.059 0.031-0.115 0.061-0.176 0.092-0.725 0.402-1.412 0.944-2.067 1.562-0.631 0.628-1.258 1.326-1.806 2.091-0.571 0.759-1.089 1.576-1.6 2.421-1.005 1.696-1.931 3.521-2.828 5.334-1.784 3.622-3.519 7.214-5.394 9.509-0.468 0.566-0.935 1.056-1.392 1.441-0.457 0.386-0.9 0.667-1.284 0.865-0.391 0.185-0.712 0.308-0.944 0.35-0.229 0.06-0.351 0.092-0.351 0.092s0.126-0.013 0.361-0.037c0.241-7e-3 0.581-0.077 1.014-0.206 0.426-0.141 0.933-0.36 1.473-0.689 0.54-0.327 1.107-0.761 1.688-1.277 2.32-2.081 4.668-5.486 6.977-8.769 1.158-1.642 2.324-3.254 3.478-4.65 0.58-0.69 1.151-1.337 1.715-1.882 0.555-0.566 1.111-1.001 1.612-1.368 0.508-0.339 0.966-0.587 1.348-0.713 0.19-0.052 0.364-0.136 0.514-0.137 0.139-0.013 0.318-0.073 0.351-0.037 0.061 0.012 0.104 6e-3 0.151-6e-3 0.17 0.017 0.316 0.032 0.433 0.044 0.14 0.016 0.227 0.024 0.286 0.03 1.129 1.445 2.02 2.829 2.601 4.126 0.217 0.479 0.387 0.943 0.502 1.302 0.067 0.177 0.146 0.527 0.217 0.774 0.04 0.131 0.067 0.314 0.103 0.53 0.132 0.868 0.191 1.778 0.201 2.539 0.014 0.514-9e-3 0.98-0.047 1.382-0.626 1.15-1.278 2.282-1.964 3.383-3.502 5.593-7.565 10.584-11.292 15.341-3.745 4.749-7.205 9.285-9.882 13.772-1.409 2.343-2.586 4.68-3.516 6.947-0.027-0.123-0.052-0.247-0.08-0.37-0.736-3.106-1.632-6.167-2.681-9.14-0.504-1.496-1.108-2.938-1.659-4.404l-1.853-4.3c-0.573-1.271-1.283-2.8-1.91-4.096l-1.924-3.955c-2.531-5.185-4.994-10.245-6.669-15.147-0.431-1.225-0.758-2.414-1.042-3.572l-0.544-2.192c-0.151-0.655-0.395-1.46-0.624-2.234-0.911-3.102-1.92-5.753-2.939-8.434-1.008-2.657-2.022-5.212-2.859-7.695-0.699-2.069-1.449-4.303-2.201-6.442 0.143-0.386 0.306-0.766 0.49-1.256 0.234-0.613 0.577-1.363 0.935-2.174 0.748-1.628 1.758-3.572 3.08-5.74 1.021-1.685 2.252-3.498 3.662-5.412 0.11-0.016 0.209-0.028 0.333-0.05 0.43-0.071 0.907-0.149 1.425-0.235 0.478-0.111 0.995-0.232 1.548-0.36 1.09-0.284 2.3-0.639 3.573-1.104 0.589-0.208 1.195-0.444 1.81-0.694 0.137 0.023 0.29 0.048 0.474 0.078 0.16 0.026 0.337 0.056 0.529 0.088 0.218 0.027 0.29 0.085 0.46 0.128 0.306 0.119 0.638 0.128 1.067 0.344 0.412 0.215 0.913 0.351 1.37 0.672 0.474 0.286 0.99 0.58 1.472 0.984 0.513 0.36 0.994 0.808 1.487 1.271 0.501 0.454 0.948 0.991 1.424 1.505 0.43 0.553 0.902 1.086 1.287 1.672 0.416 0.566 0.787 1.152 1.135 1.729 0.36 0.573 0.653 1.156 0.954 1.703 0.262 0.561 0.544 1.087 0.74 1.594 0.445 1 0.709 1.874 0.874 2.493 0.098 0.309 0.112 0.559 0.151 0.729 0.03 0.171 0.046 0.262 0.046 0.262s3e-3 -0.092 0.01-0.264c-3e-3 -0.172 0.037-0.433 6e-3 -0.756-0.032-0.65-0.109-1.59-0.339-2.692-0.091-0.559-0.258-1.144-0.405-1.778-0.184-0.619-0.358-1.286-0.601-1.955-0.231-0.673-0.487-1.366-0.795-2.055-0.275-0.705-0.649-1.379-0.99-2.079-0.392-0.669-0.761-1.364-1.212-2-0.443-0.642-0.888-1.276-1.402-1.841-0.471-0.598-1.02-1.108-1.544-1.598-0.267-0.28-0.566-0.512-0.864-0.73 0.373-0.194 0.742-0.381 1.118-0.584 2.879-1.573 5.827-3.398 8.684-5.317 0.71-0.483 1.421-0.966 2.129-1.447l0.572-0.392 0.506-0.383 1.009-0.769c1.386-1.176 2.618-2.335 3.694-3.569 1.104-1.208 2.069-2.449 2.966-3.629 0.875-1.198 1.672-2.347 2.369-3.429 2.79-4.333 4.214-7.441 4.214-7.441s-1.762 2.939-4.971 6.89c-0.774 0.955-1.649 1.958-2.589 2.989-0.245-0.933-0.418-2.383-0.588-4.205-0.181-1.882-0.403-4.15-0.941-6.533-0.071-0.302-0.143-0.606-0.216-0.912-0.081-0.292-0.162-0.586-0.244-0.882-0.184-0.62-0.379-1.22-0.595-1.817-0.429-1.195-0.917-2.376-1.413-3.541-0.993-2.327-2.006-4.613-2.664-6.844-0.67-2.225-0.92-4.401-0.739-6.256 0.179-1.857 0.714-3.353 1.169-4.349 0.226-0.501 0.425-0.887 0.574-1.142 0.141-0.259 0.217-0.398 0.217-0.398s-0.085 0.132-0.246 0.381c-0.168 0.245-0.394 0.615-0.659 1.102-0.532 0.969-1.188 2.441-1.515 4.345-0.329 1.9-0.236 4.198 0.288 6.549 0.511 2.355 1.375 4.766 2.189 7.144 0.405 1.189 0.796 2.374 1.12 3.544 0.165 0.584 0.307 1.169 0.429 1.727 0.06 0.295 0.118 0.589 0.176 0.881 0.044 0.283 0.089 0.563 0.132 0.841 0.333 2.268 0.383 4.418 0.42 6.309 0.036 1.887 0.091 3.54 0.326 4.768 0.089 0.566 0.283 1.222 0.37 1.473 0.027 0.076 0.041 0.118 0.061 0.174-0.323 0.307-0.637 0.618-0.978 0.917-1.147 1.062-2.453 2.026-3.721 2.895l-1.08 0.649-0.545 0.325c-0.097 0.042-0.347 0.184-0.513 0.27-0.745 0.395-1.494 0.791-2.242 1.187-2.997 1.565-6.034 3.009-8.917 4.194-1.444 0.585-2.846 1.11-4.183 1.55-1.338 0.437-2.606 0.806-3.777 1.079-0.082 0.02-0.154 0.031-0.236 0.05 0.332-0.4 0.66-0.796 0.997-1.204 0.544-0.662 1.224-1.573 1.817-2.431 2.335-3.389 4.143-7.201 5.758-11.091 0.809-1.947 1.574-3.919 2.351-5.885 0.397-0.989 0.797-1.984 1.199-2.984l0.291-0.753 0.301-0.85c0.199-0.577 0.362-1.112 0.524-1.672 1.256-4.436 1.823-8.961 2.021-13.495 0.105-2.908 0.062-5.823-0.252-8.719 0.118-0.445 0.278-1.043 0.478-1.793 0.452-1.682 1.115-4.07 2.025-6.901 0.765-2.393 1.734-5.117 2.899-7.965l0.086-0.026s-0.012-0.037-0.033-0.101c1.577-3.84 3.52-7.906 5.904-11.749 1.068-1.662 2.156-3.321 3.375-4.839 1.187-1.544 2.468-2.973 3.781-4.282 0.676-0.634 1.316-1.289 2.014-1.845 0.341-0.288 0.679-0.574 1.013-0.855 0.351-0.26 0.697-0.516 1.039-0.769 1.365-1.019 2.754-1.845 4.076-2.528 0.646-0.376 1.32-0.618 1.938-0.903 0.616-0.293 1.23-0.49 1.805-0.685 1.137-0.433 2.181-0.631 3.026-0.857 0.852-0.195 1.538-0.262 1.999-0.35 0.463-0.074 0.711-0.114 0.711-0.114s-0.249 0.028-0.715 0.081c-0.464 0.066-1.156 0.101-2.019 0.257-0.857 0.186-1.919 0.337-3.085 0.719-0.59 0.17-1.221 0.341-1.857 0.607-0.637 0.258-1.335 0.474-2.007 0.823-1.374 0.63-2.829 1.405-4.269 2.378-0.361 0.242-0.728 0.488-1.098 0.736-0.354 0.272-0.713 0.546-1.075 0.824-0.741 0.537-1.424 1.173-2.146 1.79-1.406 1.276-2.787 2.678-4.075 4.2-1.321 1.498-2.512 3.138-3.686 4.789-2.093 3.047-3.901 6.251-5.462 9.378-0.058-0.668-0.188-1.397-0.192-2.232-0.039-0.872-0.061-1.822-0.016-2.839 2e-3 -1.012 0.112-2.088 0.18-3.2 0.117-1.112 0.215-2.266 0.383-3.433 0.155-1.169 0.328-2.357 0.535-3.541 0.391-2.372 0.877-4.732 1.369-6.939 0.502-2.205 1.003-4.258 1.48-6.006 0.461-1.753 0.887-3.202 1.19-4.217 0.306-1.013 0.482-1.591 0.482-1.591s-0.22 0.564-0.605 1.55c-0.379 0.988-0.919 2.403-1.515 4.119-0.612 1.712-1.274 3.728-1.949 5.901-0.666 2.176-1.339 4.512-1.921 6.877-0.302 1.18-0.571 2.369-0.82 3.546-0.263 1.173-0.456 2.345-0.664 3.477-0.16 1.142-0.358 2.239-0.444 3.303-0.128 1.056-0.185 2.069-0.216 3.012-0.067 0.935 0.023 1.824 0.026 2.599 0.067 0.81 0.187 1.557 0.266 2.155 0.258 1.031 0.405 1.621 0.405 1.621l0.072-0.021c-0.993 2.241-1.858 4.385-2.576 6.313-0.471 1.26-0.886 2.428-1.251 3.49-0.209-0.71-0.441-1.417-0.739-2.115-0.228-0.547-0.503-1.089-0.831-1.619l-0.859-1.369c-1.096-1.813-2.179-3.605-3.244-5.367-0.964-1.568-1.975-3.099-3.1-4.542 0.063-0.22 0.162-0.573 0.302-1.071 0.123-0.41 0.288-0.86 0.468-1.406 0.192-0.545 0.441-1.178 0.703-1.86 1.088-2.737 2.781-6.375 4.232-10.135 0.721-1.879 1.389-3.784 1.889-5.608 0.27-0.905 0.478-1.794 0.665-2.639 0.214-0.838 0.312-1.654 0.451-2.393 0.143-0.739 0.174-1.433 0.254-2.038 0.081-0.604 0.095-1.137 0.111-1.575 0.035-0.873 0.056-1.372 0.056-1.372s-0.067 0.495-0.184 1.36c-0.057 0.432-0.12 0.956-0.257 1.548-0.136 0.592-0.23 1.268-0.439 1.984-0.207 0.716-0.376 1.502-0.664 2.305-0.261 0.811-0.545 1.659-0.893 2.52-0.655 1.734-1.483 3.532-2.362 5.305-1.765 3.543-3.776 6.978-5.162 9.688-0.342 0.687-0.655 1.305-0.923 1.884-0.145 0.33-0.282 0.634-0.407 0.916-0.069-0.082-0.142-0.166-0.211-0.248-0.567-0.755-1.132-1.441-1.625-2.233-2.048-3.072-3.479-6.349-4.854-9.351-1.405-2.92-1.917-5.907-2.059-8.547-0.125-2.648 0.205-4.972 0.756-6.798 0.547-1.834 1.319-3.153 1.916-3.987 0.301-0.417 0.552-0.724 0.732-0.92 0.178-0.198 0.27-0.301 0.27-0.301s-0.097 0.098-0.285 0.287c-0.191 0.187-0.458 0.481-0.782 0.885-0.642 0.807-1.493 2.101-2.145 3.939-0.655 1.83-1.116 4.186-1.126 6.909 2e-3 2.705 0.381 5.841 1.681 8.972 1.2 3.072 2.446 6.474 4.411 9.837 0.459 0.844 1.065 1.687 1.62 2.513 0.585 0.77 1.178 1.55 1.777 2.338 1.126 1.53 2.14 3.244 3.118 5.037 0.98 1.825 1.976 3.68 2.985 5.558 0.253 0.458 0.537 0.939 0.768 1.382 0.209 0.393 0.397 0.822 0.551 1.279 0.321 0.906 0.553 1.887 0.731 2.891 0.671 4.047 0.591 8.39 0.159 12.632-0.454 4.242-1.282 8.479-2.644 12.316-0.17 0.471-0.354 0.961-0.537 1.394l-0.28 0.659-0.338 0.733c-0.455 0.97-0.908 1.935-1.359 2.894-0.896 1.941-1.759 3.839-2.64 5.659-1.756 3.641-3.604 6.978-5.735 9.715-0.526 0.667-0.987 1.236-1.65 1.961-0.613 0.663-1.216 1.315-1.81 1.956-1.227 1.324-2.401 2.64-3.513 3.926-2.219 2.579-4.17 5.074-5.769 7.411-0.701 1.02-1.327 1.995-1.904 2.933-0.644-2.064-1.216-4.106-1.665-6.139-0.54-2.424-0.914-4.833-1.09-7.227-0.153-2.555-0.304-5.079-0.453-7.568-0.03-0.429-0.072-0.859-0.107-1.288 0.538-0.47 1.148-1.074 1.804-1.805 1.769-1.969 3.872-4.869 6.136-8.466 0.566-0.899 1.142-1.841 1.726-2.824 0.56-0.966 1.139-1.965 1.735-2.991 1.269-2.049 2.578-4.315 3.732-6.742 1.157-2.431 2.197-5.043 2.89-7.842 0.682-2.787 1.04-5.814 0.47-8.828-0.143-0.745-0.341-1.5-0.602-2.205l-0.361-0.98-0.432-1.022c-0.595-1.331-1.241-2.592-1.971-3.797-1.427-2.425-3.079-4.617-4.733-6.668-3.342-4.079-6.776-7.545-9.639-10.573-2.873-3.016-5.179-5.61-6.511-7.637-0.667-1.01-1.114-1.855-1.347-2.462-0.139-0.296-0.188-0.542-0.248-0.7-0.051-0.16-0.078-0.243-0.078-0.243s0.021 0.084 0.063 0.247c0.051 0.161 0.086 0.413 0.206 0.717 0.199 0.624 0.597 1.503 1.21 2.562 1.221 2.126 3.391 4.881 6.085 8.071 2.682 3.199 5.894 6.86 8.922 11.044 1.495 2.099 2.965 4.319 4.176 6.693 0.62 1.176 1.159 2.412 1.622 3.64l0.326 0.914 0.301 0.995c0.184 0.61 0.311 1.211 0.397 1.836 0.347 2.495-0.074 5.114-0.819 7.59-0.751 2.485-1.832 4.856-3.03 7.073-1.202 2.225-2.522 4.268-3.871 6.215-0.659 1.007-1.301 1.986-1.922 2.933-0.616 0.918-1.223 1.798-1.815 2.633-1.852 2.614-3.569 4.78-4.987 6.352-0.261-2.407-0.516-4.778-0.768-7.11-0.243-2.35-0.481-4.661-0.715-6.929-0.071-0.574-0.119-1.11-0.207-1.707-0.093-0.593-0.166-1.197-0.283-1.763-0.206-1.146-0.458-2.272-0.753-3.368-1.161-4.402-2.92-8.282-4.453-11.945-0.375-0.902-0.744-1.792-1.109-2.67 0-0.21-6e-3 -2.744-0.015-6.474-2e-3 -0.979-1e-3 -2.038-0.044-3.172-0.022-1.113-0.05-2.364-0.418-3.658-0.333-1.271-0.967-2.478-1.714-3.578-0.755-1.1-1.636-2.092-2.508-3.063l-1.301-1.442c-0.438-0.472-0.792-0.939-1.144-1.47-0.693-1.043-1.304-2.139-1.873-3.208-1.131-2.145-2.08-4.211-2.836-6.003-0.753-1.794-1.31-3.32-1.609-4.414-0.15-0.547-0.236-0.986-0.248-1.289-0.022-0.309 0.085-0.448 0.085-0.448s-0.116 0.134-0.11 0.448c-5e-3 0.307 0.058 0.754 0.178 1.312 0.242 1.116 0.717 2.678 1.375 4.519 0.661 1.841 1.5 3.964 2.524 6.192 0.517 1.113 1.072 2.253 1.736 3.381 0.325 0.554 0.719 1.143 1.143 1.639l1.24 1.509c1.655 1.979 3.179 4.049 3.649 6.274 0.257 1.073 0.243 2.202 0.22 3.317-3e-3 1.101-0.046 2.154-0.083 3.124-0.042 1.099-0.08 2.09-0.112 2.953-0.946-1.361-2.04-2.542-3.178-3.574-2.726-2.439-5.61-4.189-8.266-5.756-2.672-1.52-5.128-2.916-7.345-4.177-4.407-2.529-7.616-4.97-9.324-7.1-0.866-1.047-1.388-1.962-1.691-2.597-0.301-0.637-0.414-0.985-0.414-0.985s0.098 0.352 0.372 1.004c0.276 0.65 0.76 1.594 1.59 2.691 1.63 2.23 4.782 4.849 9.1 7.585 2.159 1.356 4.55 2.857 7.153 4.492 2.56 1.664 5.317 3.518 7.791 5.938 1.226 1.211 2.364 2.579 3.227 4.134 0.341 0.614 0.613 1.209 0.851 1.872-1e-3 0.013-1e-3 0.024-1e-3 0.024h9e-3c0.067 0.19 0.134 0.383 0.196 0.586 0.292 0.931 0.588 1.874 0.887 2.83 1.208 3.81 2.566 7.749 3.263 11.904 0.182 1.037 0.318 2.088 0.412 3.151 0.061 0.536 0.072 1.05 0.109 1.576 0.032 0.522 0.033 1.118 0.051 1.678 0.035 2.271 0.07 4.586 0.106 6.94 0.047 2.357 0.095 4.753 0.144 7.186 0.013 2.414 0.05 4.8 0.011 7.288-0.07 2.519-0.14 5.071-0.211 7.655-0.037 2.744 0.15 5.52 0.517 8.275 0.728 5.521 2.162 10.916 3.535 16.191 0.708 2.667 1.303 5.168 1.989 7.962 0.7 2.85 1.525 5.577 2.287 8.256 0.369 1.324 0.738 2.651 1.109 3.981 0.316 1.291 0.679 2.648 0.896 3.811 0.125 0.604 0.259 1.172 0.368 1.918l0.322 2c0.264 1.645 0.59 3.247 0.994 4.766 0.029 0.112 0.062 0.22 0.092 0.332-0.984-0.163-2.071-0.369-3.253-0.638-1.792-0.423-3.785-1.003-5.883-1.819-2.096-0.817-4.288-1.889-6.448-3.277-2.168-1.377-4.267-3.113-6.215-5.142-1.935-2.043-3.708-4.389-5.233-6.975-1.538-2.578-2.844-5.372-4.012-8.266-0.038-0.097-0.088-0.198-0.128-0.296 0.064-0.065 0.13-0.133 0.21-0.215 0.225-0.246 0.552-0.632 0.887-1.046 0.268-0.4 0.619-0.849 0.908-1.374 1.274-2.084 2.379-5.164 3.101-8.828 0.725-3.669 1.119-7.932 1.232-12.471 0.057-2.269 0.047-4.609-0.014-6.976-0.113-2.36-0.012-4.755-0.102-7.174-0.16-4.81-0.782-9.674-2.37-13.948-0.781-2.135-1.805-4.099-2.987-5.81-1.167-1.723-2.515-3.168-3.843-4.39-2.678-2.437-5.304-3.943-7.144-4.934-0.93-0.483-1.667-0.85-2.179-1.08-0.509-0.237-0.78-0.363-0.78-0.363s0.268 0.135 0.769 0.387c0.503 0.246 1.228 0.635 2.14 1.146 1.804 1.044 4.372 2.629 6.939 5.115 1.272 1.246 2.549 2.706 3.638 4.426 1.103 1.708 2.039 3.65 2.735 5.753 1.309 3.887 1.798 8.255 1.874 12.635-0.054-5e-3 -0.102-9e-3 -0.163-0.015-0.241-0.022-0.537-0.048-0.885-0.08-0.32-0.049-0.688-0.105-1.1-0.169-0.405-0.054-0.867-0.14-1.38-0.26-0.509-0.111-1.062-0.219-1.646-0.389-1.173-0.303-2.492-0.702-3.914-1.212-2.892-1.004-6.193-2.465-9.654-4.212 0.046-0.248 0.103-0.7 0.055-0.938-0.077-0.773-0.375-1.539-0.784-2.398-0.82-1.707-2.168-3.805-3.661-6.363-0.742-1.279-1.523-2.667-2.251-4.17-0.72-1.502-1.412-3.117-1.879-4.834-0.477-1.71-0.729-3.537-0.484-5.321 0.109-1.046 0.215-1.973 0.292-2.991-0.023-1.039 0.03-2.101-0.067-3.119-0.173-2.039-0.498-4.052-0.999-5.98-0.249-0.965-0.488-1.923-0.813-2.841-0.296-0.927-0.597-1.839-0.956-2.712-0.332-0.883-0.674-1.744-1.054-2.567-0.359-0.832-0.724-1.639-1.116-2.407-0.747-1.553-1.53-2.982-2.283-4.28-0.745-1.303-1.483-2.464-2.15-3.483-0.671-1.017-1.289-1.881-1.808-2.585-0.535-0.691-0.945-1.242-1.26-1.588-0.305-0.355-0.468-0.544-0.468-0.544s0.644 0.765 1.623 2.207c0.484 0.725 1.059 1.614 1.678 2.657 0.616 1.045 1.296 2.233 1.974 3.561 0.686 1.323 1.396 2.776 2.061 4.346 0.353 0.777 0.675 1.591 0.99 2.428 0.337 0.828 0.634 1.691 0.919 2.574 0.312 0.873 0.565 1.781 0.811 2.7 0.276 0.912 0.463 1.855 0.661 2.802 0.4 1.894 0.618 3.845 0.692 5.787 0.047 0.97-0.053 1.907-0.065 2.852-0.116 0.957-0.284 1.994-0.419 2.894-0.389 2.103-0.184 4.201 0.251 6.104 0.427 1.917 1.087 3.674 1.771 5.295 0.693 1.618 1.435 3.093 2.132 4.437 1.401 2.676 2.644 4.849 3.263 6.326 0.078 0.18 0.144 0.348 0.201 0.503-2.391-1.289-4.819-2.68-7.215-4.139-7.011-4.253-13.769-8.945-18.792-12.524-2.507-1.797-4.597-3.295-6.059-4.344-1.47-1.039-2.31-1.632-2.31-1.632s0.811 0.631 2.232 1.735c1.414 1.114 3.433 2.706 5.857 4.617 4.859 3.806 11.406 8.811 18.265 13.412 6.848 4.609 14.061 8.757 19.921 11.102 1.456 0.598 2.827 1.083 4.064 1.463 0.612 0.208 1.205 0.354 1.75 0.499 0.538 0.151 1.05 0.273 1.533 0.361 0.473 0.094 0.907 0.188 1.265 0.248 0.346 0.047 0.641 0.087 0.88 0.12 0.2 0.027 0.352 0.048 0.471 0.064-0.037 1.737-0.113 3.475-0.277 5.193-0.194 2.341-0.435 4.634-0.731 6.837-0.591 4.405-1.426 8.453-2.461 11.747-1.029 3.297-2.3 5.793-3.388 7.176-0.138 0.2-0.279 0.366-0.415 0.518-0.716-1.253-1.497-2.463-2.34-3.608-1.927-2.616-4.161-4.906-6.493-6.866-4.679-3.933-9.659-6.582-13.842-8.838-2.098-1.127-4.015-2.154-5.657-3.154-1.643-0.996-3.009-1.969-4.03-2.893-1.029-0.918-1.698-1.783-2.09-2.41-0.392-0.629-0.546-0.999-0.546-0.999s0.127 0.378 0.479 1.038c0.351 0.658 0.968 1.582 1.949 2.586 0.973 1.009 2.294 2.094 3.887 3.214 1.59 1.124 3.447 2.289 5.463 3.556 4.017 2.531 8.729 5.488 12.916 9.533 2.089 2.015 4.026 4.302 5.638 6.836 0.769 1.212 1.472 2.476 2.086 3.785-0.912-0.63-2.013-1.499-3.207-2.53-0.919-0.791-1.904-1.68-2.938-2.638-1.043-0.974-2.143-2-3.281-3.063-0.312-0.272-0.567-0.536-1.057-0.876-0.174-0.111-0.307-0.211-0.516-0.334-0.215-0.121-0.434-0.249-0.648-0.359-0.828-0.415-1.709-0.688-2.588-0.868-1.762-0.35-3.513-0.35-5.204-0.243-3.386 0.227-6.626 0.782-9.692 0.996-1.529 0.112-3.009 0.156-4.41 0.105-0.699-0.032-1.38-0.077-2.035-0.153-0.667-0.075-1.272-0.153-1.816-0.363-1.106-0.398-1.921-1.196-2.432-2.03-0.523-0.834-0.806-1.67-1.027-2.354-0.211-0.692-0.376-1.236-0.489-1.607-0.123-0.37-0.213-0.556-0.213-0.556s0.077 0.193 0.171 0.568c0.086 0.378 0.212 0.933 0.372 1.639 0.173 0.704 0.394 1.571 0.879 2.488 0.47 0.912 1.299 1.869 2.51 2.407 0.601 0.283 1.281 0.418 1.934 0.543 0.666 0.129 1.361 0.229 2.077 0.317 1.434 0.162 2.955 0.233 4.524 0.239 3.134 0.018 6.467-0.288 9.695-0.255 1.609 0.018 3.192 0.158 4.603 0.555 0.703 0.201 1.359 0.466 1.934 0.815l0.379 0.248c0.129 0.084 0.305 0.232 0.454 0.345 0.153 0.117 0.441 0.422 0.689 0.683 1.047 1.137 2.059 2.237 3.018 3.28 0.974 1.052 1.914 2.04 2.81 2.939 1.802 1.798 3.389 3.235 4.857 4.16 0.74 0.456 1.469 0.818 2.335 0.921 0.111 0.01 0.216 0.017 0.319 0.019 1.064 2.823 2.281 5.631 3.754 8.282 1.563 2.845 3.433 5.496 5.52 7.837 2.1 2.328 4.403 4.356 6.791 5.978 2.38 1.636 4.804 2.914 7.111 3.896 2.309 0.982 4.495 1.69 6.451 2.215 1.963 0.51 3.678 0.858 5.12 1.1 0.293 0.045 0.563 0.087 0.83 0.128 1.332 4.015 2.861 7.831 4.349 11.588l1.594 4.02c0.537 1.369 0.969 2.516 1.489 3.944 0.421 1.241 0.841 2.583 1.255 3.866 0.348 1.305 0.758 2.599 1.061 3.903 1.297 5.214 2.002 10.393 2.158 15.734 0.06 1.783 0.056 3.602 0.03 5.437-1.661-2.257-3.48-4.513-5.494-6.722-2.125-2.33-4.351-4.559-7.031-6.829-4.986-4.123-10.46-7.805-15.429-11.828-2.496-2.013-4.853-4.136-6.95-6.44-0.555-0.636-1.111-1.274-1.669-1.914-0.546-0.645-1.093-1.292-1.642-1.941-1.107-1.334-2.219-2.675-3.336-4.021-2.229-2.712-4.452-5.468-6.629-8.241l-1.594-2.074c-0.558-0.71-0.954-1.314-1.446-1.977-0.993-1.498-2.136-3.153-3.332-4.66-2.39-3.06-5.367-5.915-8.671-8.057-3.264-2.158-6.834-3.695-10.034-5.045-6.482-2.759-12.732-5.492-17.919-9.233-2.574-1.865-4.839-3.995-6.494-6.421l-0.584-0.924c-0.183-0.335-0.339-0.587-0.548-0.987-0.388-0.723-0.809-1.465-1.209-2.145-0.811-1.39-1.63-2.736-2.45-4.058-0.384-0.618-0.767-1.212-1.151-1.819 0.028-0.074 0.062-0.149 0.087-0.226 0.188-0.612 0.276-1.266 0.342-2.062 0.124-1.577 0.111-3.68 8e-3 -6.19-0.214-5.011-0.786-11.608-1.658-18.185-0.222-1.649-0.46-3.273-0.75-4.914-0.298-1.652-0.805-3.229-1.386-4.691-1.17-2.929-2.686-5.472-4.295-7.402-1.604-1.938-3.358-3.187-4.721-3.711-0.674-0.283-1.243-0.375-1.622-0.447-0.385-0.038-0.591-0.058-0.591-0.058s0.203 0.035 0.583 0.1c0.372 0.1 0.924 0.232 1.563 0.557 1.293 0.61 2.898 1.942 4.311 3.929 1.418 1.979 2.707 4.554 3.621 7.443 0.455 1.447 0.82 2.959 0.984 4.52 0.153 1.574 0.267 3.228 0.359 4.859 0.356 6.551 0.412 13.135 0.242 18.011-0.048 1.353-0.118 2.572-0.206 3.616-1.827-2.767-3.639-5.413-5.426-7.89-1.587-2.2-3.162-4.273-4.752-6.187-1.607-1.882-3.176-3.719-5.123-5-3.589-2.47-6.774-4.65-9.528-6.193-2.74-1.574-5.025-2.565-6.615-3.132-0.796-0.283-1.413-0.475-1.836-0.581-0.419-0.117-0.635-0.177-0.635-0.177s0.212 0.073 0.623 0.216c0.415 0.131 1.017 0.36 1.79 0.69 1.544 0.66 3.743 1.78 6.358 3.502 2.636 1.698 5.621 4.023 9.085 6.736 1.659 1.236 3.056 3.079 4.503 5.018 1.427 1.96 2.845 4.097 4.269 6.364 2.459 3.917 4.964 8.232 7.47 12.815-0.322-2e-3 -0.667-0.033-1.04-0.068-0.833-0.078-1.792-0.244-2.873-0.499-2.148-0.465-4.813-1.415-7.953-1.719-0.779-0.077-1.588-0.093-2.398-0.048-0.408 0.034-0.811 0.052-1.222 0.102-0.374 0.043-0.744 0.081-1.158 0.149-1.601 0.244-3.144 0.627-4.657 1.127-3.021 0.989-5.84 2.348-8.437 3.644-2.596 1.302-4.99 2.537-7.102 3.464-2.107 0.938-3.93 1.562-5.233 1.91-0.65 0.175-1.167 0.296-1.523 0.363-0.354 0.071-0.544 0.109-0.544 0.109s0.192-0.023 0.551-0.067c0.361-0.039 0.887-0.12 1.554-0.245 1.333-0.248 3.218-0.735 5.414-1.516 2.2-0.769 4.705-1.826 7.38-2.918 2.675-1.088 5.54-2.199 8.463-2.911 1.453-0.36 2.946-0.604 4.365-0.709 0.339-0.032 0.725-0.043 1.102-0.056 0.339-0.025 0.688 0.034 1.024 0.046 0.678 0.058 1.341 0.164 1.99 0.324 2.595 0.619 4.945 1.83 7.226 2.69 1.128 0.441 2.231 0.802 3.252 1.049 0.511 0.123 0.991 0.239 1.453 0.302 0.457 0.076 0.873 0.149 1.304 0.171 0.408 0.031 0.807 0.063 1.1 0.074 0.189 2e-3 0.351 3e-3 0.498 5e-3 0.263 0.509 0.532 1.005 0.79 1.519 0.357 0.71 0.682 1.377 1.006 2.09l0.549 1.158c0.202 0.395 0.419 0.782 0.635 1.171 1.419 2.409 3.257 4.543 5.301 6.447-0.835-0.059-1.706-0.109-2.628-0.128-1.169-0.025-2.399-0.016-3.663 0.031-1.264 0.05-2.563 0.132-3.87 0.236-1.321 0.103-2.591 0.223-3.944 0.299-1.392 0.108-2.733 0.394-4.006 0.654-1.277 0.282-2.532 0.559-3.748 0.827-2.42 0.541-4.679 1.047-6.616 1.48-3.876 0.843-6.482 1.312-6.482 1.312s2.637-0.235 6.581-0.73c1.97-0.26 4.267-0.563 6.729-0.888 1.227-0.157 2.495-0.321 3.783-0.487 1.296-0.146 2.571-0.299 3.824-0.283 1.291 0.055 2.664 0.066 3.945 0.094 1.295 0.026 2.558 0.074 3.774 0.147 1.215 0.077 2.381 0.185 3.479 0.319 1.098 0.133 2.126 0.302 3.07 0.472 0.94 0.186 1.797 0.367 2.549 0.56 0.761 0.173 1.372 0.376 1.9 0.514 1.1 0.348 1.729 0.548 1.729 0.548l2e-3 -9e-3c4.307 2.863 8.953 5.241 13.539 7.567l1.647 0.84c-3.151-0.443-6.436-0.593-9.674-0.455-0.989 0.037-1.986 0.1-2.929 0.16-0.506 0.02-1.138 0.108-1.63 0.199-0.506 0.097-0.999 0.201-1.481 0.32-1.928 0.471-3.759 1.053-5.501 1.709-3.478 1.307-6.578 2.91-8.991 4.643-1.206 0.864-2.24 1.755-3.078 2.616-0.842 0.861-1.468 1.706-1.939 2.42-0.461 0.723-0.759 1.326-0.937 1.745-0.081 0.194-0.141 0.342-0.186 0.45-1.407-1.242-3.237-0.797-4.577 1.198-0.921 1.373-1.305 2.903-2.001 6.183 3.225-1.017 5.3-2.229 6.042-2.793 1.919-1.459 1.964-3.308 0.556-4.573 0.057-0.101 0.136-0.242 0.24-0.428 0.225-0.391 0.588-0.948 1.12-1.595 0.54-0.639 1.238-1.378 2.142-2.105 0.901-0.728 1.987-1.459 3.233-2.143 2.491-1.374 5.625-2.545 9.069-3.389 1.72-0.424 3.526-0.767 5.343-0.986 0.453-0.055 0.905-0.096 1.349-0.126 0.458-0.027 0.785-0.032 1.242-5e-3 0.984 0.045 1.921 0.086 2.865 0.153 3.758 0.247 7.432 0.88 10.704 1.879 3.274 0.999 6.113 2.37 8.328 3.797 1.109 0.715 2.058 1.45 2.875 2.119 0.797 0.686 1.478 1.329 1.981 1.852 0.241 0.257 0.455 0.486 0.642 0.685 0.213 0.245 0.394 0.454 0.541 0.623 0.285 0.329 0.438 0.507 0.451 0.521 0.166 0.284 0.332 0.569 0.502 0.866 0.515 0.821 1.058 1.748 1.56 2.482l1.529 2.296c2.046 3.002 4.105 5.943 6.177 8.843 0.634 0.88 1.264 1.753 1.895 2.628-2.243-0.655-4.704-1.309-7.369-1.972-3.21-0.794-6.699-1.576-10.405-2.309-3.712-0.718-7.619-1.46-11.76-1.958-3.175-0.38-6.425-0.599-9.707-0.72l-2e-3 -0.133s-0.295 0.013-0.846 0.037c-0.275 0.017-0.604 0.027-0.994 0.044-0.406-0.011-0.811-0.027-1.218-0.035-2.163-0.039-4.34-0.043-6.523-0.024-2.182 0.025-4.368 0.092-6.484 0.068-4.271-0.033-8.482-0.491-12.412-1.769-3.936-1.276-7.579-3.284-10.854-5.595-3.281-2.313-6.224-4.905-8.908-7.48-2.687-2.576-5.123-5.137-7.398-7.484-2.275-2.346-4.387-4.487-6.399-6.243-2.001-1.762-3.923-3.126-5.669-3.94-1.742-0.833-3.29-1.027-4.308-0.968-0.512 0.023-0.901 0.091-1.158 0.148-0.257 0.058-0.39 0.089-0.39 0.089s0.134-0.025 0.393-0.072c0.259-0.046 0.649-0.097 1.156-0.097 1.012-0.014 2.52 0.244 4.192 1.135 1.676 0.872 3.504 2.292 5.406 4.119 1.911 1.821 3.914 4.036 6.08 6.476 2.168 2.439 4.496 5.112 7.097 7.833 2.598 2.72 5.477 5.493 8.764 8.033 3.282 2.536 7.013 4.824 11.179 6.38 2.109 0.791 4.307 1.358 6.537 1.756-0.389 0.061-0.765 0.113-1.16 0.178-2.257 0.342-4.5 0.95-6.758 1.534-2.259 0.603-4.537 1.262-6.801 1.962-9.05 2.795-17.908 6.304-24.046 9.921-3.075 1.789-5.437 3.618-6.89 5.094-0.73 0.736-1.244 1.368-1.566 1.818-0.326 0.447-0.48 0.699-0.48 0.699s0.169-0.243 0.52-0.668c0.346-0.428 0.895-1.024 1.658-1.708 1.525-1.374 3.959-3.037 7.094-4.62 6.261-3.204 15.216-6.148 24.31-8.374 2.274-0.557 4.558-1.072 6.811-1.532 2.258-0.452 4.467-0.882 6.59-1.11 2.154-0.271 4.275-0.472 6.277-0.653 2.003-0.188 3.904-0.327 5.654-0.458 3.5-0.253 6.436-0.399 8.414-0.456 0.987-0.048 1.824-0.024 2.368-0.035 0.552-3e-3 0.846-4e-3 0.846-4e-3l-2e-3 -0.116c3.095 0.249 6.119 0.584 9.024 1.054 3.945 0.639 7.766 1.536 11.368 2.391 3.602 0.874 6.985 1.785 10.081 2.692 3.094 0.911 5.912 1.795 8.369 2.662 2.466 0.847 4.572 1.668 6.293 2.36 0.053 0.022 0.099 0.042 0.152 0.064 1.899 2.183 3.893 4.175 5.891 6.016 5.212 4.797 10.326 8.736 14.598 12.787 1.945 1.819 3.892 3.927 5.579 5.977 1.713 2.064 3.237 4.158 4.595 6.215 2.698 4.131 4.662 8.15 5.985 11.785 1.081 2.996 1.743 5.718 2.122 8.077-0.332-0.409-0.66-0.824-0.995-1.229-5.621-6.689-11.75-12.761-18.075-18.399-6.341-5.615-12.93-10.721-19.578-15.259-1.646-1.157-3.333-2.227-4.999-3.289-1.658-1.085-3.321-2.072-5.016-3.05-3.369-1.947-6.787-3.693-10.203-5.178-6.84-2.971-13.679-4.867-20.073-5.805-6.399-0.935-12.328-1.016-17.513-0.62-5.191 0.379-9.651 1.167-13.268 1.987-3.622 0.818-6.412 1.649-8.302 2.24-1.883 0.615-2.887 0.943-2.887 0.943s1.024-0.254 2.945-0.73c1.925-0.451 4.76-1.075 8.399-1.622 3.636-0.551 8.086-1.003 13.179-1.003 5.088-0.018 10.825 0.485 16.886 1.828 0.337 0.074 0.678 0.163 1.016 0.244-2.553 1.017-6.085 2.301-10.28 3.654-1.163 0.373-2.378 0.751-3.625 1.105-0.622 0.176-1.258 0.348-1.866 0.488-0.535 0.13-1.26 0.224-1.957 0.348-1.411 0.251-2.808 0.429-4.256 0.639-1.476 0.194-2.983 0.391-4.516 0.591-3.078 0.411-6.295 0.845-9.546 1.576-0.814 0.157-1.627 0.37-2.439 0.596l-1.221 0.328-0.305 0.082c-0.186 0.053-0.219 0.072-0.336 0.109l-0.584 0.198c-1.735 0.613-3.267 1.473-4.706 2.507-2.858 2.081-5.061 4.835-6.747 7.725-1.687 2.903-2.894 5.967-3.737 9.008-0.415 1.525-0.755 3.035-0.937 4.566-0.151 1.578-0.109 3.032-0.039 4.474 0.163 2.866 0.539 5.546 1.017 7.992 0.956 4.892 2.407 8.834 3.864 11.348 0.718 1.264 1.426 2.166 1.951 2.735 0.253 0.295 0.477 0.491 0.621 0.63 0.144 0.138 0.219 0.209 0.219 0.209s-0.071-0.075-0.21-0.219c-0.136-0.146-0.35-0.351-0.587-0.656-0.496-0.591-1.156-1.518-1.806-2.801-1.323-2.552-2.571-6.511-3.287-11.378-0.357-2.432-0.602-5.092-0.63-7.896-4e-3 -1.39 0.033-2.859 0.231-4.241 0.236-1.418 0.64-2.868 1.109-4.306 0.952-2.876 2.258-5.75 3.972-8.387 1.71-2.629 3.862-5.026 6.444-6.712 1.279-0.832 2.699-1.523 4.089-1.936l0.593-0.169c0.079-0.021 0.239-0.072 0.253-0.069l0.292-0.064 1.165-0.256c0.773-0.177 1.547-0.344 2.335-0.458 3.12-0.554 6.267-0.836 9.337-1.103 1.543-0.13 3.061-0.259 4.546-0.385 1.476-0.145 2.942-0.27 4.31-0.446l-0.033 0.033-0.254 0.287c-0.338 0.39-0.682 0.746-1.012 1.174-0.678 0.821-1.288 1.657-1.864 2.51-1.154 1.703-2.125 3.479-2.929 5.25-0.811 1.768-1.481 3.524-1.997 5.221-0.545 1.69-0.927 3.322-1.249 4.83-0.305 1.513-0.539 2.907-0.691 4.148-0.187 1.237-0.243 2.327-0.34 3.218-0.116 1.79-0.162 2.811-0.162 2.811s0.102-1.019 0.313-2.795c0.144-0.884 0.258-1.964 0.511-3.183 0.216-1.225 0.523-2.595 0.905-4.073 0.398-1.473 0.862-3.061 1.486-4.691 0.596-1.638 1.344-3.318 2.224-4.993 0.873-1.678 1.904-3.341 3.097-4.912 0.594-0.786 1.227-1.559 1.886-2.275 0.087-0.103 0.188-0.204 0.284-0.306-0.06 0.143-0.127 0.27-0.186 0.42-0.712 1.797-1.126 4.114-0.789 6.51 0.16 1.195 0.498 2.397 0.984 3.548 0.478 1.141 1.144 2.272 1.878 3.249 1.458 1.972 2.926 3.886 4.138 5.805 1.218 1.908 2.188 3.799 2.756 5.517 0.577 1.714 0.72 3.247 0.603 4.299-0.047 0.528-0.14 0.937-0.217 1.21-0.08 0.274-0.123 0.42-0.123 0.42s0.05-0.144 0.145-0.413c0.092-0.27 0.208-0.676 0.284-1.206 0.176-1.057 0.114-2.625-0.38-4.404-0.485-1.783-1.369-3.761-2.501-5.763-1.122-2.006-2.515-4.038-3.845-6.056-0.671-1.01-1.2-2.019-1.598-3.11-0.393-1.076-0.645-2.179-0.735-3.253-0.193-2.153 0.27-4.148 0.974-5.703 0.699-1.564 1.579-2.728 2.223-3.498 0.18-0.208 0.336-0.386 0.48-0.546 0.035-8e-3 0.073-0.016 0.108-0.024 1.337-0.313 2.6-0.643 3.812-0.969 3.902-1.062 7.222-2.079 9.838-2.959 1.669-0.174 3.26-0.271 4.724-0.318 2.994-0.09 5.486 0.037 7.157 0.225 0.537 0.06 0.99 0.132 1.336 0.198 1.228 0.565 2.456 1.156 3.681 1.798 2.149 1.126 4.286 2.374 6.413 3.72-1.513 0.417-2.816 1.163-3.887 1.912-1.471 1.031-2.678 2.128-3.859 3.148-0.588 0.512-1.165 1.009-1.743 1.481l-1.836 1.454c-2.674 2.229-4.837 4.678-6.689 7.441-1.8 2.762-3.306 5.775-3.894 9.142-0.092 0.412-0.111 0.85-0.168 1.271l-0.058 0.505c-0.025 0.178-0.043 0.399-0.074 0.54-0.105 0.463-0.283 1.153-0.54 1.786-0.487 1.289-1.128 2.58-1.808 3.839-2.784 5.041-6.124 9.68-9.379 13.952-1.642 2.131-3.284 4.174-4.933 6.089-0.824 0.957-1.648 1.887-2.48 2.761-0.417 0.432-0.835 0.863-1.257 1.245-0.4 0.381-0.861 0.705-1.347 1.109-1.847 1.531-3.53 2.995-5.244 4.274-1.701 1.286-3.39 2.4-5.049 3.322-3.313 1.861-6.502 2.91-9.189 3.417-2.693 0.522-4.873 0.507-6.343 0.448-0.737-0.028-1.3-0.086-1.679-0.129-0.38-0.039-0.576-0.059-0.576-0.059s0.194 0.03 0.572 0.087c0.377 0.062 0.938 0.147 1.676 0.212 1.47 0.132 3.662 0.257 6.419-0.137 2.75-0.38 6.06-1.288 9.546-3.027 1.745-0.86 3.532-1.916 5.333-3.142 1.804-1.214 3.617-2.639 5.482-4.036 0.439-0.332 0.976-0.672 1.474-1.098 0.493-0.405 0.945-0.829 1.404-1.259 0.908-0.865 1.793-1.77 2.679-2.702 1.772-1.866 3.534-3.849 5.304-5.926 3.516-4.179 7.113-8.669 10.31-13.834 0.788-1.304 1.549-2.651 2.199-4.141 0.332-0.747 0.61-1.499 0.855-2.505 0.054-0.227 0.071-0.384 0.108-0.579l0.1-0.621c0.063-0.326 0.083-0.652 0.176-0.979 0.572-2.628 1.973-5.202 3.663-7.542 0.039-0.053 0.084-0.103 0.123-0.156 0.088 1.702 0.362 3.65 0.884 5.737 0.851 3.389 2.332 7.148 4.449 10.846 1.057 1.849 2.264 3.687 3.618 5.452 0.671 0.887 1.388 1.748 2.125 2.594 0.39 0.419 0.702 0.825 1.218 1.298 0.439 0.401 0.861 0.752 1.285 1.11 1.693 1.411 3.355 2.798 4.93 4.243 1.573 1.441 3.063 2.92 4.396 4.441 2.664 3.024 4.746 6.284 5.417 9.429 0.342 1.56 0.299 3.058-0.02 4.323-0.307 1.273-0.879 2.295-1.408 3.081-0.538 0.786-1.065 1.329-1.416 1.702-0.371 0.356-0.569 0.546-0.569 0.546s0.211-0.177 0.605-0.508c0.376-0.35 0.941-0.86 1.541-1.621 0.589-0.763 1.25-1.772 1.659-3.083 0.423-1.301 0.577-2.89 0.323-4.568-0.492-3.385-2.456-6.934-4.994-10.234-2.537-3.324-5.725-6.474-8.912-9.483-0.39-0.376-0.787-0.754-1.134-1.118-0.283-0.279-0.618-0.763-0.94-1.172-0.636-0.853-1.248-1.716-1.815-2.599-1.145-1.757-2.141-3.564-2.991-5.358-1.704-3.588-2.782-7.138-3.301-10.184-0.516-3.05-0.457-5.572-0.175-7.185 0.135-0.81 0.319-1.419 0.418-1.725 0.17-0.467 0.26-0.716 0.26-0.716l-0.765-0.25c0.418-0.357 0.837-0.713 1.263-1.036l0.956-0.69 0.979-0.686c0.67-0.485 1.317-0.979 1.946-1.465 1.258-0.97 2.458-1.921 3.619-2.629 1.164-0.72 2.243-1.126 3.173-1.132 0.472-6e-3 0.937 0.067 1.431 0.227l0.371 0.137 0.321 0.143 0.451 0.229 0.426 0.247c2.403 1.453 4.906 3.365 7.251 5.232 4.721 3.803 9.141 7.872 13.176 12.013 4.052 4.129 7.692 8.368 10.926 12.524 3.233 4.159 5.992 8.285 8.302 12.199 2.298 3.921 4.167 7.624 5.557 10.99 0.376 0.831 0.658 1.663 0.976 2.449 0.316 0.788 0.602 1.552 0.839 2.297 0.25 0.74 0.49 1.45 0.72 2.129 0.196 0.686 0.383 1.34 0.56 1.961 0.386 1.253 0.601 2.315 0.822 3.248 0.037 0.16 0.067 0.292 0.102 0.443 0.971 8.265-0.389 10.477-0.743 15.578-0.56 7.779-1.308 15.314-2.137 22.431-0.844 7.084-1.72 13.913-2.819 19.667-1.216 6.187-2.331 11.859-3.319 16.886-0.998 5.073-1.852 9.521-2.517 13.24-0.666 3.724-1.145 6.703-1.42 8.954-0.067 0.577-0.127 1.076-0.168 1.58-0.011 0.121-0.021 0.237-0.031 0.348-9e-3 0.135-0.018 0.264-0.027 0.386-0.013 0.31-0.025 0.591-0.035 0.84-0.012 0.636-0.018 0.964-0.018 0.964l62.703-0.471s-0.017-0.295-0.048-0.865c-0.018-0.296-0.039-0.664-0.065-1.1-0.049-0.558-0.105-1.204-0.169-1.936-0.275-2.686-0.864-6.229-1.757-10.418-0.857-4.169-12.508-48.435-14.143-55.251l-0.542-2.616c-0.18-1.011-0.361-2.028-0.543-3.052-0.353-2.022-0.709-4.068-1.069-6.137-0.683-4.096-1.275-8.215-1.641-12.348-0.331-4.119-0.464-8.266-0.093-12.309l0.146-1.516 0.211-1.499c0.116-0.94 0.358-2.18 0.539-3.277 0.384-2.214 0.795-4.428 1.241-6.608 0.911-4.346 2.01-8.571 3.596-12.51 0.777-1.981 1.699-3.873 2.747-5.688 0.504-0.923 1.095-1.783 1.664-2.666l0.921-1.273 0.23-0.32c-0.112 0.127 9e-3 -0.014 2e-3 -8e-3l0.069-0.086 0.14-0.172 0.556-0.688c5.397-6.735 12.667-12.105 20.537-16.357 1.865-1.012 3.762-1.966 5.678-2.879 0.822-0.09 1.728-0.168 2.716-0.221 1.65-0.044 3.524-0.049 5.566 0.148 4.08 0.379 8.84 1.455 13.686 3.436 1.903 0.777 3.816 1.693 5.704 2.727 0.037 0.149 0.076 0.314 0.109 0.483 0.046 0.341 0.139 0.696 0.192 1.221 0.06 0.516 0.126 1.102 0.155 1.754 0.05 0.649 0.048 1.36 0.048 2.107-9e-3 0.75-0.049 1.535-0.132 2.327l-0.08 0.584c-6e-3 0.073-0.042 0.256-0.024 0.239l-0.07 0.324c-0.101 0.488-0.177 0.729-0.307 1.106-0.264 0.728-0.68 1.461-1.158 2.228l-0.716 1.145c-0.254 0.387-0.505 0.766-0.752 1.091-0.508 0.694-1.089 1.393-1.607 2.12-0.512 0.736-0.979 1.492-1.284 2.278-0.174 0.441-0.255 0.746-0.356 1.144-0.078 0.396-0.16 0.775-0.176 1.128-0.076 0.711-0.047 1.355-0.022 1.919 0.031 0.564 0.075 1.051 0.112 1.451 0.069 0.801 0.108 1.259 0.108 1.259s0.027-0.459 0.074-1.262c0.022-0.401 0.048-0.889 0.097-1.441 0.056-0.551 0.118-1.174 0.284-1.818 0.064-0.331 0.186-0.641 0.293-0.963 0.122-0.305 0.31-0.723 0.473-0.992 0.364-0.644 0.87-1.248 1.433-1.85 0.573-0.601 1.223-1.185 1.89-1.861 0.352-0.351 0.655-0.692 0.956-1.032l0.907-1.069c0.601-0.712 1.228-1.5 1.723-2.413 0.244-0.442 0.499-1.037 0.627-1.403l0.116-0.311 0.108-0.405c0.061-0.231 0.121-0.46 0.181-0.688 0.208-0.902 0.358-1.768 0.468-2.59 0.102-0.824 0.196-1.601 0.23-2.328 0.029-0.379 0.044-0.742 0.054-1.091 1.526 1.011 3.01 2.099 4.374 3.283 0.501 0.444 1.028 0.932 1.384 1.351 0.132 0.133 0.332 0.469 0.538 0.769l0.503 0.838c0.663 1.182 1.233 2.445 1.731 3.727 0.977 2.577 1.683 5.237 2.1 7.853 0.431 2.617 0.568 5.192 0.448 7.624-0.115 2.433-0.541 4.714-1.169 6.747-0.63 2.036-1.49 3.813-2.429 5.276-0.945 1.46-1.924 2.645-2.837 3.511-0.433 0.459-0.87 0.814-1.242 1.133-0.365 0.329-0.699 0.579-0.976 0.774-0.547 0.401-0.839 0.615-0.839 0.615s0.305-0.194 0.878-0.559c0.29-0.178 0.642-0.406 1.03-0.712 0.395-0.296 0.859-0.626 1.326-1.06 0.981-0.816 2.054-1.952 3.121-3.385 1.062-1.437 2.071-3.213 2.863-5.281 0.789-2.065 1.39-4.413 1.675-6.939 0.292-2.525 0.326-5.222 0.055-7.987-0.258-2.767-0.811-5.601-1.673-8.418-0.442-1.406-0.965-2.807-1.623-4.187l-0.546-1.055-0.27-0.47c-0.058-0.097-0.059-0.115-0.165-0.276l-0.208-0.3c-0.538-0.719-1.055-1.24-1.599-1.795-2.166-2.137-4.517-3.964-6.945-5.626-2.433-1.649-4.948-3.101-7.479-4.33-4.341-2.11-8.731-3.53-12.75-4.345 2.66-1.073 5.324-2.11 7.968-3.129 4.12-1.586 8.202-3.144 12.18-4.761 0.993-0.413 1.98-0.823 2.962-1.231l1.495-0.641 1.424-0.65c0.947-0.431 1.887-0.86 2.822-1.286 0.94-0.465 1.876-0.926 2.804-1.384 5.252-2.588 9.99-5.49 14.444-8.276 0.478 0.751 1.358 1.663 2.505 2.171 1.338 0.623 2.762 0.801 4.144 0.939 1.356 0.129 2.835 0.223 3.75 0.6 0.718 0.271 1.362 0.996 1.736 2.698 0.218 0.841 0.347 1.901 0.889 3.157 0.246 0.569 0.633 1.159 1.12 1.666-0.021 0.133-0.043 0.275-0.07 0.442-0.108 0.779-0.175 1.834-0.018 3.167 0.084 0.683 0.231 1.427 0.446 2.207-9e-3 0.596-0.018 1.225-0.028 1.899-9e-3 0.391-2e-3 0.792-0.023 1.211-0.037 0.423-0.075 0.858-0.113 1.305-0.078 0.895-0.159 1.836-0.244 2.817-0.1 0.982-0.289 1.996-0.438 3.052-0.156 1.056-0.309 2.149-0.57 3.256-0.237 1.112-0.481 2.254-0.73 3.422-0.31 1.155-0.626 2.334-0.949 3.533-0.306 1.206-0.756 2.387-1.136 3.609-0.37 1.228-0.86 2.424-1.333 3.639-0.238 0.604-0.477 1.211-0.717 1.819l-0.806 1.838c-0.532 1.238-1.101 2.438-1.657 3.657-1.127 2.434-2.291 4.869-3.379 7.302-1.106 2.422-2.092 4.87-2.932 7.282-0.779 2.432-1.449 4.83-1.701 7.173-0.062 0.585-0.17 1.156-0.19 1.727-0.012 0.571-0.025 1.134-0.036 1.687-6e-3 0.276-0.012 0.549-0.017 0.821 0.012 0.271 0.046 0.539 0.068 0.804 0.049 0.531 0.098 1.051 0.145 1.561 0.023 0.512 0.153 0.998 0.253 1.477 0.103 0.477 0.203 0.943 0.302 1.398 0.077 0.459 0.229 0.886 0.377 1.301 0.142 0.416 0.281 0.819 0.415 1.21 0.142 0.387 0.247 0.775 0.407 1.126 0.166 0.348 0.325 0.683 0.478 1.006 0.307 0.643 0.588 1.233 0.842 1.767 1.222 2.018 1.921 3.171 1.921 3.171s-0.643-1.182-1.768-3.248c-0.228-0.542-0.48-1.142-0.753-1.794-0.137-0.326-0.28-0.664-0.427-1.016-0.142-0.354-0.228-0.742-0.35-1.13-0.115-0.391-0.233-0.794-0.354-1.209-0.126-0.414-0.256-0.839-0.31-1.294-0.076-0.449-0.153-0.91-0.232-1.381-0.075-0.471-0.181-0.949-0.179-1.451-0.023-0.497-0.047-1.006-0.071-1.523-9e-3 -0.259-0.031-0.519-0.031-0.782 0.019-0.263 0.037-0.529 0.055-0.796 0.036-0.535 0.072-1.079 0.11-1.63 0.044-0.551 0.176-1.102 0.262-1.663 0.347-2.252 1.107-4.55 1.974-6.881 0.93-2.316 2.003-4.666 3.211-7.014 1.187-2.355 2.458-4.724 3.707-7.122 0.618-1.204 1.258-2.409 1.843-3.612l0.89-1.799c0.279-0.621 0.558-1.239 0.835-1.856 0.546-1.231 1.11-2.446 1.549-3.69 0.45-1.238 0.971-2.44 1.345-3.666 0.389-1.222 0.773-2.424 1.148-3.601 0.314-1.195 0.621-2.365 0.92-3.504 0.322-1.134 0.535-2.262 0.749-3.352 0.206-1.092 0.45-2.139 0.603-3.161 0.055-0.411 0.108-0.811 0.161-1.208 0.164 0.249 0.322 0.497 0.496 0.746 2.357 3.38 5.615 6.795 9.39 10.054 3.784 3.252 8.068 6.384 12.645 9.073 1.147 0.669 2.314 1.308 3.521 1.886 0.583 0.28 1.084 0.558 1.609 0.898 0.522 0.337 1.032 0.7 1.527 1.081 1.978 1.529 3.744 3.303 5.168 5.224 1.433 1.913 2.524 3.99 3.132 6.091 0.646 2.096 0.717 4.212 0.454 6.11-0.27 1.906-0.924 3.585-1.66 4.977-0.335 0.718-0.78 1.315-1.125 1.908-0.41 0.549-0.767 1.071-1.125 1.515-0.369 0.435-0.699 0.824-0.985 1.163-0.298 0.328-0.569 0.592-0.78 0.815-0.426 0.44-0.654 0.675-0.654 0.675s0.238-0.224 0.685-0.644c0.22-0.213 0.504-0.465 0.817-0.781 0.304-0.327 0.653-0.702 1.043-1.122 0.381-0.43 0.765-0.938 1.205-1.475 0.376-0.582 0.855-1.168 1.229-1.883 0.814-1.382 1.568-3.076 1.942-5.047"/>
      <path d="m317.9 233.72c4.153 3.038 9.015 1.345 12.119-4.437 2.128-3.963 2.76-8.207 3.765-17.273-8.457 3.614-13.751 7.449-15.609 9.176-4.807 4.466-4.434 9.491-0.275 12.534"/>
      <path d="m215.04 306.56c2.792 3.758 7.473 3.595 11.727-0.596 2.916-2.873 4.606-6.391 7.918-14-8.323 0.866-13.955 2.774-16.034 3.776-5.38 2.588-6.408 7.056-3.611 10.82"/>
      <path d="m168.89 267.74c-4.392 0.845-5.991 3.885-4.686 7.145 1.303 3.256 4.725 4.034 8.607 1.812 2.662-1.523 4.56-3.747 8.414-8.625-6.193-0.964-10.638-0.66-12.335-0.332"/>
      <path d="m179.37 251.64c-3.634 0.434-5.115 2.822-4.24 5.559 0.874 2.733 3.622 3.567 6.92 1.979 2.26-1.088 3.938-2.793 7.368-6.55-4.998-1.147-8.643-1.157-10.048-0.988"/>
      <path d="m160.98 225.01c-3.633 0.434-5.115 2.822-4.239 5.559 0.874 2.733 3.621 3.567 6.919 1.979 2.26-1.088 3.939-2.793 7.368-6.55-4.998-1.147-8.643-1.157-10.048-0.988"/>
      <path d="m158.85 198.2c2.685 1.011 5.044-0.626 5.846-4.197 0.55-2.448 0.254-4.822-0.564-9.842-4.001 3.207-6.271 6.058-7.01 7.265-1.915 3.118-0.962 5.762 1.728 6.774"/>
      <path d="m166.93 206.2c2.685 1.011 5.044-0.626 5.846-4.197 0.55-2.447 0.254-4.822-0.564-9.842-4.001 3.207-6.271 6.059-7.01 7.265-1.915 3.118-0.962 5.762 1.728 6.774"/>
      <path d="m227.99 198.05c-1.529-2.427-4.397-2.548-7.194-0.188-1.917 1.619-3.116 3.689-5.498 8.183 5.126-0.138 8.658-1.038 9.976-1.553 3.409-1.327 4.247-4.01 2.716-6.442"/>
      <path d="m186.88 176.71c1.442-1.214 2.345-2.769 4.14-6.144-3.853 0.098-6.508 0.772-7.499 1.157-2.564 0.994-3.196 3.009-2.047 4.839 1.146 1.825 3.302 1.92 5.406 0.148"/>
      <path d="m186.41 199.1c1.124-1.514 1.644-3.235 2.613-6.933-3.726 0.984-6.154 2.251-7.03 2.854-2.266 1.558-2.417 3.665-0.878 5.18 1.535 1.512 3.656 1.108 5.295-1.101"/>
      <path d="m191.6 209.43c-1.475 2.321-0.788 4.318 1.222 5.109 2.005 0.79 3.797-0.413 4.44-3.088 0.441-1.833 0.245-3.62-0.312-7.402-3.043 2.365-4.781 4.482-5.35 5.381"/>
      <path d="m220.62 218.01c-1.866 2.019-1.548 4.107 0.287 5.245 1.831 1.137 3.81 0.274 4.922-2.242 0.762-1.724 0.89-3.517 1.018-7.339-3.417 1.782-5.505 3.553-6.227 4.336"/>
      <path d="m294.98 237.1c2.513 0.682 4.503-1.002 4.918-4.3 0.284-2.26-0.189-4.379-1.364-8.846-3.337 3.245-5.14 6.02-5.704 7.175-1.46 2.984-0.369 5.29 2.15 5.971"/>
      <path d="m289.5 204.37c-5.223 2.832-8.398 5.616-9.49 6.839-2.826 3.161-2.284 6.372 0.574 8.079 2.852 1.708 5.878 0.328 7.53-3.579 1.132-2.678 1.282-5.445 1.386-11.339"/>
      <path d="m154.51 218.4c1.551 1.498 3.667 1.071 5.284-1.155 1.108-1.525 1.611-3.25 2.542-6.958-3.716 1.021-6.131 2.313-7.001 2.925-2.25 1.581-2.379 3.689-0.825 5.188"/>
      <path d="m131.54 218.75c-1.127 1.51-1.652 3.229-2.63 6.925 3.728-0.973 6.16-2.235 7.037-2.836 2.27-1.552 2.427-3.658 0.891-5.177-1.531-1.517-3.652-1.118-5.298 1.088"/>
      <path d="m134.07 211.14c1.317 1.271 3.114 0.909 4.488-0.982 0.94-1.295 1.368-2.76 2.158-5.909-3.156 0.867-5.207 1.964-5.946 2.484-1.911 1.342-2.02 3.133-0.7 4.407"/>
      <path d="m112.91 213.98c0.941-1.295 1.368-2.76 2.159-5.91-3.156 0.868-5.208 1.965-5.946 2.485-1.912 1.342-2.021 3.132-0.701 4.407 1.317 1.271 3.115 0.909 4.488-0.982"/>
      <path d="m162.36 247.3c2.327 1.678 5.032 0.716 6.74-2.522 1.171-2.218 1.507-4.587 2.03-9.646-4.7 2.049-7.637 4.207-8.666 5.179-2.664 2.508-2.435 5.309-0.104 6.989"/>
      <path d="m148.75 251.65c-1.475 1.505-2.314 3.332-3.95 7.281 4.277-0.522 7.161-1.555 8.223-2.09 2.747-1.381 3.235-3.692 1.762-5.605-1.472-1.91-3.882-1.784-6.035 0.414"/>
      <path d="m139.4 275.69c-1.935-2.51-5.102-2.345-7.932 0.544-1.939 1.978-3.042 4.38-5.193 9.571 5.622-0.686 9.413-2.044 10.809-2.748 3.611-1.815 4.253-4.852 2.316-7.367"/>
      <path d="m147.78 291.92c-1.787 1.824-2.804 4.037-4.786 8.821 5.181-0.633 8.675-1.884 9.962-2.532 3.327-1.673 3.919-4.472 2.133-6.79-1.782-2.314-4.701-2.161-7.309 0.501"/>
      <path d="m120.37 309.61c-1.655 1.689-2.597 3.741-4.434 8.172 4.8-0.587 8.037-1.746 9.229-2.346 3.082-1.55 3.63-4.143 1.976-6.289-1.651-2.144-4.355-2.003-6.771 0.463"/>
      <path d="m155 342.35c-1.655 1.689-2.597 3.74-4.434 8.171 4.8-0.586 8.037-1.745 9.229-2.345 3.082-1.55 3.63-4.143 1.977-6.29-1.652-2.143-4.356-2.002-6.772 0.464"/>
      <path d="m98.785 300.4c-1.485-1.928-3.917-1.801-6.091 0.417-1.488 1.519-2.336 3.364-3.988 7.35 4.318-0.528 7.229-1.57 8.301-2.11 2.773-1.394 3.265-3.727 1.778-5.657"/>
      <path d="m106.47 301.98c-2.135 2.178-3.35 4.824-5.718 10.539 6.19-0.757 10.364-2.251 11.901-3.026 3.976-1.998 4.682-5.343 2.55-8.111-2.13-2.765-5.617-2.583-8.733 0.598"/>
      <path d="m184.96 325.48c-5.388 3.153-6.08 7.897-2.846 11.583 3.228 3.68 8.093 3.113 12.171-1.615 2.796-3.241 4.26-7.051 7.066-15.263-8.6 1.609-14.309 4.075-16.391 5.295"/>
      <path d="m143.59 321.17c3.484 2.609 7.612 1.223 10.291-3.639 1.837-3.332 2.411-6.915 3.345-14.573-7.186 2.979-11.699 6.171-13.287 7.614-4.107 3.732-3.838 7.986-0.349 10.598"/>
      <path d="m208.14 178.18c3.137 2.349 6.854 1.101 9.267-3.278 1.655-3 2.171-6.227 3.012-13.124-6.471 2.683-10.535 5.558-11.964 6.858-3.699 3.361-3.457 7.191-0.315 9.544"/>
      <path d="m240.56 190.46c2.435-0.377 4.499-1.501 8.793-4.054-4.371-2.504-7.794-3.553-9.161-3.796-3.539-0.628-5.613 1.193-5.571 4.016 0.042 2.818 2.386 4.385 5.939 3.834"/>
      <path d="m276.69 194.03c-0.199 5.141 3.922 8.228 10.452 7.571 4.476-0.451 8.348-2.299 16.428-6.533-7.724-4.992-13.862-7.239-16.332-7.815-6.391-1.491-10.349 1.627-10.548 6.777"/>
      <path d="m299.3 222.52c2.663 4.997 6.937 5.795 10.394 2.998 3.452-2.792 3.114-7.222-1.023-11.089-2.836-2.651-6.236-4.115-13.577-6.955 1.147 7.851 3.176 13.114 4.206 15.046"/>
      <path d="m304.58 255.47c0.891 6.104 2.468 10.195 3.269 11.696 2.07 3.885 5.393 4.506 8.08 2.331 2.683-2.17 2.421-5.614-0.795-8.62-2.205-2.061-4.848-3.199-10.554-5.407"/>
      <path d="m345.98 239.06c3.29-1.039 4.305-4.341 2.41-8.315-1.3-2.723-3.345-4.749-7.85-8.889-1.4 6.008-1.426 10.392-1.23 12.082 0.508 4.373 3.375 6.165 6.67 5.122"/>
      <path d="m329.29 240.9c-1.4 6.008-1.426 10.392-1.23 12.082 0.508 4.373 3.375 6.165 6.67 5.122 3.29-1.04 4.305-4.341 2.41-8.315-1.3-2.723-3.345-4.749-7.85-8.889"/>
      <path d="m346.87 289.37c3.099-1.856 3.332-5.464 0.44-9.051-1.983-2.458-4.556-4.026-10.145-7.15 0.029 6.457 1.063 10.928 1.673 12.601 1.576 4.329 4.929 5.46 8.032 3.6"/>
      <path d="m359.07 243.29c2.174-2.093 3.451-4.672 5.958-10.253-6.143 0.566-10.311 1.925-11.853 2.644-3.989 1.862-4.784 5.148-2.756 7.946 2.025 2.794 5.479 2.715 8.651-0.337"/>
      <path d="m373.92 292.88c-3.989 1.861-4.784 5.147-2.756 7.945 2.025 2.795 5.479 2.716 8.651-0.337 2.174-2.093 3.451-4.672 5.958-10.253-6.143 0.567-10.311 1.925-11.853 2.645"/>
      <path d="m391.8 320.04c-4.401-0.038-6.535 2.584-5.91 5.984 0.623 3.394 3.774 4.81 7.951 3.422 2.864-0.951 5.128-2.729 9.795-6.685-5.788-2.135-10.134-2.705-11.836-2.721"/>
      <path d="m383.72 370.77c-4.061-3.383-8.037-2.569-10.041 1.065-2.001 3.627-0.152 7.338 4.785 9.226 3.385 1.293 6.839 1.362 14.183 1.236-3.754-6.385-7.358-10.22-8.927-11.527"/>
      <path d="m361.44 352.41c3.403 0.303 6.556-0.523 13.188-2.527-5.05-4.828-9.308-7.38-11.067-8.163-4.556-2.025-7.954-0.262-8.838 3.551-0.883 3.805 1.751 6.697 6.717 7.139"/>
      <path d="m325.73 354.91c-2.534 2.973-1.525 6.753 2.681 9.427 2.884 1.835 6.063 2.552 12.874 3.821-2.264-6.609-4.872-10.833-6.075-12.338-3.114-3.892-6.943-3.89-9.48-0.91"/>
      <path d="m343.19 357.8c2.603 1.997 5.582 2.949 11.988 4.737-1.608-6.511-3.746-10.769-4.769-12.309-2.65-3.984-6.311-4.305-8.988-1.668-2.674 2.629-2.028 6.328 1.769 9.24"/>
      <path d="m312.04 238.99c-3.285-0.702-6.462-0.273-13.175 0.892 4.352 5.315 8.204 8.315 9.828 9.289 4.205 2.521 7.732 1.208 9.05-2.409 1.317-3.61-0.909-6.747-5.703-7.772"/>
      <path d="m247.63 237.35c2.663 4.997 6.938 5.795 10.395 2.998 3.451-2.792 3.114-7.222-1.024-11.089-2.835-2.65-6.236-4.115-13.576-6.955 1.147 7.852 3.176 13.114 4.205 15.046"/>
      <path d="m231.33 251.52c1.38 6.071 5.684 8.153 10.16 6.185 4.469-1.964 5.391-6.761 2.12-12.059-2.242-3.632-5.425-6.168-12.392-11.304-1.053 8.661-0.422 14.831 0.112 17.178"/>
      <path d="m98.527 264.94c-2.445-2.995-5.605-4.894-12.469-8.679 0.082 7.903 1.382 13.367 2.139 15.411 1.961 5.288 6.073 6.647 9.859 4.348 3.778-2.294 4.037-6.711 0.471-11.08"/>
      <path d="m161.54 368.89c3.316 0.088 5.274-2.593 4.801-6.797-0.326-2.883-1.546-5.365-4.337-10.542-3.16 5.018-4.562 8.992-4.915 10.59-0.912 4.131 1.129 6.659 4.451 6.749"/>
      <path d="m102.77 236.92c-0.786-3.785-2.711-6.929-7.052-13.456-3.576 7.047-4.948 12.494-5.219 14.658-0.703 5.595 2.317 8.699 6.736 8.409 4.411-0.291 6.68-4.089 5.535-9.611"/>
      <path d="m84.236 240.03c3.006-0.198 4.552-2.787 3.772-6.55-0.536-2.58-1.848-4.723-4.807-9.172-2.438 4.804-3.372 8.516-3.557 9.991-0.479 3.813 1.579 5.929 4.592 5.731"/>
      <path d="m45.902 260.72c3.007-0.198 4.553-2.787 3.772-6.55-0.535-2.581-1.847-4.723-4.806-9.172-2.438 4.803-3.372 8.516-3.558 9.99-0.478 3.813 1.58 5.929 4.592 5.732"/>
      <path d="m83.961 284.49c-0.479 3.813 1.579 5.929 4.592 5.732 3.006-0.198 4.552-2.787 3.772-6.55-0.536-2.581-1.848-4.723-4.807-9.172-2.438 4.803-3.372 8.516-3.557 9.99"/>
      <path d="m118.39 288.55c3.006-0.198 4.552-2.787 3.772-6.55-0.536-2.58-1.848-4.723-4.807-9.172-2.438 4.804-3.372 8.516-3.557 9.991-0.479 3.813 1.579 5.929 4.592 5.731"/>
      <path d="m94.196 292.23c-0.27 2.153 0.892 3.348 2.593 3.236 1.697-0.111 2.57-1.573 2.129-3.698-0.302-1.457-1.043-2.667-2.713-5.179-1.377 2.712-1.904 4.809-2.009 5.641"/>
      <path d="m111.24 275.3c0.268-2.621-0.337-5.06-1.816-10.194-3.774 3.845-5.784 7.103-6.405 8.453-1.606 3.49-0.282 6.129 2.65 6.849 2.926 0.717 5.181-1.284 5.571-5.108"/>
      <path d="m105.67 253.33c2.926 0.717 5.181-1.285 5.571-5.108 0.268-2.622-0.337-5.06-1.816-10.195-3.774 3.845-5.784 7.103-6.405 8.453-1.606 3.491-0.282 6.129 2.65 6.85"/>
      <path d="m124.41 198.5c-2.529 2.894-2.006 5.799 0.602 7.32 2.604 1.516 5.333 0.235 6.79-3.322 0.999-2.438 1.109-4.948 1.144-10.291-4.708 2.619-7.558 5.175-8.536 6.293"/>
      <path d="m142.29 190.93c2.5 1.681 5.307 0.579 6.99-2.876 1.155-2.369 1.427-4.867 1.807-10.196-4.867 2.31-7.877 4.675-8.925 5.729-2.71 2.724-2.376 5.656 0.128 7.343"/>
      <path d="m138.35 241.14c-3.313 3.791-2.628 7.596 0.789 9.59 3.411 1.986 6.987 0.307 8.895-4.352 1.309-3.196 1.454-6.484 1.499-13.484-6.167 3.432-9.902 6.78-11.183 8.246"/>
      <path d="m127.63 238.15c-0.479 3.813 1.579 5.929 4.592 5.731 3.007-0.198 4.553-2.787 3.772-6.55-0.535-2.58-1.847-4.723-4.806-9.172-2.438 4.804-3.372 8.516-3.558 9.991"/>
      <path d="m120.9 196.41c3.682 0.592 6.263-2.104 6.362-6.862 0.066-3.261-0.925-6.209-3.266-12.396-4.269 5.123-6.422 9.345-7.054 11.073-1.631 4.469 0.268 7.591 3.958 8.185"/>
      <path d="m177.38 176.69c2.745-1.241 3.283-4.208 1.231-7.457-1.408-2.228-3.389-3.773-7.722-6.899-0.596 5.354-0.166 9.157 0.178 10.603 0.891 3.738 3.561 4.997 6.313 3.753"/>
      <path d="m215.74 210.99c-1.183-1.873-2.849-3.173-6.493-5.802-0.501 4.502-0.14 7.701 0.15 8.917 0.749 3.143 2.995 4.201 5.308 3.155 2.308-1.043 2.761-3.538 1.035-6.27"/>
      <path d="m195.46 261.26c-0.773 4.463-0.607 7.678-0.391 8.909 0.557 3.183 2.735 4.374 5.107 3.471 2.367-0.901 2.97-3.364 1.413-6.196-1.068-1.941-2.652-3.34-6.129-6.184"/>
      <path d="m198.09 289.03c1.463 1.425 3.468 1.029 5.009-1.07 1.056-1.439 1.541-3.072 2.439-6.58-3.524 0.95-5.817 2.163-6.644 2.739-2.137 1.487-2.269 3.484-0.804 4.911"/>
      <path d="m187.92 311.36c1.463 1.424 3.468 1.029 5.009-1.071 1.057-1.439 1.541-3.072 2.44-6.58-3.524 0.951-5.818 2.164-6.644 2.74-2.138 1.487-2.27 3.483-0.805 4.911"/>
      <path d="m154.36 277.04c1.484-1.403 1.171-3.422-0.863-5.048-1.394-1.116-3.006-1.666-6.473-2.709 0.804 3.56 1.921 5.902 2.463 6.752 1.398 2.196 3.387 2.411 4.873 1.005"/>
      <path d="m62.114 247.85c0.075-2.039-1.564-3.261-4.154-2.995-1.777 0.183-3.312 0.919-6.516 2.606 3.069 1.976 5.507 2.863 6.489 3.089 2.537 0.587 4.106-0.655 4.181-2.7"/>
      <path d="m216.73 341.54c1.483-1.403 1.171-3.422-0.863-5.048-1.395-1.116-3.006-1.666-6.474-2.709 0.804 3.56 1.921 5.902 2.463 6.752 1.398 2.196 3.387 2.411 4.874 1.005"/>
      <path d="m202.18 350.44c1.326-2.24 0.617-4.111-1.31-4.8-1.922-0.688-3.581 0.505-4.111 3.055-0.363 1.748-0.125 3.434 0.516 6.998 2.81-2.328 4.393-4.384 4.905-5.253"/>
      <path d="m185.52 342.08c2.621 2.539 4.838 3.887 5.757 4.302 2.372 1.073 4.154 0.164 4.629-1.826 0.473-1.986-0.894-3.505-3.486-3.753-1.778-0.17-3.428 0.251-6.9 1.277"/>
      <path d="m231.54 285.27c-2.431-2.723-4.544-4.228-5.43-4.709-2.288-1.243-4.131-0.465-4.75 1.485-0.616 1.947 0.637 3.561 3.205 3.996 1.76 0.298 3.436-1e-3 6.975-0.772"/>
      <path d="m186.16 300.96c-0.574-2.38-1.856-4.332-4.738-8.376-2.122 4.534-2.879 8.011-3.007 9.386-0.331 3.556 1.643 5.46 4.436 5.187 2.787-0.273 4.146-2.723 3.309-6.197"/>
      <path d="m207.21 273.62c-0.014 4.052 0.614 6.863 0.989 7.917 0.968 2.724 3.067 3.449 5.024 2.298 1.954-1.15 2.117-3.413 0.319-5.677-1.232-1.553-2.839-2.549-6.332-4.538"/>
      <path d="m216.8 224.17c-1.952-1.049-4.041-1.363-8.507-1.862 1.777 4.167 3.663 6.776 4.513 7.692 2.197 2.37 4.673 2.188 6.174 0.14 1.497-2.043 0.666-4.438-2.18-5.97"/>
      <path d="m191.69 244.95c2.166-1.826 1.894-4.647-0.793-7.062-1.844-1.656-4.032-2.547-8.752-4.268 0.83 4.997 2.192 8.329 2.874 9.549 1.762 3.154 4.5 3.609 6.671 1.781"/>
      <path d="m188.33 187.42c1.417 2.462 3.574 2.792 5.263 1.332 1.683-1.457 1.441-3.673-0.697-5.544-1.466-1.282-3.196-1.961-6.924-3.265 0.704 3.919 1.808 6.525 2.358 7.477"/>
      <path d="m153.06 196.34c-1.817-0.701-3.675-0.745-7.624-0.691 2.007 3.44 3.939 5.509 4.781 6.214 2.176 1.826 4.316 1.395 5.4-0.555 1.082-1.947 0.094-3.944-2.557-4.968"/>
      <path d="m120.12 200.85c-0.128-2.67-2.399-4.083-5.751-3.45-2.296 0.434-4.22 1.563-8.213 4.116 4.221 2.24 7.501 3.129 8.806 3.316 3.374 0.486 5.285-1.306 5.158-3.982"/>
      <path d="m138.28 189.37c1.684-1.457 1.441-3.673-0.697-5.544-1.466-1.282-3.195-1.961-6.923-3.265 0.704 3.919 1.808 6.525 2.357 7.477 1.418 2.462 3.575 2.792 5.263 1.332"/>
      <path d="m208.4 179.92c-1.233 5.115-1.282 8.852-1.126 10.295 0.406 3.731 2.839 5.277 5.657 4.409 2.811-0.866 3.696-3.675 2.105-7.074-1.091-2.33-2.821-4.071-6.636-7.63"/>
      <path d="m217.93 176.54c-0.981 4.072-1.021 7.048-0.896 8.197 0.323 2.97 2.26 4.201 4.504 3.51 2.238-0.689 2.942-2.926 1.676-5.632-0.869-1.855-2.246-3.241-5.284-6.075"/>
      <path d="m274.19 243.77c1.996-1.227 2.119-3.568 0.218-5.873-1.304-1.579-2.984-2.578-6.632-4.564 0.065 4.188 0.77 7.08 1.177 8.161 1.054 2.796 3.237 3.504 5.237 2.276"/>
      <path d="m290.63 243.77c1.996-1.227 2.119-3.568 0.218-5.873-1.304-1.579-2.984-2.578-6.632-4.564 0.065 4.188 0.77 7.08 1.177 8.161 1.054 2.796 3.237 3.504 5.237 2.276"/>
      <path d="m296.08 246.87c-2.511-1.619-4.688-0.888-5.562 1.29-0.874 2.173 0.421 4.128 3.321 4.847 1.988 0.493 3.932 0.295 8.046-0.281-2.546-3.326-4.834-5.23-5.805-5.856"/>
      <path d="m256.91 215.26c2.351-1.444 2.497-4.202 0.257-6.918-1.537-1.861-3.515-3.037-7.814-5.377 0.078 4.934 0.908 8.341 1.387 9.615 1.242 3.293 3.814 4.129 6.17 2.68"/>
      <path d="m229.52 185.38c2.081-0.107 3.175-1.883 2.672-4.494-0.346-1.789-1.232-3.284-3.236-6.39-1.733 3.299-2.415 5.858-2.557 6.876-0.368 2.633 1.036 4.116 3.121 4.008"/>
      <path d="m256.01 191.93c2.065 0.278 3.467-1.267 3.454-3.925-0.011-1.822-0.607-3.456-2.004-6.877-2.311 2.923-3.453 5.313-3.78 6.287-0.847 2.52 0.26 4.237 2.33 4.515"/>
      <path d="m280.76 183.06c2.065 0.278 3.467-1.267 3.454-3.925-0.011-1.822-0.607-3.456-2.004-6.877-2.311 2.923-3.453 5.313-3.78 6.287-0.847 2.52 0.26 4.237 2.33 4.515"/>
      <path d="m275.94 187.31c1.358-1.581 0.826-3.598-1.41-5.035-1.534-0.983-3.229-1.373-6.86-2.064 1.194 3.53 2.576 5.789 3.215 6.594 1.653 2.082 3.695 2.089 5.055 0.505"/>
      <path d="m272.33 221.52c-1.799-0.292-3.509 0.024-7.115 0.833 2.499 2.765 4.666 4.288 5.573 4.772 2.344 1.254 4.22 0.447 4.838-1.547 0.618-1.991-0.673-3.63-3.296-4.058"/>
      <path d="m231.4 202.83c1.009 1.517 2.404 2.554 5.451 4.647 0.326-3.713-0.033-6.337-0.295-7.331-0.676-2.571-2.544-3.397-4.426-2.493-1.879 0.902-2.202 2.963-0.73 5.177"/>
      <path d="m237.74 230.6c0.326-3.713-0.033-6.337-0.295-7.331-0.676-2.571-2.544-3.397-4.426-2.493-1.878 0.902-2.202 2.963-0.73 5.177 1.009 1.517 2.404 2.554 5.451 4.647"/>
      <path d="m287.84 264.6c-1.537 0.979-2.602 2.352-4.756 5.357 3.706 0.4 6.337 0.094 7.335-0.148 2.584-0.624 3.448-2.475 2.582-4.375-0.864-1.896-2.918-2.261-5.161-0.834"/>
      <path d="m293.37 262.39c1.605 1.33 3.612 0.762 5.009-1.5 0.955-1.551 1.315-3.252 1.943-6.894-3.51 1.255-5.743 2.678-6.536 3.331-2.054 1.689-2.024 3.731-0.416 5.063"/>
      <path d="m364.23 306.71c2.071 0.239 3.444-1.332 3.381-3.989-0.045-1.821-0.672-3.443-2.133-6.838-2.256 2.966-3.352 5.377-3.661 6.357-0.799 2.535 0.34 4.231 2.413 4.47"/>
      <path d="m379.6 324.21c2.071 0.239 3.444-1.332 3.381-3.989-0.045-1.821-0.672-3.443-2.133-6.838-2.256 2.966-3.352 5.377-3.661 6.357-0.799 2.535 0.34 4.231 2.413 4.47"/>
      <path d="m365.82 322.49c-0.799 2.535 0.34 4.231 2.414 4.47 2.07 0.239 3.443-1.332 3.38-3.989-0.045-1.821-0.672-3.443-2.133-6.838-2.256 2.966-3.352 5.377-3.661 6.357"/>
      <path d="m380.48 331.81c-0.841-2.522-2.758-3.225-4.578-2.201-1.816 1.022-2.005 3.099-0.394 5.214 1.106 1.448 2.565 2.393 5.741 4.283 0.085-3.726-0.443-6.321-0.769-7.296"/>
      <path d="m368 341.36c0.084-3.726-0.443-6.321-0.769-7.296-0.841-2.522-2.758-3.225-4.578-2.201-1.816 1.022-2.006 3.099-0.394 5.214 1.106 1.448 2.565 2.393 5.741 4.283"/>
      <path d="m366.5 378.57c0.084-3.726-0.443-6.321-0.769-7.296-0.841-2.522-2.758-3.226-4.578-2.201-1.816 1.022-2.006 3.099-0.394 5.214 1.106 1.447 2.565 2.393 5.741 4.283"/>
      <path d="m376.89 361.43c-3.72 0.232-6.262 0.979-7.205 1.386-2.441 1.052-2.98 3.022-1.805 4.748 1.173 1.723 3.259 1.735 5.229-0.05 1.348-1.225 2.166-2.759 3.781-6.084"/>
      <path d="m355.88 405.99c2.428-1.122 4.248-2.909 7.973-6.854-5.31-1.313-9.197-1.387-10.698-1.233-3.881 0.399-5.502 2.92-4.617 5.855 0.883 2.928 3.798 3.863 7.342 2.232"/>
      <path d="m336.25 381.24c-5.646 1.65-7.363 5.831-5.25 9.943 2.107 4.1 6.686 4.693 11.497 1.306 3.295-2.325 5.506-5.472 9.955-12.339-8.234-0.498-14.018 0.453-16.202 1.09"/>
      <path d="m318.16 291.85c-2.221-1.461-4.163-0.828-4.959 1.102-0.795 1.926 0.341 3.676 2.915 4.341 1.765 0.453 3.496 0.293 7.161-0.186-2.238-2.98-4.259-4.693-5.117-5.257"/>
      <path d="m288.84 346.78c-1.716 1.182-1.715 3.268 0.082 5.228 1.233 1.341 2.772 2.149 6.107 3.743-0.255-3.718-1.017-6.255-1.43-7.196-1.067-2.435-3.04-2.961-4.759-1.775"/>
      <path d="m279.53 354.3c-3.096-2.036-5.803-1.154-6.913 1.537-1.108 2.686 0.476 5.123 4.064 6.05 2.46 0.633 4.873 0.409 9.982-0.258-3.12-4.154-5.937-6.542-7.133-7.329"/>
      <path d="m263.07 429.76c0.112 2.538 1.028 4.781 3.156 9.474 3.064-4.195 4.528-7.586 4.932-8.959 1.046-3.556-0.588-5.888-3.485-6.165-2.892-0.277-4.762 1.948-4.603 5.65"/>
      <path d="m328.96 400.27c-3.431-0.329-5.65 2.311-5.461 6.705 0.132 3.011 1.22 5.672 3.744 11.24 3.637-4.977 5.373-9 5.853-10.63 1.24-4.219-0.698-6.986-4.136-7.315"/>
      <path d="m345.9 415.75c1.241-4.218-0.697-6.986-4.135-7.314-3.431-0.33-5.651 2.311-5.462 6.704 0.132 3.011 1.22 5.672 3.745 11.241 3.637-4.978 5.373-9.001 5.852-10.631"/>
      <path d="m342.5 438.09c-2.736 1.265-4.786 3.281-8.981 7.728 5.985 1.477 10.366 1.559 12.056 1.384 4.374-0.451 6.2-3.294 5.2-6.6-0.997-3.3-4.281-4.352-8.275-2.512"/>
      <path d="m358.54 425.94c-0.997-3.3-4.282-4.352-8.275-2.512-2.737 1.265-4.787 3.281-8.981 7.728 5.984 1.477 10.365 1.558 12.055 1.384 4.374-0.451 6.2-3.294 5.201-6.6"/>
      <path d="m293.79 406.96c5.985 1.478 10.365 1.559 12.055 1.385 4.374-0.452 6.201-3.295 5.2-6.601-0.996-3.299-4.281-4.352-8.274-2.511-2.737 1.264-4.787 3.28-8.981 7.727"/>
      <path d="m311.07 382.27c4.374-0.452 6.201-3.294 5.201-6.601-0.997-3.299-4.282-4.352-8.275-2.511-2.737 1.264-4.787 3.28-8.981 7.728 5.985 1.477 10.365 1.558 12.055 1.384"/>
      <path d="m292.83 446.16c-2.736 1.264-4.786 3.28-8.981 7.728 5.985 1.477 10.366 1.558 12.056 1.384 4.374-0.452 6.2-3.294 5.2-6.601-0.997-3.299-4.281-4.352-8.275-2.511"/>
      <path d="m269.78 441.12c-2.736 1.264-4.786 3.28-8.981 7.728 5.985 1.477 10.366 1.558 12.056 1.384 4.374-0.452 6.2-3.294 5.2-6.601-0.996-3.299-4.281-4.352-8.275-2.511"/>
      <path d="m287.05 412.81c-1.774-2.955-5.216-3.172-8.638-0.409-2.344 1.895-3.838 4.351-6.816 9.69 6.164-0.032 10.431-1.026 12.027-1.608 4.131-1.509 5.206-4.712 3.427-7.673"/>
      <path d="m272.2 396.78c-1.774-2.955-5.217-3.172-8.638-0.409-2.344 1.895-3.838 4.352-6.816 9.691 6.164-0.033 10.431-1.026 12.027-1.609 4.131-1.509 5.205-4.712 3.427-7.673"/>
      <path d="m326.58 281.98c2.033-0.432 3.72-1.474 7.221-3.822-3.798-1.908-6.731-2.634-7.894-2.775-3.01-0.365-4.673 1.266-4.507 3.641 0.165 2.372 2.213 3.582 5.18 2.956"/>
      <path d="m366.66 290.13c-2.843-3.662-5.391-5.753-6.47-6.437-2.793-1.774-5.195-0.947-6.147 1.469-0.95 2.413 0.498 4.566 3.714 5.342 2.204 0.529 4.354 0.295 8.903-0.374"/>
      <path d="m362.65 276.8c-1.147 2.912 0.601 5.512 4.483 6.448 2.661 0.638 5.256 0.356 10.748-0.452-3.433-4.419-6.509-6.944-7.811-7.77-3.371-2.141-6.271-1.144-7.42 1.774"/>
      <path d="m344.98 266.84c-2.238-2.98-4.258-4.693-5.117-5.257-2.221-1.461-4.163-0.829-4.959 1.102-0.795 1.926 0.342 3.675 2.916 4.341 1.764 0.453 3.495 0.293 7.16-0.186"/>
      <path d="m357.18 254.21c-2.238-2.98-4.258-4.693-5.117-5.257-2.221-1.461-4.163-0.829-4.959 1.102-0.794 1.926 0.342 3.675 2.916 4.341 1.765 0.453 3.496 0.293 7.16-0.186"/>
      <path d="m264.64 212.45c-2.238-1.434-4.172-0.778-4.945 1.162-0.771 1.936 0.386 3.672 2.969 4.305 1.769 0.432 3.498 0.251 7.157-0.272-2.274-2.953-4.315-4.641-5.181-5.195"/>
      <path d="m245.1 199.51c1.736-2.013 1.361-4.021-0.45-5.061-1.807-1.038-3.689-0.138-4.682 2.328-0.679 1.691-0.745 3.428-0.745 7.124 3.245-1.833 5.205-3.613 5.877-4.391"/>
      <path d="m129.35 335.06c2.875 0.899 5.251-0.958 5.88-4.749 0.431-2.6-0.02-5.072-1.175-10.288-4.006 3.601-6.217 6.726-6.921 8.035-1.822 3.384-0.665 6.099 2.216 7.002"/>
      <path d="m142.47 351.93c2.875 0.899 5.251-0.958 5.88-4.749 0.431-2.6-0.02-5.072-1.175-10.288-4.006 3.601-6.217 6.726-6.921 8.035-1.822 3.383-0.665 6.099 2.216 7.002"/>
      <path d="m128.64 263.3c2.974-0.478 4.271-3.2 3.143-6.874-0.775-2.519-2.281-4.529-5.643-8.682-1.979 5.01-2.561 8.794-2.608 10.28-0.12 3.84 2.127 5.754 5.108 5.276"/>
      <path d="m116 226.28c-0.445 5.613 0.13 9.572 0.538 11.071 1.055 3.876 3.885 5.102 6.719 3.712 2.826-1.388 3.29-4.505 1.038-7.832-1.545-2.28-3.665-3.829-8.295-6.951"/>
      <path d="m99.928 203.55c3.708-0.597 5.324-3.99 3.918-8.569-0.967-3.14-2.844-5.646-7.035-10.823-2.466 6.246-3.192 10.962-3.25 12.814-0.15 4.788 2.651 7.174 6.367 6.578"/>
      <path d="m40.551 283.16c-2.438 4.804-3.372 8.516-3.557 9.991-0.479 3.813 1.579 5.929 4.591 5.731 3.007-0.198 4.553-2.787 3.772-6.55-0.535-2.58-1.847-4.723-4.806-9.172"/>
      <path d="m68.747 309.76c-0.367-1.768-1.267-3.237-3.294-6.286-1.671 3.293-2.311 5.837-2.438 6.848-0.329 2.613 1.082 4.063 3.147 3.928 2.061-0.136 3.12-1.91 2.585-4.49"/>
      <path d="m31.389 295.97c-1.829-1.401-3.919-2.07-8.418-3.325 1.129 4.571 2.631 7.561 3.35 8.643 1.86 2.797 4.43 3.022 6.311 1.171 1.877-1.848 1.422-4.444-1.243-6.489"/>
      <path d="m56.746 266.09c1.185 3.143 3.639 3.939 5.887 2.557 2.244-1.379 2.383-4.011 0.244-6.602-1.466-1.775-3.354-2.896-7.457-5.129 0.075 4.708 0.868 7.959 1.326 9.174"/>
      <path d="m60.555 293.06c3.952-2.065 4.496-6.494 1.191-11.122-2.269-3.172-5.324-5.288-11.99-9.543-0.429 7.961 0.526 13.544 1.157 15.652 1.631 5.448 5.682 7.081 9.642 5.013"/>
      <path d="m54.536 316.72c3.006-0.198 4.552-2.787 3.772-6.55-0.536-2.58-1.848-4.723-4.807-9.172-2.438 4.804-3.372 8.516-3.557 9.991-0.479 3.813 1.579 5.929 4.592 5.731"/>
      <path d="m85.311 243.74c-3.25-1.761-6.548-0.086-8.2 4.331-1.132 3.028-1.172 6.111-1.012 12.664 5.673-3.391 9.072-6.633 10.229-8.042 2.991-3.645 2.239-7.187-1.017-8.953"/>
      <path d="m44.433 266.34c-3.25-1.761-6.549-0.085-8.201 4.331-1.131 3.029-1.171 6.111-1.011 12.665 5.673-3.392 9.072-6.634 10.228-8.043 2.991-3.644 2.239-7.186-1.016-8.953"/>
      <path d="m28.898 323.16c-3.25-1.761-6.548-0.086-8.2 4.331-1.132 3.028-1.172 6.111-1.012 12.664 5.673-3.391 9.072-6.633 10.229-8.042 2.991-3.645 2.239-7.187-1.017-8.953"/>
      <path d="m72.5 327.61c2.991-3.645 2.239-7.187-1.017-8.953-3.25-1.761-6.548-0.086-8.2 4.331-1.132 3.028-1.172 6.111-1.012 12.664 5.673-3.391 9.072-6.633 10.229-8.042"/>
      <path d="m94.276 340.84c2.397-4.06 1.111-7.444-2.378-8.691-3.482-1.241-6.483 0.92-7.438 5.538-0.654 3.166-0.22 6.218 0.943 12.67 5.086-4.222 7.947-7.947 8.873-9.517"/>
      <path d="m62.804 382.84c-3.547 1.044-4.703 4.558-2.759 8.854 1.333 2.945 3.48 5.158 8.215 9.692 1.63-6.407 1.752-11.102 1.579-12.916-0.45-4.694-3.481-6.674-7.035-5.63"/>
      <path d="m93.804 433.34c-3.546 1.044-4.702 4.558-2.759 8.854 1.334 2.945 3.48 5.158 8.216 9.692 1.629-6.406 1.752-11.102 1.578-12.916-0.449-4.694-3.481-6.674-7.035-5.63"/>
      <path d="m136.19 428.16c-0.186 3.692 2.748 5.944 7.445 5.529 3.22-0.285 6.019-1.58 11.863-4.551-5.509-3.655-9.899-5.322-11.669-5.758-4.579-1.126-7.45 1.08-7.639 4.78"/>
      <path d="m94.496 381.32c-4.578-1.126-7.449 1.081-7.638 4.78-0.187 3.693 2.747 5.945 7.445 5.53 3.22-0.286 6.018-1.581 11.862-4.552-5.508-3.655-9.899-5.322-11.669-5.758"/>
      <path d="m53.938 425.33c2.359-0.209 4.41-1.158 8.692-3.335-4.036-2.679-7.254-3.9-8.551-4.22-3.355-0.825-5.458 0.792-5.597 3.503-0.137 2.706 2.014 4.356 5.456 4.052"/>
      <path d="m46.309 405.66c-0.137 2.706 2.014 4.356 5.456 4.052 2.36-0.209 4.41-1.158 8.692-3.336-4.036-2.678-7.253-3.9-8.551-4.219-3.355-0.825-5.458 0.792-5.597 3.503"/>
      <path d="m71.572 427.77c2.568 3.344 4.872 5.258 5.85 5.887 2.529 1.627 4.718 0.89 5.597-1.302 0.877-2.19-0.428-4.155-3.347-4.877-2.003-0.495-3.959-0.292-8.1 0.292"/>
      <path d="m140.39 379.57c2.043-1.179 2.232-3.531 0.383-5.903-1.267-1.626-2.931-2.676-6.546-4.777-0.05 4.216 0.578 7.145 0.958 8.244 0.982 2.842 3.159 3.615 5.205 2.436"/>
      <path d="m131.72 393.48c-3.947-4.794-8.715-4.727-11.828-0.97-3.105 3.75-1.781 8.438 3.504 11.7 3.623 2.235 7.597 3.072 16.105 4.538-2.935-8.196-6.257-13.414-7.781-15.268"/>
      <path d="m81.471 445.34c-3.547 1.044-4.703 4.558-2.759 8.854 1.333 2.945 3.48 5.158 8.215 9.692 1.63-6.406 1.752-11.102 1.579-12.916-0.45-4.694-3.481-6.674-7.035-5.63"/>
      <path d="m107.5 414.27c-3.696 0.047-5.758 3.119-5.046 7.78 0.489 3.196 1.958 5.907 5.293 11.55 3.299-5.728 4.685-10.216 5.008-12.01 0.834-4.641-1.551-7.366-5.255-7.32"/>
      <path d="m140.69 449.62c-3.439 1.355-4.277 4.958-1.958 9.064 1.591 2.814 3.926 4.828 9.047 8.921 1.052-6.526 0.755-11.214 0.421-13.005-0.867-4.635-4.062-6.337-7.51-4.98"/>
      <path d="m122.35 453.27c-2.298 2.274-3.627 5.056-6.232 11.072 6.573-0.699 11.018-2.216 12.659-3.009 4.244-2.053 5.048-5.583 2.833-8.553-2.211-2.963-5.907-2.825-9.26 0.49"/>
      <path d="m128.66 437.14c-3.23 0.149-6.081 1.323-12.045 4.044 5.348 3.885 9.664 5.737 11.413 6.248 4.527 1.319 7.489-0.763 7.835-4.452 0.343-3.681-2.493-6.056-7.203-5.84"/>
      <path d="m115.04 336.73c-2.098-3.044-5.797-3.047-9.274 0.138-2.382 2.185-3.816 4.915-6.647 10.827 6.594-0.448 11.094-1.795 12.764-2.526 4.32-1.89 5.256-5.387 3.157-8.439"/>
      <path d="m19.636 319.16c-2.032-3.7-6.234-4.131-10.551-0.914-2.959 2.208-4.904 5.144-8.803 11.534 7.544 0.252 12.811-0.759 14.793-1.396 5.126-1.65 6.593-5.514 4.561-9.224"/>
      <path d="m13.54 352.33c3.823 7.548 7.659 12.177 9.354 13.78 4.387 4.145 8.975 3.503 11.524-0.496 2.538-3.993 0.694-8.354-4.797-10.86-3.765-1.715-7.699-2.041-16.081-2.424"/>
      <path d="m47.658 444.16c1.845-2.902 0.505-6.071-3.486-7.893-2.736-1.246-5.595-1.483-11.687-1.761 2.779 5.485 5.567 8.849 6.798 10.014 3.188 3.013 6.523 2.546 8.375-0.36"/>
      <path d="m22.922 381.4c-4.501-1.459-8.261 1.418-9.314 7.362-0.718 4.074-0.049 7.964 1.678 16.176 6.351-5.591 9.873-10.463 11.001-12.505 2.915-5.285 1.145-9.566-3.365-11.033"/>
      <path d="m54.357 329.49c4.344-1.397 5.588-4.672 3.866-7.816-1.722-3.136-5.283-3.501-8.942-0.775-2.508 1.871-4.156 4.359-7.46 9.774 6.393 0.214 10.857-0.643 12.536-1.183"/>
      <path d="m48.76 353.43c3.644-1.172 4.687-3.919 3.242-6.556-1.444-2.629-4.431-2.936-7.5-0.649-2.102 1.569-3.484 3.656-6.256 8.197 5.362 0.18 9.106-0.539 10.514-0.992"/>
      <path d="m72.28 358.76c-0.959-0.857-2.21-0.555-3.125 0.806-0.627 0.935-0.888 1.975-1.361 4.206 2.193-0.691 3.604-1.515 4.11-1.899 1.306-0.994 1.336-2.253 0.376-3.113"/>
      <path d="m57.434 376.9c1.919-1.461 1.963-3.312 0.552-4.577-1.409-1.259-3.249-0.816-4.593 1.186-0.921 1.374-1.306 2.904-2.001 6.183 3.224-1.016 5.299-2.228 6.042-2.792"/>
      <path d="m57.528 368.37c2.087 1.211 3.812 0.54 4.438-1.248 0.622-1.785-0.494-3.314-2.86-3.786-1.622-0.322-3.182-0.089-6.477 0.528 2.177 2.587 4.093 4.037 4.899 4.506"/>
      <path d="m76.664 373.86c0.622-1.785-0.495-3.313-2.86-3.785-1.622-0.323-3.182-0.09-6.477 0.528 2.177 2.587 4.093 4.036 4.899 4.505 2.086 1.211 3.812 0.541 4.438-1.248"/>
      <path d="m49.295 372.12c-1.444-2.63-4.431-2.936-7.5-0.65-2.102 1.57-3.485 3.657-6.256 8.198 5.362 0.18 9.106-0.539 10.514-0.992 3.644-1.172 4.687-3.919 3.242-6.556"/>
      <path d="m41.569 404.97c-1.998-3.638-6.131-4.062-10.378-0.899-2.909 2.172-4.821 5.059-8.656 11.344 7.419 0.248 12.6-0.746 14.548-1.373 5.042-1.623 6.484-5.423 4.486-9.072"/>
      <path d="m45.06 449.38c-1.957 1.462-3.245 3.405-5.826 7.635 4.994 0.167 8.481-0.502 9.792-0.924 3.393-1.092 4.365-3.65 3.02-6.106-1.345-2.449-4.127-2.734-6.986-0.605"/>
      <path d="m79.401 421.51c4.994 0.167 8.48-0.502 9.792-0.924 3.393-1.092 4.364-3.65 3.019-6.106-1.345-2.449-4.127-2.734-6.985-0.605-1.958 1.462-3.246 3.405-5.826 7.635"/>
      <path d="m81.373 402.06c-1.576 1.867-2.389 4.052-3.943 8.757 4.901-0.97 8.146-2.413 9.327-3.121 3.057-1.833 3.423-4.545 1.557-6.631-1.866-2.081-4.64-1.728-6.941 0.995"/>
      <path d="m64.4 407.61c-1.575 1.868-2.388 4.053-3.943 8.758 4.902-0.97 8.146-2.413 9.328-3.121 3.057-1.833 3.422-4.545 1.556-6.631-1.866-2.081-4.64-1.728-6.941 0.994"/>
      <path d="m53.693 431.81c-2.211 1.709-2.063 4.501 0.483 6.995 1.747 1.708 3.867 2.679 8.446 4.574-0.609-4.959-1.81-8.3-2.429-9.53-1.604-3.184-4.282-3.747-6.5-2.039"/>
      <path d="m68.279 450.7c-2.585-1.062-4.93 0.462-5.818 3.913-0.606 2.368-0.389 4.689 0.258 9.601 3.992-3.004 6.286-5.714 7.042-6.866 1.956-2.98 1.106-5.581-1.482-6.648"/>
      <path d="m24.516 373.77c-0.274-2.988-2.89-4.462-6.616-3.592-2.555 0.598-4.656 1.959-9.011 5.015 4.844 2.307 8.563 3.144 10.035 3.291 3.808 0.381 5.862-1.72 5.592-4.714"/>
      <path d="m38.064 398.08c3.589 1.327 6.106-0.19 6.598-3.156 0.487-2.96-1.673-5.046-5.498-5.141-2.624-0.064-5 0.724-9.984 2.585 4.107 3.452 7.496 5.198 8.884 5.712"/>
      <path d="m42.263 313.53c-2.607 0.3-4.851 1.408-9.531 3.94 4.545 2.852 8.143 4.113 9.588 4.429 3.739 0.819 6.021-1.03 6.099-4.036 0.074-2.999-2.354-4.766-6.156-4.333"/>
      <path d="m35.989 336.47c-2.102 1.57-3.485 3.657-6.256 8.198 5.362 0.18 9.106-0.539 10.514-0.992 3.644-1.172 4.687-3.919 3.242-6.556-1.444-2.63-4.431-2.936-7.5-0.65"/>
      <path d="m79.757 240.05c0.484-4.394-2.859-7.292-8.496-7.129-3.864 0.113-7.297 1.459-14.481 4.594 6.314 4.752 11.438 7.053 13.52 7.698 5.387 1.67 8.971-0.761 9.457-5.163"/>
      <path d="m120.53 211.17c-3.016 1.301-5.303 3.441-9.992 8.17 6.476 1.771 11.243 1.981 13.09 1.837 4.776-0.371 6.843-3.415 5.846-7.043-0.996-3.621-4.544-4.86-8.944-2.964"/>
      <path d="m104.28 216.56c0.533-3.717-2.224-6.271-7.015-6.289-3.285-0.013-6.237 1.035-12.425 3.498 5.23 4.21 9.517 6.307 11.267 6.912 4.527 1.569 7.638-0.396 8.173-4.121"/>
      <path d="m40.179 261.51c0.869-5.558-3.213-9.434-10.387-9.554-4.919-0.08-9.359 1.434-18.674 5.002 7.752 6.405 14.131 9.627 16.74 10.568 6.751 2.434 11.448-0.448 12.321-6.016"/>
      <path d="m27.994 306.64c-0.114-4.728-4.071-7.322-10.023-6.345-4.081 0.67-7.527 2.588-14.697 6.935 7.372 4.137 13.132 5.846 15.431 6.232 5.949 1.003 9.401-2.086 9.289-6.822"/>
      <path d="m266.67 292.71c-1.631 6.009 1.191 9.867 6.067 10.232 4.868 0.363 7.934-3.44 7.533-9.653-0.274-4.26-1.895-7.994-5.635-15.799-4.995 7.154-7.335 12.897-7.965 15.22"/>
      <path d="m239.85 366.55c-1.631 6.009 1.191 9.868 6.067 10.232 4.868 0.363 7.934-3.439 7.534-9.652-0.275-4.26-1.895-7.994-5.636-15.799-4.995 7.153-7.335 12.897-7.965 15.219"/>
      <path d="m236.72 396.11c-4.226 2.441-4.619 7.31-0.789 12.219 2.625 3.365 6.067 5.539 13.552 9.883 0.101-8.724-1.2-14.788-1.987-17.063-2.035-5.884-6.541-7.483-10.776-5.039"/>
      <path d="m280.2 379.29c-3.297 3.6-2.208 8.361 2.921 11.892 3.515 2.421 7.452 3.459 15.897 5.351-2.527-8.35-5.591-13.743-7.025-15.676-3.711-5-8.489-5.17-11.793-1.567"/>
      <path d="m306.29 458.78c-2.179 2.377-1.459 5.523 1.929 7.856 2.322 1.599 4.923 2.284 10.502 3.535-1.669-5.517-3.693-9.079-4.641-10.356-2.451-3.304-5.607-3.416-7.79-1.035"/>
      <path d="m359 436.6c-1.421 1.55-0.952 3.602 1.258 5.123 1.514 1.043 3.21 1.49 6.848 2.305-1.088-3.597-2.408-5.92-3.026-6.753-1.599-2.155-3.657-2.228-5.08-0.675"/>
      <path d="m362.13 427.91c-0.413 2.062 1.05 3.574 3.728 3.733 1.835 0.108 3.518-0.388 7.053-1.573-2.794-2.515-5.125-3.819-6.085-4.212-2.483-1.016-4.282-0.013-4.696 2.052"/>
      <path d="m365.95 418.67c1.589-0.923 2.719-2.266 5.01-5.207-3.717-0.553-6.381-0.353-7.398-0.15-2.631 0.525-3.577 2.355-2.781 4.305 0.794 1.947 2.849 2.399 5.169 1.052"/>
      <path d="m310.99 434.68c-1.508-2.22-3.561-2.379-5.048-0.886-1.484 1.49-1.101 3.558 1.043 5.171 1.47 1.104 3.146 1.622 6.747 2.588-0.938-3.64-2.159-6.016-2.742-6.873"/>
      <path d="m317.18 420.45c-3.08-1.63-5.533-0.563-6.331 2.054-0.797 2.613 0.902 4.754 4.342 5.299 2.359 0.374 4.598-0.052 9.318-1.134-3.292-3.607-6.138-5.59-7.329-6.219"/>
      <path d="m249.26 302.8c-0.068 4.68 2.706 6.965 6.326 6.322 3.612-0.643 5.138-3.984 3.688-8.435-0.994-3.051-2.87-5.468-7.048-10.456-2.305 6.141-2.94 10.76-2.966 12.569"/>
      <path d="m262.88 354.2c2.887-2.264 2.664-5.931-0.707-9.178-2.311-2.226-5.103-3.479-11.135-5.918 0.85 6.504 2.461 10.88 3.289 12.489 2.138 4.163 5.661 4.876 8.553 2.607"/>
      <path d="m267.95 333.86c2.344-1.839 2.131-4.858-0.656-7.558-1.911-1.852-4.208-2.905-9.167-4.963 0.751 5.359 2.106 8.973 2.797 10.304 1.786 3.444 4.677 4.06 7.026 2.217"/>
      <path d="m275.37 339.11c-0.369 3.862 1.724 5.949 4.697 5.676 2.968-0.271 4.428-2.922 3.553-6.703-0.6-2.593-1.956-4.724-5.005-9.144-2.278 4.908-3.102 8.678-3.245 10.171"/>
      <path d="m315.51 317.74c-0.382-1.652-1.246-3.01-3.188-5.825-1.452 3.126-1.977 5.528-2.067 6.479-0.236 2.461 1.098 3.79 2.992 3.616 1.89-0.173 2.82-1.861 2.263-4.27"/>
      <path d="m297.38 336.88c2.975 0.175 4.813-2.229 4.513-6.098-0.206-2.653-1.229-4.963-3.584-9.788-2.985 4.512-4.363 8.118-4.726 9.573-0.942 3.763 0.815 6.139 3.797 6.313"/>
      <path d="m305.14 347.87c-1.821 4.327-0.158 7.493 3.376 8.253 3.525 0.757 6.169-1.778 6.523-6.462 0.244-3.211-0.554-6.162-2.479-12.369-4.403 4.847-6.717 8.905-7.42 10.578"/>
      <path d="m296.77 317.88c-6.493-1.682-11.274-1.845-13.126-1.684-4.79 0.411-6.867 3.429-5.87 6.994 0.993 3.557 4.551 4.744 8.965 2.833 3.027-1.31 5.323-3.44 10.031-8.143"/>
      <path d="m248.84 257.78c-2.061 6.507-2.467 11.342-2.395 13.223 0.184 4.868 3.193 7.09 6.918 6.225 3.72-0.866 5.122-4.421 3.372-8.966-1.198-3.117-3.28-5.527-7.895-10.482"/>
      <path d="m212.52 245.44c-0.795 3.865 1.144 6.194 4.242 6.233 3.094 0.036 4.883-2.49 4.384-6.405-0.341-2.684-1.514-4.982-4.189-9.771-2.878 4.722-4.13 8.448-4.437 9.943"/>
      <path d="m240.79 288.04c3.72-0.865 5.122-4.42 3.372-8.966-1.198-3.117-3.28-5.527-7.894-10.482-2.061 6.508-2.468 11.342-2.396 13.224 0.184 4.867 3.193 7.09 6.918 6.224"/>
      <path d="m257.48 250.05c0.637 5.534 1.948 9.269 2.629 10.646 1.762 3.563 4.743 4.214 7.229 2.326 2.481-1.886 2.338-5-0.481-7.801-1.933-1.922-4.287-3.021-9.377-5.171"/>
      <path d="m287.73 297.95c1.761 3.563 4.743 4.214 7.228 2.326 2.481-1.886 2.339-5-0.481-7.801-1.932-1.922-4.287-3.021-9.376-5.171 0.637 5.534 1.947 9.269 2.629 10.646"/>
      <path d="m336.69 344.68c2.895 1.153 5.49-0.576 6.435-4.436 0.65-2.646 0.378-5.231-0.405-10.7-4.412 3.4-6.937 6.449-7.766 7.744-2.143 3.345-1.163 6.236 1.736 7.392"/>
      <path d="m330.18 303.61c3.634 0.137 5.813-2.777 5.345-7.391-0.319-3.165-1.628-5.901-4.625-11.61-3.525 5.462-5.11 9.802-5.515 11.549-1.051 4.517 1.155 7.314 4.795 7.452"/>
      <path d="m345.41 308.26c-2.192 4.088-0.791 7.363 2.687 8.446 3.472 1.08 6.335-1.166 7.087-5.742 0.517-3.139-0.033-6.122-1.438-12.415-4.827 4.354-7.489 8.131-8.336 9.711"/>
      <path d="m337.35 326.5c-1.427-3.345-4.993-4.071-8.966-1.68-2.726 1.639-4.641 3.991-8.526 9.138 6.444 0.856 11.046 0.438 12.798 0.06 4.534-0.978 6.122-4.167 4.694-7.518"/>
      <path d="m355.6 279.5c3.582-0.634 5.095-3.943 3.664-8.354-0.98-3.026-2.837-5.424-6.973-10.372-2.292 6.084-2.925 10.66-2.952 12.453-0.073 4.638 2.674 6.905 6.261 6.273"/>
      <path d="m302.68 274.53c-1.626-3.36-5.318-3.932-9.277-1.284-2.714 1.813-4.564 4.319-8.295 9.786 6.649 0.564 11.347-0.09 13.126-0.564 4.603-1.223 6.074-4.571 4.446-7.938"/>
    </g>
  </g>
</svg>
