<?xml version="1.0" encoding="UTF-8"?>
<svg version="1.1" viewBox="0 0 206 391" xmlns="http://www.w3.org/2000/svg">
  <g fill="none" fill-rule="evenodd">
    <g fill="rgba(255, 255, 255, 0.5)">
      <path d="m0 390.5v-181.31c0.37162-0.6818 0.76341-1.3657 1.175-2.0501 2.677-4.487 6.137-9.023 9.882-13.772 3.727-4.757 7.79-9.748 11.292-15.341 0.686-1.101 1.338-2.233 1.964-3.383 0.038-0.402 0.061-0.868 0.047-1.382-0.01-0.761-0.069-1.671-0.201-2.539-0.036-0.216-0.063-0.399-0.103-0.53-0.071-0.247-0.15-0.597-0.217-0.774-0.115-0.359-0.285-0.823-0.502-1.302-0.581-1.297-1.472-2.681-2.601-4.126-0.059-6e-3 -0.146-0.014-0.286-0.03-0.117-0.012-0.263-0.027-0.433-0.044-0.047 0.012-0.09 0.018-0.151 6e-3 -0.033-0.036-0.212 0.024-0.351 0.037-0.15 1e-3 -0.324 0.085-0.514 0.137-0.382 0.126-0.84 0.374-1.348 0.713-0.501 0.367-1.057 0.802-1.612 1.368-0.564 0.545-1.135 1.192-1.715 1.882-1.154 1.396-2.32 3.008-3.478 4.65-2.309 3.283-4.657 6.688-6.977 8.769-0.581 0.516-1.148 0.95-1.688 1.277-0.54 0.329-1.047 0.548-1.473 0.689-0.27457 0.081801-0.51175 0.13988-0.71 0.17321l3.9015e-12 -0.10824c0.18142-0.062352 0.39283-0.15176 0.63-0.26397 0.384-0.198 0.827-0.479 1.284-0.865 0.457-0.385 0.924-0.875 1.392-1.441 1.875-2.295 3.61-5.887 5.394-9.509 0.897-1.813 1.823-3.638 2.828-5.334 0.511-0.845 1.029-1.662 1.6-2.421 0.548-0.765 1.175-1.463 1.806-2.091 0.655-0.618 1.342-1.16 2.067-1.562 0.061-0.031 0.117-0.061 0.176-0.092l-0.104-0.112-0.253-0.272-0.2-0.227c-0.277-0.324-0.52-0.566-0.831-0.965-0.038-0.047-0.071-0.095-0.109-0.142-0.21-0.061-0.447-0.13-0.733-0.213-0.449-0.112-0.972-0.27-1.634-0.406-0.65-0.151-1.391-0.291-2.208-0.422-1.636-0.261-3.578-0.448-5.734-0.545-1.6821-0.086181-3.5072-0.13492-5.371-0.29962l-4.1504e-7 -2.5389c1.7764-0.097703 3.5559-0.30557 5.296-0.46844 2.192-0.217 4.316-0.325 6.149-0.298 0.391 5e-3 0.762 0.018 1.126 0.032-1.518-3.508-1.979-7.581-1.568-11.483 0.408-4.081 1.589-8.035 2.936-11.87 1.367-3.809 2.734-7.661 4.361-11.473 1.596-3.783 3.27-7.488 4.702-11.19 1.433-3.7 2.606-7.413 3.286-11.102 0.655-3.675 0.91-7.373 0.944-10.824 0.013-3.461-0.303-6.734-1.026-9.662-0.708-2.944-1.821-5.475-3.052-7.638-1.204-2.149-2.415-3.953-3.454-5.396-1.044-1.444-1.913-2.544-2.515-3.287-0.61-0.736-0.935-1.129-0.935-1.129s0.343 0.377 0.986 1.085c0.637 0.714 1.557 1.775 2.671 3.174 1.112 1.403 2.405 3.146 3.732 5.277 1.326 2.095 2.619 4.688 3.48 7.668 0.883 2.98 1.364 6.336 1.515 9.881 0.126 3.555 0.048 7.272-0.458 11.157-0.529 3.866-1.571 7.778-2.861 11.627-0.36 1.076-0.739 2.148-1.127 3.217 1.168-1.071 2.524-2.167 4.022-3.311 1.625-1.232 3.422-2.494 5.341-3.787 1.918-1.291 3.956-2.617 6.058-3.983 4.198-2.74 8.669-5.645 12.817-8.95 2.089-1.635 4.037-3.426 5.835-5.298 1.806-1.87 3.321-3.937 4.551-6.066 1.266-2.121 1.996-4.418 2.431-6.626 0.083-0.559 0.164-1.111 0.245-1.654 0.047-0.547 0.033-1.09 0.053-1.622 0.082-1.07-0.106-2.093-0.188-3.082-0.025-0.498-0.148-0.97-0.251-1.435-0.104-0.465-0.204-0.919-0.303-1.362-0.185-0.89-0.54-1.685-0.777-2.46-0.233-0.781-0.556-1.469-0.852-2.108-0.291-0.641-0.558-1.23-0.799-1.762-1.145-2.039-1.8-3.205-1.8-3.205s0.696 1.144 1.914 3.145c0.261 0.525 0.55 1.107 0.864 1.74 0.32 0.632 0.669 1.314 0.932 2.092 0.266 0.773 0.653 1.565 0.872 2.459 0.116 0.446 0.235 0.904 0.356 1.372 0.122 0.469 0.263 0.946 0.308 1.453 0.119 1.005 0.346 2.048 0.302 3.148 0 0.549 0.032 1.109 4e-3 1.674-0.064 0.564-0.128 1.137-0.193 1.718-0.368 2.298-1.049 4.722-2.282 6.965-1.196 2.253-2.696 4.45-4.483 6.436-1.78 1.988-3.716 3.896-5.783 5.633-4.107 3.515-8.522 6.606-12.624 9.494-2.055 1.441-4.035 2.83-5.886 4.172-1.85 1.343-3.568 2.642-5.098 3.89-1.526 1.252-2.888 2.434-3.997 3.553-0.564 0.554-1.088 1.073-1.519 1.589-0.439 0.507-0.886 0.965-1.179 1.395-0.321 0.422-0.607 0.799-0.857 1.128-0.238 0.384-0.441 0.712-0.606 0.978-0.188 0.306-0.32 0.519-0.403 0.655-0.033 0.091-0.069 0.182-0.102 0.272-1.405 3.765-2.592 7.666-3.769 11.473-1.145 3.786-2.051 7.519-2.24 11.078-0.204 3.553 0.39 6.88 1.803 9.606 0.678 1.351 1.597 2.64 2.503 3.651 0.199 0.248 0.547 0.577 0.809 0.858l0.21 0.218 0.027 0.027c-0.088-0.093-9e-3 -0.011-0.022-0.024l0.054 0.052 0.108 0.106 0.43 0.421c0.577 0.576 1.143 1.142 1.697 1.696 2.154 2.199 4.081 4.526 5.397 7.031 0.11-0.39 0.235-0.775 0.332-1.17 0.199-0.819 0.378-1.647 0.515-2.484 0.068-0.418 0.141-0.837 0.186-1.26l0.174-1.388 0.177-1.405 0.248-1.53c0.163-1.032 0.382-1.997 0.599-2.998 0.455-1.984 1.05-3.955 1.747-5.898 1.406-3.888 3.354-7.618 5.675-11.074 4.678-6.93 10.78-12.593 16.715-17.99 5.945-5.403 11.799-10.734 16.232-16.978 2.203-3.115 4.074-6.419 5.442-9.893 1.389-3.464 2.315-7.072 2.84-10.694 1.053-7.257 0.579-14.495-0.499-21.225-0.539-3.576-1.537-6.969-2.912-10.058-5e-3 1e-3 -8e-3 2e-3 -0.014 3e-3 -0.066 7e-3 -0.143 0.016-0.231 0.026-0.376 0.022-0.653-0.027-0.992-0.119-0.647-0.189-1.286-0.538-2.01-1-1.44-0.922-3.208-2.351-5.344-3.989-1.068-0.813-2.227-1.681-3.485-2.484-0.628-0.398-1.285-0.779-1.956-1.082-0.688-0.325-1.27-0.455-2.132-0.554-1.533-0.189-3.22-0.084-4.859 0.313-1.648 0.39-3.276 1.053-4.825 1.886-3.105 1.674-5.881 3.989-8.274 6.344-2.395 2.365-4.424 4.791-6.074 6.934-1.65 2.147-2.924 4.014-3.795 5.335-0.858 1.33-1.348 2.091-1.348 2.091s0.452-0.784 1.244-2.156c0.806-1.363 1.989-3.296 3.54-5.532 1.551-2.235 3.472-4.777 5.785-7.298 2.315-2.511 5.029-5.026 8.216-6.954 3.159-1.927 6.912-3.193 10.601-2.898 0.243 0.012 0.451 0.037 0.658 0.061l0.313 0.035c0.163 0.024 0.263 0.039 0.392 0.066 0.486 0.098 0.93 0.241 1.349 0.401 0.838 0.32 1.589 0.705 2.298 1.097 1.413 0.79 2.659 1.619 3.796 2.385 2.23 1.515 4.044 2.801 5.318 3.519-0.776-1.299-1.628-2.518-2.554-3.643-3.707-4.575-8.629-7.388-13.29-8.506-4.715-1.166-9.004-1.267-12.491-1.063-3.496 0.213-6.217 0.737-8.049 1.154-0.914 0.22-1.615 0.393-2.082 0.531-0.468 0.13-0.71 0.197-0.71 0.197s0.239-0.077 0.703-0.224c0.461-0.155 1.155-0.356 2.063-0.611 1.819-0.488 4.526-1.118 8.042-1.468 3.502-0.34 7.862-0.406 12.715 0.599 2.446 0.52 4.981 1.403 7.425 2.808 2.445 1.39 4.783 3.277 6.832 5.595 0.402 0.452 0.782 0.933 1.161 1.416 0.158-0.483 0.329-1.082 0.507-1.78 0.563-2.19 1.199-5.229 2.051-8.218 0.841-2.988 1.957-5.944 3.268-7.902 0.32-0.49 0.651-0.916 0.965-1.272 0.32-0.35 0.611-0.646 0.881-0.853 0.256-0.223 0.481-0.365 0.634-0.461 0.151-0.098 0.231-0.15 0.231-0.15s-0.073 0.061-0.211 0.177c-0.14 0.114-0.343 0.279-0.566 0.529-0.237 0.232-0.485 0.555-0.751 0.93-0.261 0.38-0.528 0.826-0.778 1.335-1.024 2.029-1.748 4.992-2.208 7.991-0.472 3.004-0.728 6.041-1.03 8.37-0.152 1.168-0.309 2.155-0.527 2.924-0.069 0.211-0.09 0.335-0.183 0.558-0.079 0.194-0.174 0.403-0.22 0.489-0.037 0.069-0.063 0.119-0.085 0.159 2.468 3.953 4.266 8.614 5.213 13.619 1.35 6.837 2.135 14.289 1.307 22.008-0.414 3.85-1.259 7.748-2.619 11.535-1.335 3.796-3.227 7.444-5.466 10.867-0.662 1.008-1.362 1.986-2.081 2.95 2.751-1.956 5.738-3.845 8.081-6.364 1.153-1.238 2.166-2.753 3.349-4.113 1.154-1.358 2.323-2.649 3.455-3.89 2.269-2.474 4.33-4.813 5.831-7.022 0.764-1.093 1.373-2.155 1.881-3.115 0.481-0.972 0.873-1.836 1.13-2.575 0.299-0.724 0.44-1.324 0.566-1.724 0.12-0.403 0.183-0.618 0.183-0.618s-0.051 0.219-0.146 0.627c-0.103 0.407-0.211 1.018-0.468 1.761-0.216 0.758-0.56 1.65-0.989 2.661-0.457 0.998-1.011 2.111-1.722 3.264-1.392 2.327-3.347 4.822-5.47 7.424-1.058 1.305-2.144 2.652-3.195 4.046-1.06 1.362-1.955 2.899-3.15 4.37-2.381 2.894-5.39 5.047-7.963 7.139-1.288 1.033-2.523 2.085-3.53 3.085-0.268 0.275-0.533 0.548-0.794 0.815-0.253 0.236-0.609 0.572-0.885 0.807-0.57 0.479-1.121 0.943-1.651 1.362-2.078 1.668-3.84 2.997-5.125 3.935-1.159 1.153-2.321 2.294-3.475 3.425-5.734 5.6-11.289 11.218-15.253 17.601-3.989 6.364-6.193 13.397-6.718 20.521l-0.129 1.414c-0.041 0.512-0.111 1.017-0.178 1.522-0.135 1.011-0.316 2.008-0.525 2.993-0.421 1.968-0.977 3.877-1.638 5.71-1.319 3.671-3.015 7.044-4.829 10.163-3.65 6.236-7.71 11.514-11.262 16.353-3.573 4.821-6.68 9.201-8.901 13.204-1.844 3.297-3.058 6.307-3.725 8.908 2.068-2.574 4.324-5.214 6.742-7.937 3.639-4.109 7.644-8.379 11.511-12.921 1.922-2.27 3.815-4.617 5.464-7.037 0.811-1.209 1.579-2.435 2.219-3.661 0.564-1.09 1.286-2.757 1.969-4.277 2.867-6.334 6.097-12.779 10.127-19.02 0.484-0.787 1.034-1.543 1.549-2.317l0.855-1.249 0.8-1.072c0.481-0.68 1.187-1.519 1.842-2.308 0.658-0.811 1.348-1.477 2.024-2.218 2.799-2.823 6.029-5.265 9.513-7.155 7.009-3.814 14.779-5.285 22.102-5.69 4.94-0.285 9.755-0.086 14.396 0.16 0.506-0.376 1.242-0.906 2.115-1.511 1.912-1.352 4.708-3.102 7.609-5.46 1.435-1.163 2.898-2.606 4.025-4.135 0.166-0.245 0.336-0.497 0.504-0.746l-7e-3 -2e-3s0.058-0.154 0.165-0.442c0.025-0.069 0.054-0.147 0.084-0.232 0.013-0.053 0.027-0.111 0.042-0.173 0.018-0.063 0.038-0.13 0.059-0.203 0.018-0.1 0.038-0.207 0.059-0.32 0.092-0.453 0.145-1.076 0.189-1.839 0.018-0.399 0.038-0.823 0.06-1.27 0.013-0.215 0.027-0.435 0.041-0.66 8e-3 -0.235 0.017-0.476 0.025-0.722 9e-3 -0.246 0.017-0.496 0.026-0.752-9e-3 -0.224-0.019-0.453-0.028-0.685s-0.019-0.468-0.028-0.708c-0.031-0.25-0.061-0.505-0.093-0.762-0.109-1.036-0.365-2.118-0.678-3.232-0.341-1.106-0.761-2.241-1.293-3.361-0.489-1.177-1.171-2.128-1.93-3.069-0.803-0.967-1.687-1.903-2.603-2.784-0.907-0.89-1.844-1.732-2.766-2.529-1.846-1.594-3.648-3.002-5.23-4.158-1.582-1.153-2.946-2.058-3.943-2.615-0.496-0.281-0.901-0.482-1.184-0.592-0.29-0.1-0.445-0.153-0.445-0.153s0.656 0.105 1.706 0.592c1.057 0.464 2.51 1.24 4.21 2.246 1.699 1.009 3.645 2.249 5.667 3.684 1.011 0.718 2.043 1.481 3.063 2.306 1.026 0.815 2.037 1.695 3.006 2.658 0.992 1.002 1.93 2.141 2.547 3.307 0.69 1.152 1.274 2.354 1.773 3.556 0.471 1.211 0.88 2.419 1.125 3.607 0.065 0.297 0.129 0.59 0.192 0.879 0.042 0.305 0.084 0.605 0.125 0.9 0.027 0.22 0.055 0.433 0.082 0.647 0.824-1.624 1.642-3.323 2.563-5.068 0.591-1.157 1.408-2.461 2.143-3.482 0.711-0.991 1.468-1.96 2.241-2.882-0.042-0.089-0.083-0.169-0.126-0.269-0.048-0.14-0.102-0.293-0.159-0.458-0.107-0.326-0.197-0.681-0.272-1.067-0.311-1.547-0.382-3.551-0.29-5.894 0.09-2.342 0.349-5.016 0.701-7.857 0.19-1.413 0.387-2.874 0.587-4.358 0.19-1.479 0.477-2.994 0.519-4.32 0.025-2.791-0.805-5.708-1.728-8.33-0.94-2.638-2.027-5.047-2.99-7.096-0.966-2.049-1.814-3.742-2.397-4.931-0.581-1.19-0.913-1.871-0.913-1.871s0.394 0.647 1.083 1.777c0.691 1.13 1.693 2.735 2.852 4.695 1.154 1.961 2.473 4.275 3.688 6.884 1.19 2.613 2.37 5.516 2.663 8.796 0.024 0.426 0.043 0.883 0.033 1.237-4e-3 0.449-0.039 0.79-0.06 1.183-0.052 0.754-0.104 1.505-0.156 2.25-0.093 1.479-0.185 2.934-0.274 4.342-0.148 2.807-0.214 5.42-0.143 7.616 0.052 1.763 0.205 3.257 0.416 4.315 2.8-2.867 5.79-5.419 8.637-7.792 3.814-3.165 7.386-6.058 10.149-8.848 1.385-1.39 2.566-2.748 3.506-4.034 0.942-1.283 1.635-2.493 2.141-3.523 0.482-1.04 0.788-1.893 0.961-2.485 0.166-0.596 0.254-0.913 0.254-0.913s-0.067 0.323-0.192 0.929c-0.133 0.605-0.381 1.483-0.798 2.568-0.439 1.074-1.059 2.351-1.93 3.722-0.867 1.373-1.976 2.839-3.285 4.345-2.613 3.023-6.026 6.191-9.599 9.593-3.566 3.403-7.297 7.096-10.35 11.228-0.773 1.039-1.472 2.077-2.135 3.146-0.709 1.172-1.242 2.116-1.783 3.296-1.06 2.274-2.034 4.675-3.118 6.959-0.279 0.571-0.555 1.137-0.828 1.698-0.285 0.563-0.6 1.124-0.895 1.677l-0.447 0.826-0.454 0.751c-0.301 0.498-0.598 0.99-0.891 1.475-1.454 2.203-3.033 3.83-4.594 5.244-1.55 1.401-3.028 2.55-4.323 3.543-0.23 0.173-0.447 0.338-0.667 0.503 3.156 0.134 6.204 0.495 9.127 0.771 3.221 0.321 6.351 0.594 9.391 0.724 3.038 0.133 5.985 0.118 8.792-0.14 2.802-0.255 5.472-0.779 7.806-1.741 0.585-0.233 1.145-0.512 1.668-0.808l0.852-0.492 0.748-0.495c0.99-0.692 1.945-1.449 2.767-2.287 1.674-1.658 2.98-3.533 4.066-5.393 2.155-3.738 3.567-7.36 5.336-10.036 1.7-2.728 3.817-4.319 5.387-4.954 0.385-0.184 0.74-0.304 1.049-0.402 0.303-0.11 0.567-0.177 0.781-0.223 0.425-0.1 0.644-0.152 0.644-0.152s-0.215 0.066-0.632 0.195c-0.209 0.059-0.466 0.143-0.76 0.274-0.298 0.117-0.64 0.259-1.006 0.466-1.502 0.732-3.423 2.392-4.891 5.141-1.542 2.707-2.684 6.358-4.646 10.371-0.993 1.998-2.237 4.085-3.939 6.018-0.842 0.978-1.814 1.87-2.886 2.731l-0.839 0.635-0.821 0.551c-0.601 0.397-1.222 0.755-1.871 1.066-2.593 1.27-5.472 2.015-8.438 2.484-0.804 0.127-1.617 0.232-2.436 0.323 0.03 0.064 0.059 0.122 0.091 0.196 0.147 0.265 0.3 0.594 0.517 0.928 0.413 0.686 0.987 1.481 1.777 2.319 0.782 0.843 1.796 1.713 3.005 2.596 1.878 1.384 4.265 2.744 6.815 4.334 0.051-0.037 0.11-0.081 0.196-0.145 0.067-0.059 0.308-0.209 0.541-0.345 0.258-0.16 0.486-0.242 0.765-0.363 0.545-0.208 1.203-0.391 1.905-0.498 0.705-0.117 1.474-0.196 2.283-0.261 1.619-0.131 3.436-0.244 5.339-0.598 1.903-0.342 3.886-0.943 5.765-1.826 3.786-1.744 7.007-4.62 9.15-6.97 1.082-1.175 1.924-2.214 2.497-2.953 0.569-0.744 0.894-1.169 0.894-1.169s-0.287 0.452-0.79 1.243c-0.507 0.789-1.256 1.903-2.243 3.181-1.952 2.553-4.96 5.787-8.812 7.997-1.908 1.111-3.992 1.95-5.999 2.495-2.006 0.558-3.921 0.844-5.485 1.112-0.783 0.131-1.47 0.267-2.041 0.414-0.548 0.133-0.956 0.296-1.267 0.443 1.514 1.037 3.029 2.198 4.452 3.516 0.323 0.285 0.77 0.693 1.134 0.979 0.374 0.274 0.731 0.567 1.157 0.819 0.811 0.541 1.7 0.966 2.615 1.334 1.842 0.719 3.839 1.093 5.841 1.212 2.003 0.137 4.009 0.023 5.945-0.17 3.877-0.402 7.484-1.146 10.584-1.713 3.1-0.584 5.701-1.006 7.53-1.217 1.829-0.216 2.879-0.27 2.879-0.27s-1.046 0.116-2.853 0.44c-1.809 0.319-4.368 0.891-7.423 1.657-3.06 0.749-6.618 1.709-10.552 2.356-1.966 0.314-4.031 0.558-6.164 0.541-2.128-1e-3 -4.331-0.268-6.455-0.954-1.055-0.351-2.099-0.778-3.068-1.341-0.492-0.255-0.971-0.59-1.451-0.91-0.471-0.334-0.808-0.61-1.282-0.982-1.538-1.262-3.176-2.355-4.836-3.325-3.315-1.943-6.677-3.479-9.465-5.274-1.392-0.894-2.642-1.836-3.666-2.81-1.028-0.967-1.832-1.943-2.42-2.797-0.306-0.421-0.531-0.825-0.747-1.173-0.199-0.367-0.391-0.714-0.499-0.941-0.212-0.444-0.325-0.682-0.325-0.682l0.25-0.11c-0.943 0.051-1.893 0.09-2.85 0.111-3.149 0.07-6.37-2e-3 -9.632-0.114-3.274-0.097-6.541-0.289-9.806-0.161-6.862 0.134-13.743-0.045-20.525 0.784-6.75 0.797-13.384 2.585-18.876 6.057-2.743 1.724-5.188 3.838-7.294 6.244-0.489 0.621-1.058 1.238-1.484 1.851-0.446 0.622-0.877 1.162-1.382 1.973l-0.73 1.121-0.577 1.004c-0.418 0.741-0.867 1.455-1.258 2.209-3.253 5.932-5.86 12.205-8.124 18.352-0.592 1.605-1.073 3.064-1.903 4.983-0.784 1.77-1.664 3.389-2.567 4.939-1.823 3.075-3.771 5.808-5.686 8.389-3.848 5.138-7.582 9.651-10.848 13.848-3.268 4.183-6.097 8.013-8.311 11.463-0.57 0.876-1.099 1.726-1.591 2.548 2.723-2.519 5.748-4.916 9.268-7.049 0.501-0.303 1.016-0.596 1.598-0.902l0.225-0.116 0.193-0.097 0.091-0.039 0.364-0.158 0.73-0.315c0.997-0.419 1.909-0.853 2.996-1.267 1.069-0.411 2.145-0.824 3.227-1.239 1.06-0.365 2.127-0.731 3.198-1.099 4.283-1.406 8.573-2.587 12.719-3.962 1.051-0.326 2.057-0.715 3.089-1.07l0.769-0.271 0.193-0.068 0.048-0.017c0.029-0.012-0.086 0.04-0.015 9e-3l0.097-0.041 0.384-0.162c0.554-0.222 0.937-0.419 1.36-0.617 1.762-0.89 3.46-2.037 5.012-3.361 3.121-2.648 5.748-5.918 7.903-9.326 1.078-1.706 2.04-3.457 2.862-5.211 0.407-0.875 0.785-1.761 1.08-2.609 0.101-0.251 0.288-0.953 0.333-1.259 0.081-0.363 0.132-0.829 0.176-1.262 0.265-3.586-0.292-7.299 0-10.758 0.325-3.471 1.196-6.46 2.139-9.052 0.959-2.584 2.076-4.726 3.183-6.359 1.105-1.637 2.193-2.758 3.004-3.425 0.81-0.671 1.299-0.944 1.299-0.944s-0.468 0.312-1.216 1.037c-0.748 0.72-1.728 1.904-2.681 3.584-0.955 1.677-1.879 3.847-2.614 6.427-0.717 2.567-1.336 5.589-1.374 8.802 9e-3 1.608 0.192 3.304 0.409 5.089 0.105 0.906 0.226 1.835 0.319 2.798 0.624-0.402 1.323-0.817 2.134-1.278 0.982-0.529 2.097-1.097 3.33-1.655 2.467-1.116 5.393-2.21 8.517-3.267 3.123-1.067 6.443-2.13 9.671-3.379 1.616-0.621 3.196-1.31 4.721-2.051 1.527-0.737 2.963-1.58 4.309-2.463 1.347-0.887 2.547-1.88 3.644-2.872 1.057-1.033 2.019-2.059 2.786-3.106 0.399-0.513 0.763-1.017 1.071-1.524 0.328-0.494 0.629-0.971 0.871-1.443 0.535-0.917 0.905-1.766 1.225-2.461 0.317-0.695 0.498-1.27 0.654-1.65 0.146-0.383 0.224-0.588 0.224-0.588s-0.063 0.209-0.181 0.603c-0.129 0.389-0.27 0.979-0.538 1.698-0.27 0.719-0.581 1.602-1.055 2.567-0.212 0.496-0.482 1-0.779 1.526-0.278 0.539-0.612 1.08-0.981 1.632-0.709 1.128-1.62 2.253-2.637 3.398-1.058 1.106-2.232 2.226-3.562 3.245-1.329 1.016-2.76 1.998-4.28 2.871-1.518 0.877-3.097 1.703-4.701 2.455-3.207 1.512-6.479 2.822-9.487 4.096-3.014 1.266-5.753 2.524-7.993 3.737-1.121 0.607-2.111 1.205-2.973 1.752-0.848 0.566-1.579 1.067-2.118 1.493-0.548 0.392-1.026 0.818-1.338 1.073-0.314 0.263-0.483 0.403-0.483 0.403l-0.021-0.027-0.021 0.176-0.129 0.722-0.111 0.451c-0.271 1.034-0.604 2.009-0.969 2.991-0.736 1.954-1.61 3.888-2.619 5.804-2.022 3.819-4.564 7.594-7.896 10.912-0.751 0.749-1.552 1.462-2.391 2.144 2.957-0.968 5.889-1.88 8.772-2.772 4.234-1.302 8.375-2.564 12.384-3.881 0.998-0.336 1.99-0.671 2.977-1.003l1.438-0.499 1.47-0.536c0.977-0.356 1.949-0.71 2.914-1.062 0.933-0.373 1.86-0.744 2.781-1.113 7.393-2.942 14.08-6.683 20.391-9.916 1.58-0.806 3.127-1.594 4.638-2.364 1.503-0.786 2.971-1.555 4.403-2.304 2.894-1.469 5.717-2.728 8.427-3.753 5.426-2.048 10.373-3.151 14.467-3.751 2.046-0.327 3.891-0.466 5.488-0.621 1.604-0.077 2.966-0.164 4.072-0.183 2.212-4e-3 3.391-5e-3 3.391-5e-3s-1.177 0.052-3.385 0.149c-1.101 0.066-2.457 0.21-4.049 0.355-1.584 0.222-3.408 0.438-5.424 0.848-4.034 0.768-8.873 2.067-14.119 4.306-5.245 2.217-10.823 5.491-16.832 9.221-0.396 0.243-0.798 0.496-1.198 0.744 2e-3 4e-3 5e-3 0.016 6e-3 0.019 4e-3 -6e-3 4e-3 -0.012-7e-3 -0.011 0.067 0.12 0.05 0.219 0.438 0.46 0.396 0.242 1.307 0.488 2.58 0.673 0.639 0.1 1.371 0.197 2.198 0.352 0.832 0.167 1.777 0.374 2.836 0.883 0.526 0.262 1.078 0.615 1.578 1.091l0.185 0.183 0.138 0.145 0.051 0.063 0.231 0.29c0.234 0.302 0.403 0.568 0.556 0.837 0.625 1.107 0.882 2.296 1.032 3.303 0.15 1.008 0.232 1.905 0.438 2.498 0.206 0.59 0.431 0.903 1.056 1.248l0.117 0.06 0.03 0.015 0.014 8e-3c0.065 0.025-0.072-0.025-0.049-0.016l0.091 0.034 0.364 0.139c0.219 0.07 0.339 0.11 0.558 0.169 0.432 0.107 0.888 0.202 1.372 0.263 0.959 0.133 1.98 0.193 3.016 0.206 1.039 0.011 2.097-0.024 3.157-0.095 0.523-0.035 1.078-0.08 1.571-0.138l1.632-0.206c2.087-0.295 4.255-0.741 6.348-1.204 2.095-0.47 4.187-0.969 6.17-1.453 1.923-0.5 3.778-1.239 5.549-1.905 1.772-0.672 3.479-1.289 5.107-1.703 1.625-0.417 3.18-0.611 4.55-0.534 1.373 0.072 2.537 0.42 3.419 0.828 0.888 0.411 1.495 0.882 1.908 1.189 0.392 0.338 0.6 0.518 0.6 0.518s-0.22-0.164-0.633-0.472c-0.433-0.276-1.066-0.697-1.959-1.034-0.889-0.336-2.03-0.588-3.343-0.561-1.314 0.02-2.782 0.31-4.321 0.826-1.543 0.512-3.161 1.231-4.874 2.026-1.718 0.789-3.52 1.669-5.553 2.359-1.987 0.64-4.006 1.278-6.101 1.908-2.101 0.625-4.213 1.226-6.459 1.71l-1.625 0.325c-0.593 0.113-1.13 0.193-1.697 0.273-1.12 0.156-2.242 0.274-3.369 0.343-1.129 0.065-2.261 0.084-3.416 8e-3 -0.47-0.026-0.951-0.086-1.436-0.162 0.011 0.454 0.023 0.974 0.037 1.557 0.033 0.565-1e-3 1.234-0.049 1.966 0.111 0.422 0.239 0.857 0.41 1.32 0.493 1.357 1.242 2.87 2.234 4.451 1.98 3.168 4.912 6.589 8.403 9.912 3.495 3.32 7.537 6.594 11.852 9.422 1.079 0.703 2.177 1.376 3.293 1.98 0.579 0.31 1.201 0.691 1.746 1.084 0.55 0.391 1.076 0.803 1.583 1.231 2.018 1.715 3.774 3.652 5.179 5.738 1.411 2.076 2.461 4.317 3 6.564 0.58 2.241 0.552 4.479 0.186 6.441-0.374 1.971-1.128 3.665-1.942 5.047-0.374 0.715-0.853 1.301-1.229 1.883-0.44 0.537-0.824 1.045-1.205 1.475-0.39 0.42-0.739 0.795-1.043 1.122-0.313 0.316-0.597 0.568-0.817 0.781-0.447 0.42-0.685 0.644-0.685 0.644s0.228-0.235 0.654-0.675c0.211-0.223 0.482-0.487 0.78-0.815 0.286-0.339 0.616-0.728 0.985-1.163 0.358-0.444 0.715-0.966 1.125-1.515 0.345-0.593 0.79-1.19 1.125-1.908 0.736-1.392 1.39-3.071 1.66-4.977 0.263-1.898 0.192-4.014-0.454-6.11-0.608-2.101-1.699-4.178-3.132-6.091-1.424-1.921-3.19-3.695-5.168-5.224-0.495-0.381-1.005-0.744-1.527-1.081-0.525-0.34-1.026-0.618-1.609-0.898-1.207-0.578-2.374-1.217-3.521-1.886-4.577-2.689-8.861-5.821-12.645-9.073-3.775-3.259-7.033-6.674-9.39-10.054-0.174-0.249-0.332-0.497-0.496-0.746-0.053 0.397-0.106 0.797-0.161 1.208-0.153 1.022-0.397 2.069-0.603 3.161-0.214 1.09-0.427 2.218-0.749 3.352-0.299 1.139-0.606 2.309-0.92 3.504-0.375 1.177-0.759 2.379-1.148 3.601-0.374 1.226-0.895 2.428-1.345 3.666-0.439 1.244-1.003 2.459-1.549 3.69-0.277 0.617-0.556 1.235-0.835 1.856l-0.89 1.799c-0.585 1.203-1.225 2.408-1.843 3.612-1.249 2.398-2.52 4.767-3.707 7.122-1.208 2.348-2.281 4.698-3.211 7.014-0.867 2.331-1.627 4.629-1.974 6.881-0.086 0.561-0.218 1.112-0.262 1.663-0.038 0.551-0.074 1.095-0.11 1.63-0.018 0.267-0.036 0.533-0.055 0.796 0 0.263 0.022 0.523 0.031 0.782 0.024 0.517 0.048 1.026 0.071 1.523-2e-3 0.502 0.104 0.98 0.179 1.451 0.079 0.471 0.156 0.932 0.232 1.381 0.054 0.455 0.184 0.88 0.31 1.294 0.121 0.415 0.239 0.818 0.354 1.209 0.122 0.388 0.208 0.776 0.35 1.13 0.147 0.352 0.29 0.69 0.427 1.016 0.273 0.652 0.525 1.252 0.753 1.794 1.125 2.066 1.768 3.248 1.768 3.248s-0.699-1.153-1.921-3.171c-0.254-0.534-0.535-1.124-0.842-1.767-0.153-0.323-0.312-0.658-0.478-1.006-0.16-0.351-0.265-0.739-0.407-1.126-0.134-0.391-0.273-0.794-0.415-1.21-0.148-0.415-0.3-0.842-0.377-1.301-0.099-0.455-0.199-0.921-0.302-1.398-0.1-0.479-0.23-0.965-0.253-1.477-0.047-0.51-0.096-1.03-0.145-1.561-0.022-0.265-0.056-0.533-0.068-0.804 5e-3 -0.272 0.011-0.545 0.017-0.821 0.011-0.553 0.024-1.116 0.036-1.687 0.02-0.571 0.128-1.142 0.19-1.727 0.252-2.343 0.922-4.741 1.701-7.173 0.84-2.412 1.826-4.86 2.932-7.282 1.088-2.433 2.252-4.868 3.379-7.302 0.556-1.219 1.125-2.419 1.657-3.657l0.806-1.838c0.24-0.608 0.479-1.215 0.717-1.819 0.473-1.215 0.963-2.411 1.333-3.639 0.38-1.222 0.83-2.403 1.136-3.609 0.323-1.199 0.639-2.378 0.949-3.533 0.249-1.168 0.493-2.31 0.73-3.422 0.261-1.107 0.414-2.2 0.57-3.256 0.149-1.056 0.338-2.07 0.438-3.052 0.085-0.981 0.166-1.922 0.244-2.817 0.038-0.447 0.076-0.882 0.113-1.305 0.021-0.419 0.014-0.82 0.023-1.211 0.01-0.674 0.019-1.303 0.028-1.899-0.215-0.78-0.362-1.524-0.446-2.207-0.157-1.333-0.09-2.388 0.018-3.167 0.027-0.167 0.049-0.309 0.07-0.442-0.487-0.507-0.874-1.097-1.12-1.666-0.542-1.256-0.671-2.316-0.889-3.157-0.374-1.702-1.018-2.427-1.736-2.698-0.915-0.377-2.394-0.471-3.75-0.6-1.382-0.138-2.806-0.316-4.144-0.939-1.147-0.508-2.027-1.42-2.505-2.171-4.454 2.786-9.192 5.688-14.444 8.276-0.928 0.458-1.864 0.919-2.804 1.384-0.935 0.426-1.875 0.855-2.822 1.286l-1.424 0.65-1.495 0.641c-0.982 0.408-1.969 0.818-2.962 1.231-3.978 1.617-8.06 3.175-12.18 4.761-2.644 1.019-5.308 2.056-7.968 3.129 4.019 0.815 8.409 2.235 12.75 4.345 2.531 1.229 5.046 2.681 7.479 4.33 2.428 1.662 4.779 3.489 6.945 5.626 0.544 0.555 1.061 1.076 1.599 1.795l0.208 0.3c0.106 0.161 0.107 0.179 0.165 0.276l0.27 0.47 0.546 1.055c0.658 1.38 1.181 2.781 1.623 4.187 0.862 2.817 1.415 5.651 1.673 8.418 0.271 2.765 0.237 5.462-0.055 7.987-0.285 2.526-0.886 4.874-1.675 6.939-0.792 2.068-1.801 3.844-2.863 5.281-1.067 1.433-2.14 2.569-3.121 3.385-0.467 0.434-0.931 0.764-1.326 1.06-0.388 0.306-0.74 0.534-1.03 0.712-0.573 0.365-0.878 0.559-0.878 0.559s0.292-0.214 0.839-0.615c0.277-0.195 0.611-0.445 0.976-0.774 0.372-0.319 0.809-0.674 1.242-1.133 0.913-0.866 1.892-2.051 2.837-3.511 0.939-1.463 1.799-3.24 2.429-5.276 0.628-2.033 1.054-4.314 1.169-6.747 0.12-2.432-0.017-5.007-0.448-7.624-0.417-2.616-1.123-5.276-2.1-7.853-0.498-1.282-1.068-2.545-1.731-3.727l-0.503-0.838c-0.206-0.3-0.406-0.636-0.538-0.769-0.356-0.419-0.883-0.907-1.384-1.351-1.364-1.184-2.848-2.272-4.374-3.283-0.01 0.349-0.025 0.712-0.054 1.091-0.034 0.727-0.128 1.504-0.23 2.328-0.11 0.822-0.26 1.688-0.468 2.59-0.06 0.228-0.12 0.457-0.181 0.688l-0.108 0.405-0.116 0.311c-0.128 0.366-0.383 0.961-0.627 1.403-0.495 0.913-1.122 1.701-1.723 2.413l-0.907 1.069c-0.301 0.34-0.604 0.681-0.956 1.032-0.667 0.676-1.317 1.26-1.89 1.861-0.563 0.602-1.069 1.206-1.433 1.85-0.163 0.269-0.351 0.687-0.473 0.992-0.107 0.322-0.229 0.632-0.293 0.963-0.166 0.644-0.228 1.267-0.284 1.818-0.049 0.552-0.075 1.04-0.097 1.441-0.047 0.803-0.074 1.262-0.074 1.262s-0.039-0.458-0.108-1.259c-0.037-0.4-0.081-0.887-0.112-1.451-0.025-0.564-0.054-1.208 0.022-1.919 0.016-0.353 0.098-0.732 0.176-1.128 0.101-0.398 0.182-0.703 0.356-1.144 0.305-0.786 0.772-1.542 1.284-2.278 0.518-0.727 1.099-1.426 1.607-2.12 0.247-0.325 0.498-0.704 0.752-1.091l0.716-1.145c0.478-0.767 0.894-1.5 1.158-2.228 0.13-0.377 0.206-0.618 0.307-1.106l0.07-0.324c-0.018 0.017 0.018-0.166 0.024-0.239l0.08-0.584c0.083-0.792 0.123-1.577 0.132-2.327 0-0.747 2e-3 -1.458-0.048-2.107-0.029-0.652-0.095-1.238-0.155-1.754-0.053-0.525-0.146-0.88-0.192-1.221-0.033-0.169-0.072-0.334-0.109-0.483-1.888-1.034-3.801-1.95-5.704-2.727-4.846-1.981-9.606-3.057-13.686-3.436-2.042-0.197-3.916-0.192-5.566-0.148-0.988 0.053-1.894 0.131-2.716 0.221-1.916 0.913-3.813 1.867-5.678 2.879-7.87 4.252-15.14 9.622-20.537 16.357l-0.556 0.688-0.14 0.172-0.069 0.086c7e-3 -6e-3 -0.114 0.135-2e-3 8e-3l-0.23 0.32-0.921 1.273c-0.569 0.883-1.16 1.743-1.664 2.666-1.048 1.815-1.97 3.707-2.747 5.688-1.586 3.939-2.685 8.164-3.596 12.51-0.446 2.18-0.857 4.394-1.241 6.608-0.181 1.097-0.423 2.337-0.539 3.277l-0.211 1.499-0.146 1.516c-0.371 4.043-0.238 8.19 0.093 12.309 0.366 4.133 0.958 8.252 1.641 12.348 0.36 2.069 0.716 4.115 1.069 6.137 0.182 1.024 0.363 2.041 0.543 3.052l0.542 2.616c1.635 6.816 13.286 51.082 14.143 55.251 0.893 4.189 1.482 7.732 1.757 10.418 0.064 0.732 0.12 1.378 0.169 1.936 0.026 0.436 0.047 0.804 0.065 1.1 0.031 0.57 0.048 0.865 0.048 0.865l-31.081 0.23347zm-2.1122e-14 -330.35c0.51907-1.3046 1.0937-2.6774 1.719-4.0887l-0.072 0.021s-0.147-0.59-0.405-1.621c-0.079-0.598-0.199-1.345-0.266-2.155-3e-3 -0.775-0.093-1.664-0.026-2.599 0.031-0.943 0.088-1.956 0.216-3.012 0.086-1.064 0.284-2.161 0.444-3.303 0.208-1.132 0.401-2.304 0.664-3.477 0.249-1.177 0.518-2.366 0.82-3.546 0.582-2.365 1.255-4.701 1.921-6.877 0.675-2.173 1.337-4.189 1.949-5.901 0.596-1.716 1.136-3.131 1.515-4.119 0.385-0.986 0.605-1.55 0.605-1.55s-0.176 0.578-0.482 1.591c-0.303 1.015-0.729 2.464-1.19 4.217-0.477 1.748-0.978 3.801-1.48 6.006-0.492 2.207-0.978 4.567-1.369 6.939-0.207 1.184-0.38 2.372-0.535 3.541-0.168 1.167-0.266 2.321-0.383 3.433-0.068 1.112-0.178 2.188-0.18 3.2-0.045 1.017-0.023 1.967 0.016 2.839 4e-3 0.835 0.134 1.564 0.192 2.232 1.561-3.127 3.369-6.331 5.462-9.378 1.174-1.651 2.365-3.291 3.686-4.789 1.288-1.522 2.669-2.924 4.075-4.2 0.722-0.617 1.405-1.253 2.146-1.79 0.362-0.278 0.721-0.552 1.075-0.824 0.37-0.248 0.737-0.494 1.098-0.736 1.44-0.973 2.895-1.748 4.269-2.378 0.672-0.349 1.37-0.565 2.007-0.823 0.636-0.266 1.267-0.437 1.857-0.607 1.166-0.382 2.228-0.533 3.085-0.719 0.863-0.156 1.555-0.191 2.019-0.257 0.466-0.053 0.715-0.081 0.715-0.081s-0.248 0.04-0.711 0.114c-0.461 0.088-1.147 0.155-1.999 0.35-0.845 0.226-1.889 0.424-3.026 0.857-0.575 0.195-1.189 0.392-1.805 0.685-0.618 0.285-1.292 0.527-1.938 0.903-1.322 0.683-2.711 1.509-4.076 2.528-0.342 0.253-0.688 0.509-1.039 0.769-0.334 0.281-0.672 0.567-1.013 0.855-0.698 0.556-1.338 1.211-2.014 1.845-1.313 1.309-2.594 2.738-3.781 4.282-1.219 1.518-2.307 3.177-3.375 4.839-2.384 3.843-4.327 7.909-5.904 11.749 0.021 0.064 0.033 0.101 0.033 0.101l-0.086 0.026c-1.165 2.848-2.134 5.572-2.899 7.965-0.62339 1.9394-1.1309 3.6708-1.534 5.1098l5.8025e-11 -8.1661zm1.0206e-8 54.548c0.37938-0.19351 0.75851-0.38922 1.137-0.58687 0.748-0.396 1.497-0.792 2.242-1.187 0.166-0.086 0.416-0.228 0.513-0.27l0.545-0.325 1.08-0.649c1.268-0.869 2.574-1.833 3.721-2.895 0.341-0.299 0.655-0.61 0.978-0.917-0.02-0.056-0.034-0.098-0.061-0.174-0.087-0.251-0.281-0.907-0.37-1.473-0.235-1.228-0.29-2.881-0.326-4.768-0.037-1.891-0.087-4.041-0.42-6.309-0.043-0.278-0.088-0.558-0.132-0.841-0.058-0.292-0.116-0.586-0.176-0.881-0.122-0.558-0.264-1.143-0.429-1.727-0.324-1.17-0.715-2.355-1.12-3.544-0.814-2.378-1.678-4.789-2.189-7.144-0.524-2.351-0.617-4.649-0.288-6.549 0.327-1.904 0.983-3.376 1.515-4.345 0.265-0.487 0.491-0.857 0.659-1.102 0.161-0.249 0.246-0.381 0.246-0.381s-0.076 0.139-0.217 0.398c-0.149 0.255-0.348 0.641-0.574 1.142-0.455 0.996-0.99 2.492-1.169 4.349-0.181 1.855 0.069 4.031 0.739 6.256 0.658 2.231 1.671 4.517 2.664 6.844 0.496 1.165 0.984 2.346 1.413 3.541 0.216 0.597 0.411 1.197 0.595 1.817 0.082 0.296 0.163 0.59 0.244 0.882 0.073 0.306 0.145 0.61 0.216 0.912 0.538 2.383 0.76 4.651 0.941 6.533 0.17 1.822 0.343 3.272 0.588 4.205 0.94-1.031 1.815-2.034 2.589-2.989 3.209-3.951 4.971-6.89 4.971-6.89s-1.424 3.108-4.214 7.441c-0.697 1.082-1.494 2.231-2.369 3.429-0.897 1.18-1.862 2.421-2.966 3.629-1.076 1.234-2.308 2.393-3.694 3.569l-1.009 0.769-0.506 0.383-0.572 0.392c-0.708 0.481-1.419 0.964-2.129 1.447-0.88157 0.59214-1.7718 1.1753-2.666 1.7449l-2.4709e-7 -3.736zm-1.0206e-8 19.213c0.094434 0.32028 0.18202 0.63446 0.272 0.93716 0.147 0.634 0.314 1.219 0.405 1.778 0.23 1.102 0.307 2.042 0.339 2.692 0.031 0.323-9e-3 0.584-6e-3 0.756-7e-3 0.172-0.01 0.264-0.01 0.264s-0.016-0.091-0.046-0.262c-0.039-0.17-0.053-0.42-0.151-0.729-0.15603-0.58534-0.40058-1.3987-0.803-2.331l-4.1792e-12 -3.1051zm-3.8843e-13 25.974c1.0627-0.24578 2.181-0.48096 3.353-0.70023-1.3224 3.8702-2.3468 6.7627-3.353 9.0787l1.2368e-10 -8.3785zm4.1576e-12 -57.499c1.7991 1.5633 2.8283 2.6752 3.593 4.065 1.557 2.832 0.954 5.295-1.413 6.196-0.76252 0.29028-1.505 0.36417-2.18 0.22506l5.2465e-12 -10.486zm-3.9935e-12 25.562v-4.0561c0.24433-0.26637 0.54073-0.5238 0.891-0.76753 0.827-0.576 3.12-1.789 6.644-2.739-0.898 3.508-1.383 5.141-2.439 6.58-1.541 2.099-3.546 2.495-5.009 1.07-0.029656-0.028886-0.058657-0.058006-0.087-0.087351zm0 66.132v-8.8756c0.76368-0.72932 1.7718-0.94653 2.865-0.5552 1.927 0.689 2.636 2.56 1.31 4.8-0.46585 0.79068-1.8184 2.564-4.175 4.6308zm119.9-121.36c-4.159-3.043-4.532-8.068 0.275-12.534 1.858-1.727 7.152-5.562 15.609-9.176-1.005 9.066-1.637 13.31-3.765 17.273-3.104 5.782-7.966 7.475-12.119 4.437zm-102.87 72.841c-2.797-3.764-1.769-8.232 3.611-10.82 2.079-1.002 7.711-2.91 16.034-3.776-3.312 7.609-5.002 11.127-7.918 14-4.254 4.191-8.935 4.354-11.727 0.596zm12.959-108.51c1.531 2.432 0.693 5.115-2.716 6.442-1.318 0.515-4.85 1.415-9.976 1.553 2.382-4.494 3.581-6.564 5.498-8.183 2.797-2.36 5.665-2.239 7.194 0.188zm-7.369 19.966c0.722-0.783 2.81-2.554 6.227-4.336-0.128 3.822-0.256 5.615-1.018 7.339-1.112 2.516-3.091 3.379-4.922 2.242-1.835-1.138-2.153-3.226-0.287-5.245zm74.35 19.084c-2.519-0.681-3.61-2.987-2.15-5.971 0.564-1.155 2.367-3.93 5.704-7.175 1.175 4.467 1.648 6.586 1.364 8.846-0.415 3.298-2.405 4.982-4.918 4.3zm-5.475-32.729c-0.104 5.894-0.254 8.661-1.386 11.339-1.652 3.907-4.678 5.287-7.53 3.579-2.858-1.707-3.4-4.918-0.574-8.079 1.092-1.223 4.267-4.007 9.49-6.839zm-81.364-26.189c-3.142-2.353-3.384-6.183 0.315-9.544 1.429-1.3 5.493-4.175 11.964-6.858-0.841 6.897-1.357 10.124-3.012 13.124-2.413 4.379-6.13 5.627-9.267 3.278zm32.427 12.28c-3.553 0.551-5.897-1.016-5.939-3.834-0.042-2.823 2.032-4.644 5.571-4.016 1.367 0.243 4.79 1.292 9.161 3.796-4.294 2.553-6.358 3.677-8.793 4.054zm36.126 3.571c0.199-5.15 4.157-8.268 10.548-6.777 2.47 0.576 8.608 2.823 16.332 7.815-8.08 4.234-11.952 6.082-16.428 6.533-6.53 0.657-10.651-2.43-10.452-7.571zm22.607 28.49c-1.03-1.932-3.059-7.195-4.206-15.046 7.341 2.84 10.741 4.304 13.577 6.955 4.137 3.867 4.475 8.297 1.023 11.089-3.457 2.797-7.731 1.999-10.394-2.998zm5.287 32.945c5.706 2.208 8.349 3.346 10.554 5.407 3.216 3.006 3.478 6.45 0.795 8.62-2.687 2.175-6.01 1.554-8.08-2.331-0.801-1.501-2.378-5.592-3.269-11.696zm41.401-16.409c-3.295 1.043-6.162-0.749-6.67-5.122-0.196-1.69-0.17-6.074 1.23-12.082 4.505 4.14 6.55 6.166 7.85 8.889 1.895 3.974 0.88 7.276-2.41 8.315zm-16.69 1.839c4.505 4.14 6.55 6.166 7.85 8.889 1.895 3.974 0.88 7.275-2.41 8.315-3.295 1.043-6.162-0.749-6.67-5.122-0.196-1.69-0.17-6.074 1.23-12.082zm17.575 48.475c-3.103 1.86-6.456 0.729-8.032-3.6-0.61-1.673-1.644-6.144-1.673-12.601 5.589 3.124 8.162 4.692 10.145 7.15 2.892 3.587 2.659 7.195-0.44 9.051zm12.201-46.08c-3.172 3.052-6.626 3.131-8.651 0.337-2.028-2.798-1.233-6.084 2.756-7.946 1.542-0.719 5.71-2.078 11.853-2.644-2.507 5.581-3.784 8.16-5.958 10.253zm14.855 49.586c1.542-0.72 5.71-2.078 11.853-2.645-2.507 5.581-3.784 8.16-5.958 10.253-3.172 3.053-6.626 3.132-8.651 0.337-2.028-2.798-1.233-6.084 2.756-7.945zm17.87 27.167c1.702 0.016 6.048 0.586 11.836 2.721-4.667 3.956-6.931 5.734-9.795 6.685-4.177 1.388-7.328-0.028-7.951-3.422-0.625-3.4 1.509-6.022 5.91-5.984zm-8.07 50.724c1.569 1.307 5.173 5.142 8.927 11.527-7.344 0.126-10.798 0.057-14.183-1.236-4.937-1.888-6.786-5.599-4.785-9.226 2.004-3.634 5.98-4.448 10.041-1.065zm-22.29-18.356c-4.966-0.442-7.6-3.334-6.717-7.139 0.884-3.813 4.282-5.576 8.838-3.551 1.759 0.783 6.017 3.335 11.067 8.163-6.632 2.004-9.785 2.83-13.188 2.527zm-35.703 2.496c2.537-2.98 6.366-2.982 9.48 0.91 1.203 1.505 3.811 5.729 6.075 12.338-6.811-1.269-9.99-1.986-12.874-3.821-4.206-2.674-5.215-6.454-2.681-9.427zm17.461 2.897c-3.797-2.912-4.443-6.611-1.769-9.24 2.677-2.637 6.338-2.316 8.988 1.668 1.023 1.54 3.161 5.798 4.769 12.309-6.406-1.788-9.385-2.74-11.988-4.737zm-31.158-118.81c4.794 1.025 7.02 4.162 5.703 7.772-1.318 3.617-4.845 4.93-9.05 2.409-1.624-0.974-5.476-3.974-9.828-9.289 6.713-1.165 9.89-1.594 13.175-0.892zm-64.406-1.639c-1.029-1.932-3.058-7.194-4.205-15.046 7.34 2.84 10.741 4.305 13.576 6.955 4.138 3.867 4.475 8.297 1.024 11.089-3.457 2.797-7.732 1.999-10.395-2.998zm-16.302 14.169c-0.534-2.347-1.165-8.517-0.112-17.178 6.967 5.136 10.15 7.672 12.392 11.304 3.271 5.298 2.349 10.095-2.12 12.059-4.476 1.968-8.78-0.114-10.16-6.185zm-15.586-40.535c1.726 2.732 1.273 5.227-1.035 6.27-2.313 1.046-4.559-0.012-5.308-3.155-0.29-1.216-0.651-4.415-0.15-8.917 3.644 2.629 5.31 3.929 6.493 5.802zm0.991 130.55c-1.487 1.406-3.476 1.191-4.874-1.005-0.542-0.85-1.659-3.192-2.463-6.752 3.468 1.043 5.079 1.593 6.474 2.709 2.034 1.626 2.346 3.645 0.863 5.048zm14.812-56.271c-3.539 0.771-5.215 1.07-6.975 0.772-2.568-0.435-3.821-2.049-3.205-3.996 0.619-1.95 2.462-2.728 4.75-1.485 0.886 0.481 2.999 1.986 5.43 4.709zm-24.335-11.653c3.493 1.989 5.1 2.985 6.332 4.538 1.798 2.264 1.635 4.527-0.319 5.677-1.957 1.151-4.056 0.426-5.024-2.298-0.375-1.054-1.003-3.865-0.989-7.917zm9.589-49.447c2.846 1.532 3.677 3.927 2.18 5.97-1.501 2.048-3.977 2.23-6.174-0.14-0.85-0.916-2.736-3.525-4.513-7.692 4.466 0.499 6.555 0.813 8.507 1.862zm-8.393-44.245c3.815 3.559 5.545 5.3 6.636 7.63 1.591 3.399 0.706 6.208-2.105 7.074-2.818 0.868-5.251-0.678-5.657-4.409-0.156-1.443-0.107-5.18 1.126-10.295zm9.529-3.386c3.038 2.834 4.415 4.22 5.284 6.075 1.266 2.706 0.562 4.943-1.676 5.632-2.244 0.691-4.181-0.54-4.504-3.51-0.125-1.149-0.085-4.125 0.896-8.197zm56.258 67.233c-2 1.228-4.183 0.52-5.237-2.276-0.407-1.081-1.112-3.973-1.177-8.161 3.648 1.986 5.328 2.985 6.632 4.564 1.901 2.305 1.778 4.646-0.218 5.873zm16.437 0c-2 1.228-4.183 0.52-5.237-2.276-0.407-1.081-1.112-3.973-1.177-8.161 3.648 1.986 5.328 2.985 6.632 4.564 1.901 2.305 1.778 4.646-0.218 5.873zm5.455 3.101c0.971 0.626 3.259 2.53 5.805 5.856-4.114 0.576-6.058 0.774-8.046 0.281-2.9-0.719-4.195-2.674-3.321-4.847 0.874-2.178 3.051-2.909 5.562-1.29zm-39.171-31.612c-2.356 1.449-4.928 0.613-6.17-2.68-0.479-1.274-1.309-4.681-1.387-9.615 4.299 2.34 6.277 3.516 7.814 5.377 2.24 2.716 2.094 5.474-0.257 6.918zm-27.395-29.884c-2.085 0.108-3.489-1.375-3.121-4.008 0.142-1.018 0.824-3.577 2.557-6.876 2.004 3.106 2.89 4.601 3.236 6.39 0.503 2.611-0.591 4.387-2.672 4.494zm26.493 6.554c-2.07-0.278-3.177-1.995-2.33-4.515 0.327-0.974 1.469-3.364 3.78-6.287 1.397 3.421 1.993 5.055 2.004 6.877 0.013 2.658-1.389 4.203-3.454 3.925zm24.75-8.875c-2.07-0.278-3.177-1.995-2.33-4.515 0.327-0.974 1.469-3.364 3.78-6.287 1.397 3.421 1.993 5.055 2.004 6.877 0.013 2.658-1.389 4.203-3.454 3.925zm-4.82 4.252c-1.36 1.584-3.402 1.577-5.055-0.505-0.639-0.805-2.021-3.064-3.215-6.594 3.631 0.691 5.326 1.081 6.86 2.064 2.236 1.437 2.768 3.454 1.41 5.035zm-3.609 34.213c2.623 0.428 3.914 2.067 3.296 4.058-0.618 1.994-2.494 2.801-4.838 1.547-0.907-0.484-3.074-2.007-5.573-4.772 3.606-0.809 5.316-1.125 7.115-0.833zm-40.934-18.693c-1.472-2.214-1.149-4.275 0.73-5.177 1.882-0.904 3.75-0.078 4.426 2.493 0.262 0.994 0.621 3.618 0.295 7.331-3.047-2.093-4.442-3.13-5.451-4.647zm6.347 27.772c-3.047-2.093-4.442-3.13-5.451-4.647-1.472-2.214-1.148-4.275 0.73-5.177 1.882-0.904 3.75-0.078 4.426 2.493 0.262 0.994 0.621 3.618 0.295 7.331zm50.098 34c2.243-1.427 4.297-1.062 5.161 0.834 0.866 1.9 2e-3 3.751-2.582 4.375-0.998 0.242-3.629 0.548-7.335 0.148 2.154-3.005 3.219-4.378 4.756-5.357zm5.528-2.207c-1.608-1.332-1.638-3.374 0.416-5.063 0.793-0.653 3.026-2.076 6.536-3.331-0.628 3.642-0.988 5.343-1.943 6.894-1.397 2.262-3.404 2.83-5.009 1.5zm70.858 44.315c-2.073-0.239-3.212-1.935-2.413-4.47 0.309-0.98 1.405-3.391 3.661-6.357 1.461 3.395 2.088 5.017 2.133 6.838 0.063 2.657-1.31 4.228-3.381 3.989zm15.375 17.5c-2.073-0.239-3.212-1.935-2.413-4.47 0.309-0.98 1.405-3.391 3.661-6.357 1.461 3.395 2.088 5.017 2.133 6.838 0.063 2.657-1.31 4.228-3.381 3.989zm-13.788-1.72c0.309-0.98 1.405-3.391 3.661-6.357 1.461 3.395 2.088 5.017 2.133 6.838 0.063 2.657-1.31 4.228-3.38 3.989-2.074-0.239-3.213-1.935-2.414-4.47zm14.663 9.322c0.326 0.975 0.854 3.57 0.769 7.296-3.176-1.89-4.635-2.835-5.741-4.283-1.611-2.115-1.422-4.192 0.394-5.214 1.82-1.024 3.737-0.321 4.578 2.201zm-12.478 9.546c-3.176-1.89-4.635-2.835-5.741-4.283-1.612-2.115-1.422-4.192 0.394-5.214 1.82-1.024 3.737-0.321 4.578 2.201 0.326 0.975 0.853 3.57 0.769 7.296zm-1.5 37.217c-3.176-1.89-4.635-2.836-5.741-4.283-1.612-2.115-1.422-4.192 0.394-5.214 1.82-1.025 3.737-0.321 4.578 2.201 0.326 0.975 0.853 3.57 0.769 7.296zm10.393-17.144c-1.615 3.325-2.433 4.859-3.781 6.084-1.97 1.785-4.056 1.773-5.229 0.05-1.175-1.726-0.636-3.696 1.805-4.748 0.943-0.407 3.485-1.154 7.205-1.386zm-21.015 44.565c-3.544 1.631-6.459 0.696-7.342-2.232-0.885-2.935 0.736-5.456 4.617-5.855 1.501-0.154 5.388-0.08 10.698 1.233-3.725 3.945-5.545 5.732-7.973 6.854zm-19.632-24.754c2.184-0.637 7.968-1.588 16.202-1.09-4.449 6.867-6.66 10.014-9.955 12.339-4.811 3.387-9.39 2.794-11.497-1.306-2.113-4.112-0.396-8.293 5.25-9.943zm-18.089-89.391c0.858 0.564 2.879 2.277 5.117 5.257-3.665 0.479-5.396 0.639-7.161 0.186-2.574-0.665-3.71-2.415-2.915-4.341 0.796-1.93 2.738-2.563 4.959-1.102zm-29.315 54.929c1.719-1.186 3.692-0.66 4.759 1.775 0.413 0.941 1.175 3.478 1.43 7.196-3.335-1.594-4.874-2.402-6.107-3.743-1.797-1.96-1.798-4.046-0.082-5.228zm-9.315 7.52c1.196 0.787 4.013 3.175 7.133 7.329-5.109 0.667-7.522 0.891-9.982 0.258-3.588-0.927-5.172-3.364-4.064-6.05 1.11-2.691 3.817-3.573 6.913-1.537zm-16.458 75.459c-0.159-3.702 1.711-5.927 4.603-5.65 2.897 0.277 4.531 2.609 3.485 6.165-0.404 1.373-1.868 4.764-4.932 8.959-2.128-4.693-3.044-6.936-3.156-9.474zm65.892-29.484c3.438 0.329 5.376 3.096 4.136 7.315-0.48 1.63-2.216 5.653-5.853 10.63-2.524-5.568-3.612-8.229-3.744-11.24-0.189-4.394 2.03-7.034 5.461-6.705zm16.94 15.481c-0.479 1.63-2.215 5.653-5.852 10.631-2.525-5.569-3.613-8.23-3.745-11.241-0.189-4.393 2.031-7.034 5.462-6.704 3.438 0.328 5.376 3.096 4.135 7.314zm-3.402 22.336c3.994-1.84 7.278-0.788 8.275 2.512 1 3.306-0.826 6.149-5.2 6.6-1.69 0.175-6.071 0.093-12.056-1.384 4.195-4.447 6.245-6.463 8.981-7.728zm16.043-12.155c0.999 3.306-0.827 6.149-5.201 6.6-1.69 0.174-6.071 0.093-12.055-1.384 4.194-4.447 6.244-6.463 8.981-7.728 3.993-1.84 7.278-0.788 8.275 2.512zm-64.756-18.974c4.194-4.447 6.244-6.463 8.981-7.727 3.993-1.841 7.278-0.788 8.274 2.511 1.001 3.306-0.826 6.149-5.2 6.601-1.69 0.174-6.07 0.093-12.055-1.385zm17.285-24.688c-1.69 0.174-6.07 0.093-12.055-1.384 4.194-4.448 6.244-6.464 8.981-7.728 3.993-1.841 7.278-0.788 8.275 2.511 1 3.307-0.827 6.149-5.201 6.601zm-18.241 63.888c3.994-1.841 7.278-0.788 8.275 2.511 1 3.307-0.826 6.149-5.2 6.601-1.69 0.174-6.071 0.093-12.056-1.384 4.195-4.448 6.245-6.464 8.981-7.728zm-23.052-5.039c3.994-1.841 7.279-0.788 8.275 2.511 1 3.307-0.826 6.149-5.2 6.601-1.69 0.174-6.071 0.093-12.056-1.384 4.195-4.448 6.245-6.464 8.981-7.728zm17.269-28.309c1.779 2.961 0.704 6.164-3.427 7.673-1.596 0.582-5.863 1.576-12.027 1.608 2.978-5.339 4.472-7.795 6.816-9.69 3.422-2.763 6.864-2.546 8.638 0.409zm-14.844-16.031c1.778 2.961 0.704 6.164-3.427 7.673-1.596 0.583-5.863 1.576-12.027 1.609 2.978-5.339 4.472-7.796 6.816-9.691 3.421-2.763 6.864-2.546 8.638 0.409zm54.374-114.8c-2.967 0.626-5.015-0.584-5.18-2.956-0.166-2.375 1.497-4.006 4.507-3.641 1.163 0.141 4.096 0.867 7.894 2.775-3.501 2.348-5.188 3.39-7.221 3.822zm40.077 8.154c-4.549 0.669-6.699 0.903-8.903 0.374-3.216-0.776-4.664-2.929-3.714-5.342 0.952-2.416 3.354-3.243 6.147-1.469 1.079 0.684 3.627 2.775 6.47 6.437zm-4.004-13.334c1.149-2.918 4.049-3.915 7.42-1.774 1.302 0.826 4.378 3.351 7.811 7.77-5.492 0.808-8.087 1.09-10.748 0.452-3.882-0.936-5.63-3.536-4.483-6.448zm-17.667-9.963c-3.665 0.479-5.396 0.639-7.16 0.186-2.574-0.666-3.711-2.415-2.916-4.341 0.796-1.931 2.738-2.563 4.959-1.102 0.859 0.564 2.879 2.277 5.117 5.257zm12.201-12.625c-3.664 0.479-5.395 0.639-7.16 0.186-2.574-0.666-3.71-2.415-2.916-4.341 0.796-1.931 2.738-2.563 4.959-1.102 0.859 0.564 2.879 2.277 5.117 5.257zm-92.54-41.764c0.866 0.554 2.907 2.242 5.181 5.195-3.659 0.523-5.388 0.704-7.157 0.272-2.583-0.633-3.74-2.369-2.969-4.305 0.773-1.94 2.707-2.596 4.945-1.162zm-19.546-12.94c-0.672 0.778-2.632 2.558-5.877 4.391 0-3.696 0.066-5.433 0.745-7.124 0.993-2.466 2.875-3.366 4.682-2.328 1.811 1.04 2.186 3.048 0.45 5.061zm21.574 93.207c0.63-2.323 2.97-8.066 7.965-15.22 3.74 7.805 5.361 11.539 5.635 15.799 0.401 6.213-2.665 10.016-7.533 9.653-4.876-0.365-7.698-4.223-6.067-10.232zm-26.819 73.833c0.63-2.322 2.97-8.066 7.965-15.219 3.741 7.805 5.361 11.539 5.636 15.799 0.4 6.213-2.666 10.015-7.534 9.652-4.876-0.364-7.698-4.223-6.067-10.232zm-3.139 29.562c4.235-2.444 8.741-0.845 10.776 5.039 0.787 2.275 2.088 8.339 1.987 17.063-7.485-4.344-10.927-6.518-13.552-9.883-3.83-4.909-3.437-9.778 0.789-12.219zm43.484-16.817c3.304-3.603 8.082-3.433 11.793 1.567 1.434 1.933 4.498 7.326 7.025 15.676-8.445-1.892-12.382-2.93-15.897-5.351-5.129-3.531-6.218-8.292-2.921-11.892zm26.09 79.487c2.183-2.381 5.339-2.269 7.79 1.035 0.948 1.277 2.972 4.839 4.641 10.356-5.579-1.251-8.18-1.936-10.502-3.535-3.388-2.333-4.108-5.479-1.929-7.856zm52.711-22.176c1.423-1.553 3.481-1.48 5.08 0.675 0.618 0.833 1.938 3.156 3.026 6.753-3.638-0.815-5.334-1.262-6.848-2.305-2.21-1.521-2.679-3.573-1.258-5.123zm3.132-8.693c0.414-2.065 2.213-3.068 4.696-2.052 0.96 0.393 3.291 1.697 6.085 4.212-3.535 1.185-5.218 1.681-7.053 1.573-2.678-0.159-4.141-1.671-3.728-3.733zm3.817-9.238c-2.32 1.347-4.375 0.895-5.169-1.052-0.796-1.95 0.15-3.78 2.781-4.305 1.017-0.203 3.681-0.403 7.398 0.15-2.291 2.941-3.421 4.284-5.01 5.207zm-54.962 16.013c0.583 0.857 1.804 3.233 2.742 6.873-3.601-0.966-5.277-1.484-6.747-2.588-2.144-1.613-2.527-3.681-1.043-5.171 1.487-1.493 3.54-1.334 5.048 0.886zm6.19-14.237c1.191 0.629 4.037 2.612 7.329 6.219-4.72 1.082-6.959 1.508-9.318 1.134-3.44-0.545-5.139-2.686-4.342-5.299 0.798-2.617 3.251-3.684 6.331-2.054zm-67.922-117.65c0.026-1.809 0.661-6.428 2.966-12.569 4.178 4.988 6.054 7.405 7.048 10.456 1.45 4.451-0.076 7.792-3.688 8.435-3.62 0.643-6.394-1.642-6.326-6.322zm13.628 51.401c-2.892 2.269-6.415 1.556-8.553-2.607-0.828-1.609-2.439-5.985-3.289-12.489 6.032 2.439 8.824 3.692 11.135 5.918 3.371 3.247 3.594 6.914 0.707 9.178zm5.068-20.345c-2.349 1.843-5.24 1.227-7.026-2.217-0.691-1.331-2.046-4.945-2.797-10.304 4.959 2.058 7.256 3.111 9.167 4.963 2.787 2.7 3 5.719 0.656 7.558zm7.422 5.256c0.143-1.493 0.967-5.263 3.245-10.171 3.049 4.42 4.405 6.551 5.005 9.144 0.875 3.781-0.585 6.432-3.553 6.703-2.973 0.273-5.066-1.814-4.697-5.676zm40.137-21.374c0.557 2.409-0.373 4.097-2.263 4.27-1.894 0.174-3.228-1.155-2.992-3.616 0.09-0.951 0.615-3.353 2.067-6.479 1.942 2.815 2.806 4.173 3.188 5.825zm-18.13 19.139c-2.982-0.174-4.739-2.55-3.797-6.313 0.363-1.455 1.741-5.061 4.726-9.573 2.355 4.825 3.378 7.135 3.584 9.788 0.3 3.869-1.538 6.273-4.513 6.098zm7.763 10.992c0.703-1.673 3.017-5.731 7.42-10.578 1.925 6.207 2.723 9.158 2.479 12.369-0.354 4.684-2.998 7.219-6.523 6.462-3.534-0.76-5.197-3.926-3.376-8.253zm-8.371-29.99c-4.708 4.703-7.004 6.833-10.031 8.143-4.414 1.911-7.972 0.724-8.965-2.833-0.997-3.565 1.08-6.583 5.87-6.994 1.852-0.161 6.633 2e-3 13.126 1.684zm-47.934-60.097c4.615 4.955 6.697 7.365 7.895 10.482 1.75 4.545 0.348 8.1-3.372 8.966-3.725 0.865-6.734-1.357-6.918-6.225-0.072-1.881 0.334-6.716 2.395-13.223zm-36.316-12.348c0.307-1.495 1.559-5.221 4.437-9.943 2.675 4.789 3.848 7.087 4.189 9.771 0.499 3.915-1.29 6.441-4.384 6.405-3.098-0.039-5.037-2.368-4.242-6.233zm28.271 42.608c-3.725 0.866-6.734-1.357-6.918-6.224-0.072-1.882 0.335-6.716 2.396-13.224 4.614 4.955 6.696 7.365 7.894 10.482 1.75 4.546 0.348 8.101-3.372 8.966zm16.688-37.993c5.09 2.15 7.444 3.249 9.377 5.171 2.819 2.801 2.962 5.915 0.481 7.801-2.486 1.888-5.467 1.237-7.229-2.326-0.681-1.377-1.992-5.112-2.629-10.646zm30.251 47.896c-0.682-1.377-1.992-5.112-2.629-10.646 5.089 2.15 7.444 3.249 9.376 5.171 2.82 2.801 2.962 5.915 0.481 7.801-2.485 1.888-5.467 1.237-7.228-2.326zm48.96 46.738c-2.899-1.156-3.879-4.047-1.736-7.392 0.829-1.295 3.354-4.344 7.766-7.744 0.783 5.469 1.055 8.054 0.405 10.7-0.945 3.86-3.54 5.589-6.435 4.436zm-6.507-41.071c-3.64-0.138-5.846-2.935-4.795-7.452 0.405-1.747 1.99-6.087 5.515-11.549 2.997 5.709 4.306 8.445 4.625 11.61 0.468 4.614-1.711 7.528-5.345 7.391zm15.222 4.643c0.847-1.58 3.509-5.357 8.336-9.711 1.405 6.293 1.955 9.276 1.438 12.415-0.752 4.576-3.615 6.822-7.087 5.742-3.478-1.083-4.879-4.358-2.687-8.446zm-8.055 18.246c1.428 3.351-0.16 6.54-4.694 7.518-1.752 0.378-6.354 0.796-12.798-0.06 3.885-5.147 5.8-7.499 8.526-9.138 3.973-2.391 7.539-1.665 8.966 1.68zm18.253-47c-3.587 0.632-6.334-1.635-6.261-6.273 0.027-1.793 0.66-6.369 2.952-12.453 4.136 4.948 5.993 7.346 6.973 10.372 1.431 4.411-0.082 7.72-3.664 8.354zm-52.93-4.974c1.628 3.367 0.157 6.715-4.446 7.938-1.779 0.474-6.477 1.128-13.126 0.564 3.731-5.467 5.581-7.973 8.295-9.786 3.959-2.648 7.651-2.076 9.277 1.284z"/>
    </g>
  </g>
</svg>
